<?xml version="1.0" encoding="UTF-8"?>
<svg version="1.1" xmlns="http://www.w3.org/2000/svg" width="282" height="115">
<path d="M0 0 C93.06 0 186.12 0 282 0 C282 37.95 282 75.9 282 115 C188.94 115 95.88 115 0 115 C0 77.05 0 39.1 0 0 Z " fill="#F8FBFA" transform="translate(0,0)"/>
<path d="M0 0 C5.60096412 -0.07495628 11.20162711 -0.1289776 16.80297852 -0.16479492 C18.70276993 -0.17974885 20.60252764 -0.20011943 22.50219727 -0.22631836 C48.63403172 -0.57731219 48.63403172 -0.57731219 57 5 C57 5.66 57 6.32 57 7 C57.59425781 7.24878906 58.18851562 7.49757813 58.80078125 7.75390625 C62.87532968 10.06257579 65.01617612 13.84866484 67 18 C68.13175175 23.12048657 68.52168733 27.93950492 67 33 C66.34 33 65.68 33 65 33 C64.731875 33.9075 64.46375 34.815 64.1875 35.75 C63.09365038 38.74369369 62.19576514 40.71640425 60 43 C59.01 43 58.02 43 57 43 C57 43.99 57 44.98 57 46 C53.04 47.98 53.04 47.98 49 50 C50.485 50.495 50.485 50.495 52 51 C53.71875 52.671875 53.71875 52.671875 55.5 54.75 C56.38171875 55.76320313 56.38171875 55.76320313 57.28125 56.796875 C62.05922156 62.92136581 62.69462932 67.31351109 62.55078125 75.05859375 C61.41581987 83.18040958 56.48896857 90.95302445 50 96 C49.01 96 48.02 96 47 96 C47 96.66 47 97.32 47 98 C35.10077475 106.72133659 15.8957842 104.35930635 2 104.1875 C-0.14321968 104.17241376 -2.28644972 104.15873238 -4.4296875 104.14648438 C-9.62005322 104.11381914 -14.80990837 104.06225811 -20 104 C-19.51311867 100.83527138 -19.02620161 97.67054833 -18.5390625 94.50585938 C-18.22054913 92.43436841 -17.90260377 90.36278975 -17.5859375 88.29101562 C-17.22684669 85.94355498 -16.86380378 83.59673428 -16.5 81.25 C-16.38269531 80.47785156 -16.26539062 79.70570312 -16.14453125 78.91015625 C-15.30983861 73.55196801 -14.23602823 68.27978555 -13 63 C-12.34 63 -11.68 63 -11 63 C-11.03996094 61.73027344 -11.07992187 60.46054688 -11.12109375 59.15234375 C-11.12004482 53.78914828 -10.16841579 48.79359649 -9.0625 43.5625 C-7.63856947 36.71455141 -6.56172124 29.97603394 -6 23 C-5.34 23 -4.68 23 -4 23 C-3.896875 21.80375 -3.79375 20.6075 -3.6875 19.375 C-3.21929482 15.0664843 -2.38251883 10.89698963 -1.45703125 6.6640625 C-1.18479736 5.41318848 -0.91256348 4.16231445 -0.63208008 2.87353516 C-0.42349365 1.92526855 -0.21490723 0.97700195 0 0 Z " fill="#0470BA" transform="translate(118,6)"/>
<path d="M0 0 C5.47687495 -0.04992943 10.95361354 -0.0859669 16.43066406 -0.10986328 C18.2887605 -0.11983921 20.14684158 -0.13342478 22.00488281 -0.15087891 C50.50514401 -0.41164556 50.50514401 -0.41164556 57.0625 5.375 C58.10083984 6.25285156 58.10083984 6.25285156 59.16015625 7.1484375 C64 12.01910828 64 12.01910828 64 17 C64.66 17 65.32 17 66 17 C67.66769477 22.00308432 67.66769477 27.99691568 66 33 C65.34 33 64.68 33 64 33 C64.103125 33.70125 64.20625 34.4025 64.3125 35.125 C63.75444007 40.25915135 59.65669384 43.52145176 56 46.875 C52.89103452 49.07718389 51.6954813 49.54345313 48 49 C49.86649878 51.07388754 51.62772868 52.40540811 54 53.9375 C57.95001102 56.65313258 60.17008004 59.60363627 62 64 C62.78081113 71.57488202 62.51290459 79.12431495 59 86 C57.125 88.1875 57.125 88.1875 55 90 C54.236875 90.99 53.47375 91.98 52.6875 93 C46.43744092 100.61545661 36.32180421 102.77895047 27 104 C23.28234365 104.23116972 19.58692935 104.23579788 15.86328125 104.1953125 C14.35510078 104.19106766 14.35510078 104.19106766 12.81645203 104.18673706 C9.64833979 104.17566487 6.48052479 104.15058557 3.3125 104.125 C1.1464885 104.11495341 -1.0195275 104.10583052 -3.18554688 104.09765625 C-8.45713031 104.07576825 -13.72854391 104.04242292 -19 104 C-19.01587429 102.23660147 -19.02720955 100.47316167 -19.03662109 98.7097168 C-19.04681778 97.23670357 -19.04681778 97.23670357 -19.05722046 95.7339325 C-18.99144065 92.59104339 -18.46788314 89.83769939 -17.625 86.8125 C-15.70973282 79.27851062 -14.84150038 71.71210349 -14 64 C-13.34 64 -12.68 64 -12 64 C-11.87625 62.76765625 -11.7525 61.5353125 -11.625 60.265625 C-10.97158102 54.38945576 -9.99035191 48.57728807 -9 42.75 C-8.82210937 41.6878125 -8.64421875 40.625625 -8.4609375 39.53125 C-7.69928628 35.00681441 -6.91822881 30.49566449 -6 26 C-5.34 26 -4.68 26 -4 26 C-4.061875 24.824375 -4.12375 23.64875 -4.1875 22.4375 C-4.20989332 15.42839237 -3.15772187 6.31544373 0 0 Z " fill="#0370BA" transform="translate(205,6)"/>
<path d="M0 0 C5.58265355 -0.07504601 11.1650033 -0.12901841 16.74804688 -0.16479492 C18.64100266 -0.17973424 20.53392475 -0.20009315 22.42675781 -0.22631836 C46.44607181 -0.55038847 46.44607181 -0.55038847 55 3 C56.23950195 5.07446289 56.23950195 5.07446289 57 7 C58.32365935 7.36988485 59.65823859 7.70240091 61 8 C66.09044322 12.88463015 66.80519957 19.13412144 67.0703125 25.87890625 C66.91951976 32.5724286 65.28281386 37.80871047 61 43 C60.01 43 59.02 43 58 43 C57.79375 43.598125 57.5875 44.19625 57.375 44.8125 C55.49073918 47.81018767 53.18867916 48.61361776 50 50 C52.05233685 52.2477975 53.00667261 53.0022242 56 54 C59.69505535 57.41930495 62.74718453 60.81728294 63 66 C63.061875 67.2375 63.12375 68.475 63.1875 69.75 C63.0650199 76.94910798 61.94785645 82.57331873 57 88 C56.505 89.485 56.505 89.485 56 91 C53.625 93.6875 53.625 93.6875 51 96 C50.01 96 49.02 96 48 96 C48 96.66 48 97.32 48 98 C47.34 98 46.68 98 46 98 C46 98.66 46 99.32 46 100 C44.14703165 100.48377991 42.29255559 100.96178636 40.4375 101.4375 C39.40496094 101.70433594 38.37242188 101.97117187 37.30859375 102.24609375 C30.23340717 103.85826732 23.47193352 104.13606018 16.25390625 104.09765625 C15.24279282 104.0962413 14.23167938 104.09482635 13.18992615 104.09336853 C9.98075319 104.08779961 6.77165164 104.07525287 3.5625 104.0625 C1.37825622 104.05748098 -0.80598866 104.05291878 -2.99023438 104.04882812 C-8.32684702 104.03784037 -13.6634184 104.02113336 -19 104 C-19 101.69 -19 99.38 -19 97 C-18.34 97 -17.68 97 -17 97 C-17.04640625 96.42636719 -17.0928125 95.85273437 -17.140625 95.26171875 C-17.45627819 87.83259546 -16.12033353 81.14154194 -14.50195312 73.94482422 C-13.23752995 68.2900428 -12.37981281 62.79214535 -12 57 C-11.34 57 -10.68 57 -10 57 C-9.83564453 55.81470703 -9.83564453 55.81470703 -9.66796875 54.60546875 C-8.65125919 47.37277881 -7.57317084 40.15239106 -6.4375 32.9375 C-6.31076904 32.12885498 -6.18403809 31.32020996 -6.0534668 30.48706055 C-5.44401011 26.64004121 -4.80537146 22.81209158 -4 19 C-3.34 19 -2.68 19 -2 19 C-1.90912109 17.57107422 -1.90912109 17.57107422 -1.81640625 16.11328125 C-1.73261719 14.85902344 -1.64882813 13.60476562 -1.5625 12.3125 C-1.48128906 11.07113281 -1.40007813 9.82976563 -1.31640625 8.55078125 C-1.05450202 5.61163383 -0.60686889 2.87884779 0 0 Z " fill="#0370BA" transform="translate(30,6)"/>
<path d="M0 0 C16.29704207 -0.62591769 16.29704207 -0.62591769 23 3 C24.60964787 6.21929573 24.60686242 9.51887712 24 13 C21.46546343 16.21954645 19.88702695 17.70432435 16 19 C14.59175107 19.08021999 13.18002769 19.10765977 11.76953125 19.09765625 C10.96708984 19.09443359 10.16464844 19.09121094 9.33789062 19.08789062 C8.50451172 19.07951172 7.67113281 19.07113281 6.8125 19.0625 C5.96751953 19.05798828 5.12253906 19.05347656 4.25195312 19.04882812 C2.16793845 19.03705403 0.08396023 19.0191189 -2 19 C-1.85820962 16.77057252 -1.71140302 14.54146372 -1.5625 12.3125 C-1.48128906 11.07113281 -1.40007812 9.82976562 -1.31640625 8.55078125 C-1.05508683 5.61819663 -0.65201621 2.86558383 0 0 Z " fill="#F8FBFA" transform="translate(218,67)"/>
<path d="M0 0 C2.20770805 -0.08165496 4.41630425 -0.13948488 6.625 -0.1875 C7.85476562 -0.22230469 9.08453125 -0.25710937 10.3515625 -0.29296875 C15.22338091 0.09823722 18.54279619 1.54279619 22 5 C22.34532068 8.00922309 22.56241657 10.09325299 22 13 C19.82425584 15.69105198 18.08934144 17.45532928 15 19 C13.55151418 19.08342159 12.09929131 19.10732861 10.6484375 19.09765625 C9.79765625 19.09443359 8.946875 19.09121094 8.0703125 19.08789062 C7.18085937 19.07951172 6.29140625 19.07113281 5.375 19.0625 C4.4778125 19.05798828 3.580625 19.05347656 2.65625 19.04882812 C0.43743352 19.03702591 -1.78125018 19.02056155 -4 19 C-4.20040891 14.03361674 -3.67964756 10.23401977 -2 5.5625 C-1.62875 4.51191406 -1.2575 3.46132812 -0.875 2.37890625 C-0.58625 1.59386719 -0.2975 0.80882813 0 0 Z " fill="#F7FBFA" transform="translate(45,67)"/>
<path d="M0 0 C8.05364285 -0.33608711 14.49783264 -0.0517291 22 3 C22 6.96 22 10.92 22 15 C16.32146877 18.8720723 12.35417692 19.53458276 5.5625 19.25 C4.73556641 19.23195313 3.90863281 19.21390625 3.05664062 19.1953125 C1.03725067 19.1486214 -0.98153445 19.07689393 -3 19 C-3.39325819 12.02330843 -2.63096039 6.48343811 0 0 Z " fill="#F8FBFA" transform="translate(132,67)"/>
<path d="M0 0 C2.20770805 -0.08165496 4.41630425 -0.13948488 6.625 -0.1875 C7.85476562 -0.22230469 9.08453125 -0.25710937 10.3515625 -0.29296875 C14.26407664 0.0212053 16.64070218 1.03093467 20 3 C20.05416188 4.60379341 20.09286638 6.20811406 20.125 7.8125 C20.14820312 8.70582031 20.17140625 9.59914063 20.1953125 10.51953125 C20 13 20 13 18 16 C11.36277573 18.33531965 4.97739068 18.20932172 -2 18 C-2.20852314 11.59370576 -2.1583195 6.07027358 0 0 Z " fill="#F4F9F9" transform="translate(51,29)"/>
<path d="M0 0 C13.9311669 -0.68701645 13.9311669 -0.68701645 17.875 1.5625 C20 4 20 4 20.5625 7.4375 C19.96669423 11.21093657 19.52986983 13.14369536 17 16 C10.67895204 18.88569581 3.82231562 18.18466418 -3 18 C-2.19500136 11.96251023 -1.11517502 5.98729887 0 0 Z " fill="#F7FAFA" transform="translate(139,29)"/>
<path d="M0 0 C13.2293578 -0.3853211 13.2293578 -0.3853211 18 2 C20 5 20 5 19.75 8.4375 C18.53799392 14.19452888 18.53799392 14.19452888 17 16 C10.42106527 18.43664249 3.94552045 18.20836561 -3 18 C-2.41509121 11.85845775 -1.45933748 5.99320151 0 0 Z " fill="#F9FCFA" transform="translate(226,29)"/>
</svg>
