<?xml version="1.0" encoding="UTF-8"?>
<svg version="1.1" xmlns="http://www.w3.org/2000/svg" width="282" height="165">
<path d="M0 0 C93.06 0 186.12 0 282 0 C282 54.45 282 108.9 282 165 C188.94 165 95.88 165 0 165 C0 110.55 0 56.1 0 0 Z " fill="#FCFCFC" transform="translate(0,0)"/>
<path d="M0 0 C3.63 0 7.26 0 11 0 C10.67 5.61 10.34 11.22 10 17 C12.64 16.34 15.28 15.68 18 15 C18.33 12.69 18.66 10.38 19 8 C18.360625 7.896875 17.72125 7.79375 17.0625 7.6875 C16.381875 7.460625 15.70125 7.23375 15 7 C14.505 5.515 14.505 5.515 14 4 C20.34375 3.51201923 20.34375 3.51201923 23.4375 5.8125 C25 8 25 8 25 11 C25.66 11 26.32 11 27 11 C27.4125 12.051875 27.825 13.10375 28.25 14.1875 C29.69220829 17.59635596 31.63565426 20.14647928 34 23 C34 23.66 34 24.32 34 25 C32.68 25 31.36 25 30 25 C30.495 25.78375 30.99 26.5675 31.5 27.375 C33 30 33 30 33 32 C31.35 32 29.7 32 28 32 C28.66 32.61875 29.32 33.2375 30 33.875 C32 36 32 36 32 38 C29.03 37.505 29.03 37.505 26 37 C26.66 38.32 27.32 39.64 28 41 C25.00998387 40.67675501 23.43579795 40.45193862 21.3125 38.25 C19.39569444 34.9640476 18.19973514 31.59920543 17 28 C16.01 28 15.02 28 14 28 C14.598125 28.70125 15.19625 29.4025 15.8125 30.125 C21 36.94285714 21 36.94285714 21 41 C21.66 41 22.32 41 23 41 C23 41.66 23 42.32 23 43 C23.66 43 24.32 43 25 43 C25.33 43.99 25.66 44.98 26 46 C23.875 46 23.875 46 21 45 C17.08603336 40.90011994 14.37279328 36.12023814 12 31 C11.67 30.67 11.34 30.34 11 30 C11.60698743 34.12751449 13.03810791 37.3321148 15 41 C12.35261084 42.4606285 11.10551666 43 8 43 C8 46.3 8 49.6 8 53 C8.99 53.33 9.98 53.66 11 54 C11 54.66 11 55.32 11 56 C7.37 56 3.74 56 0 56 C0 55.01 0 54.02 0 53 C0.66 53 1.32 53 2 53 C2 49.7 2 46.4 2 43 C-1.465 42.505 -1.465 42.505 -5 42 C-5 41.34 -5 40.68 -5 40 C-4.34 40 -3.68 40 -3 40 C-0.91620491 36.15299368 0.49686624 32.09945571 2 28 C-1.32901247 30.21934164 -1.75023244 31.34683329 -3 35 C-3.66 35 -4.32 35 -5 35 C-5.226875 35.886875 -5.45375 36.77375 -5.6875 37.6875 C-7.20085431 41.50691803 -8.77869701 43.46897622 -12 46 C-14.3125 45.8125 -14.3125 45.8125 -16 45 C-14.625 43.5 -14.625 43.5 -13 42 C-12.34 42 -11.68 42 -11 42 C-10.67 40.35 -10.34 38.7 -10 37 C-9.34 37 -8.68 37 -8 37 C-8 36.34 -8 35.68 -8 35 C-7.34 35 -6.68 35 -6 35 C-5.87625 34.236875 -5.7525 33.47375 -5.625 32.6875 C-5 30 -5 30 -3 27 C-4.32 27.33 -5.64 27.66 -7 28 C-7.0825 28.886875 -7.165 29.77375 -7.25 30.6875 C-8.10771144 34.47572551 -9.39664817 36.16694065 -12 39 C-12.53625 39.598125 -13.0725 40.19625 -13.625 40.8125 C-15 42 -15 42 -17 42 C-15.87548273 39.0280615 -14.77706209 36.66559313 -13 34 C-12.34 34 -11.68 34 -11 34 C-10.690625 33.071875 -10.38125 32.14375 -10.0625 31.1875 C-9.375 29.125 -8.6875 27.0625 -8 25 C-8.66 25 -9.32 25 -10 25 C-10.309375 25.94875 -10.61875 26.8975 -10.9375 27.875 C-12 31 -12 31 -13 33 C-13.66 33 -14.32 33 -15 33 C-15.37125 33.9590625 -15.37125 33.9590625 -15.75 34.9375 C-17 37 -17 37 -19.125 37.75 C-19.74375 37.8325 -20.3625 37.915 -21 38 C-19.125 34.125 -19.125 34.125 -18 33 C-19.32 32.67 -20.64 32.34 -22 32 C-20.87548273 29.0280615 -19.77706209 26.66559313 -18 24 C-19.98 24.33 -21.96 24.66 -24 25 C-22.31902178 22.10553454 -20.63229439 19.21546469 -18.92578125 16.3359375 C-17.7204374 14.24797878 -16.56310547 12.13070343 -15.48046875 9.9765625 C-14.13890309 7.39691282 -12.94419157 5.16437713 -11 3 C-7.94597623 2.12425453 -6.20644241 2.4471651 -3 3 C-3 4.32 -3 5.64 -3 7 C-4.65 7 -6.3 7 -8 7 C-8.0615942 10.41136476 -8.0615942 10.41136476 -7 14 C-4.71858658 15.59040839 -2.70125887 16.16506544 0 17 C0.309375 16.21625 0.61875 15.4325 0.9375 14.625 C2 12 2 12 3 10 C2.01 10 1.02 10 0 10 C0 8.35 0 6.7 0 5 C1.32 4.34 2.64 3.68 4 3 C2.68 2.67 1.36 2.34 0 2 C-0.33 2.66 -0.66 3.32 -1 4 C-0.67 2.68 -0.34 1.36 0 0 Z " fill="#1F1E1F" transform="translate(28,3)"/>
<path d="M0 0 C2.97 0 5.94 0 9 0 C9 33.66 9 67.32 9 102 C6.03 102 3.06 102 0 102 C0 68.34 0 34.68 0 0 Z " fill="#C02E33" transform="translate(79,7)"/>
<path d="M0 0 C3.63 0 7.26 0 11 0 C10.67 5.61 10.34 11.22 10 17 C12.64 16.34 15.28 15.68 18 15 C18.33 12.69 18.66 10.38 19 8 C18.0409375 7.8453125 18.0409375 7.8453125 17.0625 7.6875 C16.381875 7.460625 15.70125 7.23375 15 7 C14.67 6.01 14.34 5.02 14 4 C20.34375 3.51201923 20.34375 3.51201923 23.4375 5.8125 C25 8 25 8 25 11 C25.66 11 26.32 11 27 11 C27.4125 12.051875 27.825 13.10375 28.25 14.1875 C29.69220829 17.59635596 31.63565426 20.14647928 34 23 C34 23.66 34 24.32 34 25 C32.68 25 31.36 25 30 25 C30.495 25.78375 30.99 26.5675 31.5 27.375 C33 30 33 30 33 32 C31.35 32 29.7 32 28 32 C28.66 32.61875 29.32 33.2375 30 33.875 C32 36 32 36 32 38 C30.02 37.67 28.04 37.34 26 37 C26.66 38.32 27.32 39.64 28 41 C25.00998387 40.67675501 23.43579795 40.45193862 21.3125 38.25 C19.39569444 34.9640476 18.19973514 31.59920543 17 28 C16.01 28 15.02 28 14 28 C14.598125 28.70125 15.19625 29.4025 15.8125 30.125 C21 36.94285714 21 36.94285714 21 41 C21.66 41 22.32 41 23 41 C23 41.66 23 42.32 23 43 C23.66 43 24.32 43 25 43 C25.33 43.99 25.66 44.98 26 46 C23.875 46 23.875 46 21 45 C17.08603336 40.90011994 14.37279328 36.12023814 12 31 C11.67 30.67 11.34 30.34 11 30 C10.34 31.32 9.68 32.64 9 34 C7.35 34 5.7 34 4 34 C4.33 33.01 4.66 32.02 5 31 C5.99 31 6.98 31 8 31 C7.41196203 27.97580475 6.77321882 24.98241547 6 22 C4.02 22 2.04 22 0 22 C0.375 20.0625 0.375 20.0625 1 18 C1.66 17.67 2.32 17.34 3 17 C2.814375 16.21625 2.62875 15.4325 2.4375 14.625 C2 12 2 12 3 10 C2.01 10 1.02 10 0 10 C0 8.35 0 6.7 0 5 C1.32 4.34 2.64 3.68 4 3 C2.68 2.67 1.36 2.34 0 2 C-0.33 2.66 -0.66 3.32 -1 4 C-0.67 2.68 -0.34 1.36 0 0 Z " fill="#2C2A2B" transform="translate(28,3)"/>
<path d="M0 0 C1.0725 0.2475 2.145 0.495 3.25 0.75 C3.25 5.37 3.25 9.99 3.25 14.75 C1.93 14.42 0.61 14.09 -0.75 13.75 C-0.09 13.75 0.57 13.75 1.25 13.75 C1.25 12.1 1.25 10.45 1.25 8.75 C-0.07 9.08 -1.39 9.41 -2.75 9.75 C-2.75 11.4 -2.75 13.05 -2.75 14.75 C-4.07 14.75 -5.39 14.75 -6.75 14.75 C-7.08 14.09 -7.41 13.43 -7.75 12.75 C-8.30171875 13.23082031 -8.8534375 13.71164063 -9.421875 14.20703125 C-12.11143493 15.98954161 -13.80821418 16.22751409 -17 16.4375 C-17.89203125 16.50324219 -18.7840625 16.56898437 -19.703125 16.63671875 C-20.37859375 16.67410156 -21.0540625 16.71148438 -21.75 16.75 C-22.08 17.74 -22.41 18.73 -22.75 19.75 C-24.5 20.75 -24.5 20.75 -26.75 20.75 C-33.51882172 14.94815281 -33.51882172 14.94815281 -33.98046875 10.55859375 C-33.96628906 9.77613281 -33.95210937 8.99367188 -33.9375 8.1875 C-33.93105469 7.40246094 -33.92460937 6.61742187 -33.91796875 5.80859375 C-33.75 3.75 -33.75 3.75 -32.75 1.75 C-30.77 2.245 -30.77 2.245 -28.75 2.75 C-29.41 4.07 -30.07 5.39 -30.75 6.75 C-29.1 6.75 -27.45 6.75 -25.75 6.75 C-26.41 4.77 -27.07 2.79 -27.75 0.75 C-25.77 1.41 -23.79 2.07 -21.75 2.75 C-21.42 2.09 -21.09 1.43 -20.75 0.75 C-19.31260487 0.72287934 -17.87506137 0.70354933 -16.4375 0.6875 C-15.23673828 0.67009766 -15.23673828 0.67009766 -14.01171875 0.65234375 C-11.75 0.75 -11.75 0.75 -8.75 1.75 C-8.42 2.41 -8.09 3.07 -7.75 3.75 C-7.234375 3.069375 -6.71875 2.38875 -6.1875 1.6875 C-3.75 -0.25 -3.75 -0.25 0 0 Z " fill="#D1D1D1" transform="translate(198.75,11.25)"/>
<path d="M0 0 C2.97 0 5.94 0 9 0 C9 17.16 9 34.32 9 52 C6.36 52 3.72 52 1 52 C0 51 0 51 -0.12025452 48.94358826 C-0.11803391 48.03979935 -0.11581329 47.13601044 -0.11352539 46.20483398 C-0.11344986 45.18385117 -0.11337433 44.16286835 -0.11329651 43.11094666 C-0.10813522 42.0005452 -0.10297394 40.89014374 -0.09765625 39.74609375 C-0.0962413 38.61551041 -0.09482635 37.48492706 -0.09336853 36.32008362 C-0.08775019 32.69252935 -0.07519458 29.06503576 -0.0625 25.4375 C-0.05748736 22.98502693 -0.05292405 20.5325529 -0.04882812 18.08007812 C-0.0377748 12.05336455 -0.02101884 6.02668661 0 0 Z " fill="#EECB25" transform="translate(79,109)"/>
<path d="M0 0 C1.51400391 0.01740234 1.51400391 0.01740234 3.05859375 0.03515625 C4.07050781 0.04417969 5.08242187 0.05320312 6.125 0.0625 C7.29869141 0.07990234 7.29869141 0.07990234 8.49609375 0.09765625 C8.49609375 0.75765625 8.49609375 1.41765625 8.49609375 2.09765625 C9.15609375 2.09765625 9.81609375 2.09765625 10.49609375 2.09765625 C10.49609375 4.40765625 10.49609375 6.71765625 10.49609375 9.09765625 C9.83609375 9.09765625 9.17609375 9.09765625 8.49609375 9.09765625 C9.48609375 10.41765625 10.47609375 11.73765625 11.49609375 13.09765625 C12.15609375 10.78765625 12.81609375 8.47765625 13.49609375 6.09765625 C14.81609375 5.76765625 16.13609375 5.43765625 17.49609375 5.09765625 C17.49609375 9.38765625 17.49609375 13.67765625 17.49609375 18.09765625 C18.81609375 18.09765625 20.13609375 18.09765625 21.49609375 18.09765625 C21.49609375 14.13765625 21.49609375 10.17765625 21.49609375 6.09765625 C22.81609375 6.42765625 24.13609375 6.75765625 25.49609375 7.09765625 C25.49609375 11.71765625 25.49609375 16.33765625 25.49609375 21.09765625 C23.92859375 21.13890625 22.36109375 21.18015625 20.74609375 21.22265625 C19.42351562 21.25746094 19.42351562 21.25746094 18.07421875 21.29296875 C15.38250795 21.08905127 13.79704401 20.46317346 11.49609375 19.09765625 C10.83609375 19.75765625 10.17609375 20.41765625 9.49609375 21.09765625 C6.45703125 21.29296875 6.45703125 21.29296875 2.87109375 21.22265625 C1.68257813 21.20460938 0.4940625 21.1865625 -0.73046875 21.16796875 C-1.64570312 21.14476563 -2.5609375 21.1215625 -3.50390625 21.09765625 C-3.53278771 17.78517438 -3.55066424 14.47272458 -3.56640625 11.16015625 C-3.57478516 10.21462891 -3.58316406 9.26910156 -3.59179688 8.29492188 C-3.59501953 7.39580078 -3.59824219 6.49667969 -3.6015625 5.5703125 C-3.60679932 4.73765869 -3.61203613 3.90500488 -3.61743164 3.04711914 C-3.44363495 0.06267488 -2.99982609 0.1169979 0 0 Z " fill="#ADADAD" transform="translate(108.50390625,5.90234375)"/>
<path d="M0 0 C1.65 0 3.3 0 5 0 C6.66666667 5 8.33333333 10 10 15 C10.66 15 11.32 15 12 15 C11.938125 14.195625 11.87625 13.39125 11.8125 12.5625 C12.05139407 8.02351267 13.42043264 4.23098399 15 0 C17.375 -0.125 17.375 -0.125 20 0 C20.66 0.66 21.32 1.32 22 2 C22.33 1.34 22.66 0.68 23 0 C24.32 0 25.64 0 27 0 C26.814375 0.804375 26.62875 1.60875 26.4375 2.4375 C26.2209375 3.7059375 26.2209375 3.7059375 26 5 C26.33 5.33 26.66 5.66 27 6 C27.07319621 8.69654854 27.09242537 11.36691458 27.0625 14.0625 C27.05798828 14.82111328 27.05347656 15.57972656 27.04882812 16.36132812 C27.0370068 18.24091871 27.01907078 20.12046899 27 22 C25.68 22 24.36 22 23 22 C22.67 17.38 22.34 12.76 22 8 C21.67 12.62 21.34 17.24 21 22 C19.68 22 18.36 22 17 22 C16.67 17.05 16.34 12.1 16 7 C15.566875 9.3203125 15.566875 9.3203125 15.125 11.6875 C14.40424822 15.31700003 13.57309607 18.62907984 12 22 C10.109375 21.78515625 10.109375 21.78515625 8 21 C6.53257498 18.10347822 5.88549685 15.14351383 5 12 C4.67 15.3 4.34 18.6 4 22 C2.68 22 1.36 22 0 22 C0 14.74 0 7.48 0 0 Z " fill="#636363" transform="translate(143,36)"/>
<path d="M0 0 C2.31 0 4.62 0 7 0 C7 16.83 7 33.66 7 51 C4.69 51 2.38 51 0 51 C0 34.17 0 17.34 0 0 Z " fill="#1A1617" transform="translate(80,7)"/>
<path d="M0 0 C3.63 0 7.26 0 11 0 C10.67 5.61 10.34 11.22 10 17 C12.64 16.34 15.28 15.68 18 15 C18.33 12.69 18.66 10.38 19 8 C18.0409375 7.8453125 18.0409375 7.8453125 17.0625 7.6875 C16.381875 7.460625 15.70125 7.23375 15 7 C14.67 6.01 14.34 5.02 14 4 C20.4 3.50769231 20.4 3.50769231 23.4375 6 C24.2109375 6.99 24.2109375 6.99 25 8 C22.88974828 16.99001547 22.88974828 16.99001547 19.6875 20.625 C16.55439096 22.22798602 14.47385562 22.32314936 11 22 C10.67 23.65 10.34 25.3 10 27 C8.68 26.34 7.36 25.68 6 25 C6 24.01 6 23.02 6 22 C4.02 22 2.04 22 0 22 C0.375 20.0625 0.375 20.0625 1 18 C1.66 17.67 2.32 17.34 3 17 C2.814375 16.21625 2.62875 15.4325 2.4375 14.625 C2 12 2 12 3 10 C2.01 10 1.02 10 0 10 C0 8.35 0 6.7 0 5 C1.32 4.34 2.64 3.68 4 3 C2.68 2.67 1.36 2.34 0 2 C-0.33 2.66 -0.66 3.32 -1 4 C-0.67 2.68 -0.34 1.36 0 0 Z " fill="#1F1C1D" transform="translate(28,3)"/>
<path d="M0 0 C1.21816406 0.03480469 1.21816406 0.03480469 2.4609375 0.0703125 C3.68683594 0.09738281 3.68683594 0.09738281 4.9375 0.125 C5.87722656 0.15980469 5.87722656 0.15980469 6.8359375 0.1953125 C7.1659375 1.1853125 7.4959375 2.1753125 7.8359375 3.1953125 C8.1659375 2.2053125 8.4959375 1.2153125 8.8359375 0.1953125 C11.8059375 0.1953125 14.7759375 0.1953125 17.8359375 0.1953125 C17.8359375 1.1853125 17.8359375 2.1753125 17.8359375 3.1953125 C16.5159375 3.5253125 15.1959375 3.8553125 13.8359375 4.1953125 C13.5059375 7.8253125 13.1759375 11.4553125 12.8359375 15.1953125 C11.5159375 15.1953125 10.1959375 15.1953125 8.8359375 15.1953125 C7.8459375 17.6703125 7.8459375 17.6703125 6.8359375 20.1953125 C3.5359375 20.1953125 0.2359375 20.1953125 -3.1640625 20.1953125 C-3.4940625 18.8753125 -3.8240625 17.5553125 -4.1640625 16.1953125 C-2.8440625 16.1953125 -1.5240625 16.1953125 -0.1640625 16.1953125 C-0.1640625 16.8553125 -0.1640625 17.5153125 -0.1640625 18.1953125 C0.8259375 17.8653125 1.8159375 17.5353125 2.8359375 17.1953125 C3.1659375 16.5353125 3.4959375 15.8753125 3.8359375 15.1953125 C3.0728125 15.2365625 2.3096875 15.2778125 1.5234375 15.3203125 C-1.1640625 15.1953125 -1.1640625 15.1953125 -4.1640625 13.1953125 C-4.52734375 10.6640625 -4.52734375 10.6640625 -4.4765625 7.6953125 C-4.47269531 6.715625 -4.46882812 5.7359375 -4.46484375 4.7265625 C-4.07918983 1.48105936 -3.34561413 0.30195073 0 0 Z " fill="#3A3A3A" transform="translate(177.1640625,42.8046875)"/>
<path d="M0 0 C0.99 0 1.98 0 3 0 C2.814375 0.804375 2.62875 1.60875 2.4375 2.4375 C2.2209375 3.7059375 2.2209375 3.7059375 2 5 C2.33 5.33 2.66 5.66 3 6 C3.07319621 8.69654854 3.09242537 11.36691458 3.0625 14.0625 C3.05798828 14.82111328 3.05347656 15.57972656 3.04882812 16.36132812 C3.0370068 18.24091871 3.01907078 20.12046899 3 22 C1.68 22 0.36 22 -1 22 C-1.33 17.38 -1.66 12.76 -2 8 C-2.33 12.62 -2.66 17.24 -3 22 C-10.71484375 22.09765625 -10.71484375 22.09765625 -13 22 C-14 21 -14 21 -14.09765625 18.27734375 C-14.08605469 17.17519531 -14.07445312 16.07304688 -14.0625 14.9375 C-14.05347656 13.83277344 -14.04445312 12.72804688 -14.03515625 11.58984375 C-14.02355469 10.73519531 -14.01195312 9.88054687 -14 9 C-14.66 9 -15.32 9 -16 9 C-16 8.34 -16 7.68 -16 7 C-15.34 7 -14.68 7 -14 7 C-14 6.01 -14 5.02 -14 4 C-13.01 4 -12.02 4 -11 4 C-11 4.99 -11 5.98 -11 7 C-9.68 7 -8.36 7 -7 7 C-7 5.02 -7 3.04 -7 1 C-5.5459375 1.0309375 -5.5459375 1.0309375 -4.0625 1.0625 C-1.12534105 1.35618499 -1.12534105 1.35618499 0 0 Z " fill="#7B7B7B" transform="translate(230,67)"/>
<path d="M0 0 C1.98 0 3.96 0 6 0 C6 0.66 6 1.32 6 2 C6.66 2 7.32 2 8 2 C8 1.34 8 0.68 8 0 C10.31 0.33 12.62 0.66 15 1 C15 2.32 15 3.64 15 5 C13.02 5.66 11.04 6.32 9 7 C9 11.29 9 15.58 9 20 C10.32 20 11.64 20 13 20 C13 15.71 13 11.42 13 7 C14.32 7 15.64 7 17 7 C17 11.95 17 16.9 17 22 C13.7 22 10.4 22 7 22 C5.85185003 19.70370006 5.69230191 17.92301914 5.4375 15.375 C5.31181641 14.14910156 5.31181641 14.14910156 5.18359375 12.8984375 C5.12300781 12.27195312 5.06242187 11.64546875 5 11 C4.01 11 3.02 11 2 11 C2 14.63 2 18.26 2 22 C0.68 22 -0.64 22 -2 22 C-2.19585135 19.60458732 -2.38192107 17.20907226 -2.5625 14.8125 C-2.61857422 14.13896484 -2.67464844 13.46542969 -2.73242188 12.77148438 C-3.00963763 8.982869 -2.96511161 5.68172206 -2 2 C-1.34 2 -0.68 2 0 2 C0 1.34 0 0.68 0 0 Z " fill="#CDCDCD" transform="translate(107,36)"/>
<path d="M0 0 C2.22265625 -0.0078125 2.22265625 -0.0078125 5.84765625 0.6171875 C5.84765625 1.9371875 5.84765625 3.2571875 5.84765625 4.6171875 C4.19765625 4.6171875 2.54765625 4.6171875 0.84765625 4.6171875 C0.94028602 9.25473762 0.94028602 9.25473762 3.25 13.08984375 C4.78091886 14.26775074 6.3141809 15.44261064 7.84765625 16.6171875 C7.84765625 17.6071875 7.84765625 18.5971875 7.84765625 19.6171875 C6.52765625 19.6171875 5.20765625 19.6171875 3.84765625 19.6171875 C3.84765625 18.9571875 3.84765625 18.2971875 3.84765625 17.6171875 C2.19765625 17.2871875 0.54765625 16.9571875 -1.15234375 16.6171875 C-1.15234375 16.9471875 -1.15234375 17.2771875 -1.15234375 17.6171875 C-1.47784877 19.28540073 -1.81080438 20.95218307 -2.15234375 22.6171875 C-2.81234375 22.6171875 -3.47234375 22.6171875 -4.15234375 22.6171875 C-4.30703125 23.4834375 -4.30703125 23.4834375 -4.46484375 24.3671875 C-5.25027173 26.93767908 -6.45738572 28.55376034 -8.15234375 30.6171875 C-9.80234375 30.2871875 -11.45234375 29.9571875 -13.15234375 29.6171875 C-12.02782648 26.645249 -10.92940584 24.28278063 -9.15234375 21.6171875 C-11.13234375 21.9471875 -13.11234375 22.2771875 -15.15234375 22.6171875 C-13.47136553 19.72272204 -11.78463814 16.83265219 -10.078125 13.953125 C-8.87278115 11.86516628 -7.71544922 9.74789093 -6.6328125 7.59375 C-3.15396983 0.90440514 -3.15396983 0.90440514 0 0 Z " fill="#444444" transform="translate(19.15234375,5.3828125)"/>
<path d="M0 0 C11 0 11 0 16 1 C16 7.93 16 14.86 16 22 C14.68 22 13.36 22 12 22 C11.67 19.03 11.34 16.06 11 13 C8.69 13 6.38 13 4 13 C4 15.97 4 18.94 4 22 C2.68 22 1.36 22 0 22 C0 14.74 0 7.48 0 0 Z " fill="#B9B9B9" transform="translate(154,67)"/>
<path d="M0 0 C-0.309375 0.763125 -0.61875 1.52625 -0.9375 2.3125 C-1.67893593 4.18789677 -2.36228217 6.08684652 -3 8 C-3.66 8 -4.32 8 -5 8 C-5 8.66 -5 9.32 -5 10 C-5.66 10 -6.32 10 -7 10 C-7.0825 10.763125 -7.165 11.52625 -7.25 12.3125 C-8.14615794 15.52373261 -9.21611025 16.29374499 -12 18 C-9.61435923 17.42415568 -7.33317216 16.77772405 -5 16 C-3.82917122 13.07085835 -3.82917122 13.07085835 -3 10 C-2.67 9.34 -2.34 8.68 -2 8 C-1.34 8 -0.68 8 0 8 C0.268125 7.030625 0.53625 6.06125 0.8125 5.0625 C1.204375 4.051875 1.59625 3.04125 2 2 C2.99 1.67 3.98 1.34 5 1 C4.52583422 5.97874064 3.0900669 9.06718758 0 13 C-0.66 13 -1.32 13 -2 13 C-2 13.66 -2 14.32 -2 15 C0.31 15.33 2.62 15.66 5 16 C5.33 15.34 5.66 14.68 6 14 C6.05395478 15.62463842 6.09277195 17.24978541 6.125 18.875 C6.14820312 19.77992187 6.17140625 20.68484375 6.1953125 21.6171875 C6 24 6 24 4 26 C4 25.01 4 24.02 4 23 C3.01 23 2.02 23 1 23 C0.67 24.65 0.34 26.3 0 28 C-2.31 28 -4.62 28 -7 28 C-7 26.35 -7 24.7 -7 23 C-7.66 23 -8.32 23 -9 23 C-9 22.01 -9 21.02 -9 20 C-10.65 20 -12.3 20 -14 20 C-14 19.01 -14 18.02 -14 17 C-14.66 17 -15.32 17 -16 17 C-15.34 15.68 -14.68 14.36 -14 13 C-14 13.66 -14 14.32 -14 15 C-12.04105639 14.88693303 -12.04105639 14.88693303 -10 14 C-8.86454438 11.70465742 -8.86454438 11.70465742 -8 9 C-7.00585407 7.32983484 -6.0064275 5.66279327 -5 4 C-4.67 3.01 -4.34 2.02 -4 1 C-2 0 -2 0 0 0 Z " fill="#BEBEBE" transform="translate(25,30)"/>
<path d="M0 0 C1.98 0.66 3.96 1.32 6 2 C6.33 1.34 6.66 0.68 7 0 C7.66 0.33 8.32 0.66 9 1 C9.103125 1.969375 9.20625 2.93875 9.3125 3.9375 C9.6528125 5.4534375 9.6528125 5.4534375 10 7 C12.46255685 8.45291273 12.46255685 8.45291273 15 9 C15 10.32 15 11.64 15 13 C12.83125748 12.49396008 11.00032373 12.00016187 9 11 C9 12.32 9 13.64 9 15 C8.01 15.33 7.02 15.66 6 16 C5.67 16.99 5.34 17.98 5 19 C3.25 20 3.25 20 1 20 C-5.76882172 14.19815281 -5.76882172 14.19815281 -6.23046875 9.80859375 C-6.21628906 9.02613281 -6.20210937 8.24367188 -6.1875 7.4375 C-6.18105469 6.65246094 -6.17460937 5.86742187 -6.16796875 5.05859375 C-6 3 -6 3 -5 1 C-3.02 1.495 -3.02 1.495 -1 2 C-1.66 3.32 -2.32 4.64 -3 6 C-1.35 6 0.3 6 2 6 C1.34 4.02 0.68 2.04 0 0 Z " fill="#F9F9F9" transform="translate(171,12)"/>
<path d="M0 0 C1.32 0 2.64 0 4 0 C3.67 7.26 3.34 14.52 3 22 C-0.63 22 -4.26 22 -8 22 C-8.06058594 21.16855469 -8.12117187 20.33710937 -8.18359375 19.48046875 C-8.26738281 18.39378906 -8.35117188 17.30710937 -8.4375 16.1875 C-8.51871094 15.10855469 -8.59992188 14.02960937 -8.68359375 12.91796875 C-8.90212461 9.94010095 -8.90212461 9.94010095 -10 7 C-9.34 7 -8.68 7 -8 7 C-8 6.01 -8 5.02 -8 4 C-7.01 4 -6.02 4 -5 4 C-5 4.99 -5 5.98 -5 7 C-3.35 7 -1.7 7 0 7 C0 4.69 0 2.38 0 0 Z " fill="#DCDCDC" transform="translate(219,36)"/>
<path d="M0 0 C0.99 0 1.98 0 3 0 C3.33 0.66 3.66 1.32 4 2 C5.32 1.67 6.64 1.34 8 1 C8 7.93 8 14.86 8 22 C5.36 22 2.72 22 0 22 C-2 20 -2 20 -2.16015625 16.375 C-2.1375332 14.91647885 -2.10456029 13.45809008 -2.0625 12 C-1.70145872 6.84898542 -1.70145872 6.84898542 -3 2 C-2.01 2 -1.02 2 0 2 C0 1.34 0 0.68 0 0 Z " fill="#E9E9E9" transform="translate(175,67)"/>
<path d="M0 0 C0.33 0 0.66 0 1 0 C1 33.66 1 67.32 1 102 C0.01 102 -0.98 102 -2 102 C-2.0252689 95.18238106 -2.04283244 88.36477411 -2.05493164 81.54711914 C-2.05997333 79.22582549 -2.06680651 76.90453503 -2.07543945 74.58325195 C-2.08751225 71.25471205 -2.09322979 67.92621398 -2.09765625 64.59765625 C-2.10281754 63.55287613 -2.10797882 62.50809601 -2.11329651 61.43165588 C-2.11337204 60.47073532 -2.11344757 59.50981476 -2.11352539 58.51977539 C-2.115746 57.66928116 -2.11796661 56.81878693 -2.12025452 55.94252014 C-2 54 -2 54 -1 53 C-0.87709282 51.34355634 -0.82216092 49.68201007 -0.79467773 48.02124023 C-0.77473251 46.96021591 -0.75478729 45.89919159 -0.73423767 44.80601501 C-0.71752518 43.651866 -0.70081268 42.49771698 -0.68359375 41.30859375 C-0.66281265 40.13361832 -0.64203156 38.95864288 -0.62062073 37.74806213 C-0.55499876 33.97793676 -0.4961817 30.20773918 -0.4375 26.4375 C-0.3943268 23.88866427 -0.35071292 21.33983597 -0.30664062 18.79101562 C-0.19930455 12.52742108 -0.0975621 6.26375399 0 0 Z " fill="#FCF4E0" transform="translate(78,58)"/>
<path d="M0 0 C5.10784263 4.68218908 7.99860963 9.7471034 11 16 C12.98 16 14.96 16 17 16 C17 16.66 17 17.32 17 18 C15.68 18 14.36 18 13 18 C13 18.99 13 19.98 13 21 C12.01 21 11.02 21 10 21 C10.33 21.99 10.66 22.98 11 24 C8.09399739 25.25664978 6.20395416 26 3 26 C2.67 24.35 2.34 22.7 2 21 C1.34 21 0.68 21 0 21 C0 21.99 0 22.98 0 24 C-0.66 24 -1.32 24 -2 24 C-2 20.7 -2 17.4 -2 14 C-0.02 13.01 1.96 12.02 4 11 C3.34 10.113125 2.68 9.22625 2 8.3125 C0.01139933 5.01888014 -0.43735074 3.71748127 0 0 Z " fill="#B2B2B2" transform="translate(38,32)"/>
<path d="M0 0 C0.66 0 1.32 0 2 0 C2.61875 1.5778125 2.61875 1.5778125 3.25 3.1875 C4.69220829 6.59635596 6.63565426 9.14647928 9 12 C9 12.66 9 13.32 9 14 C7.68 14 6.36 14 5 14 C5.7425 15.175625 5.7425 15.175625 6.5 16.375 C8 19 8 19 8 21 C6.35 21 4.7 21 3 21 C3.66 21.61875 4.32 22.2375 5 22.875 C7 25 7 25 7 27 C3.84844863 27.05433709 1.89974057 27.07571021 -1 26 C-4.31377046 22.51291518 -7 18.89288795 -7 14 C-6.34 14 -5.68 14 -5 14 C-5 14.66 -5 15.32 -5 16 C-4.34 16 -3.68 16 -3 16 C-3.33 15.01 -3.66 14.02 -4 13 C-4 12.01 -4 11.02 -4 10 C-3.01 10 -2.02 10 -1 10 C-0.67 6.7 -0.34 3.4 0 0 Z " fill="#454445" transform="translate(53,14)"/>
<path d="M0 0 C2.97 0 5.94 0 9 0 C9.05379226 2.95857409 9.09357093 5.91617721 9.125 8.875 C9.14175781 9.71675781 9.15851563 10.55851562 9.17578125 11.42578125 C9.18222656 12.23144531 9.18867188 13.03710938 9.1953125 13.8671875 C9.20578613 14.61081543 9.21625977 15.35444336 9.22705078 16.12060547 C9 18 9 18 7 20 C1.66666667 20.33333333 1.66666667 20.33333333 -1 19 C-1 18.34 -1 17.68 -1 17 C1.64 17 4.28 17 7 17 C7 16.01 7 15.02 7 14 C6.071875 14.20625 5.14375 14.4125 4.1875 14.625 C1 15 1 15 -2 13 C-2.36328125 10.9765625 -2.36328125 10.9765625 -2.3125 8.625 C-2.30863281 7.85414062 -2.30476562 7.08328125 -2.30078125 6.2890625 C-2 4 -2 4 0 0 Z " fill="#484848" transform="translate(252,74)"/>
<path d="M0 0 C1.60294922 0.01353516 1.60294922 0.01353516 3.23828125 0.02734375 C4.04652344 0.03894531 4.85476562 0.05054688 5.6875 0.0625 C6.75473961 3.52472615 6.78923486 6.70289266 6.75 10.3125 C6.74097656 11.39015625 6.73195312 12.4678125 6.72265625 13.578125 C6.71105469 14.39796875 6.69945312 15.2178125 6.6875 16.0625 C5.6975 16.0625 4.7075 16.0625 3.6875 16.0625 C3.6875 12.1025 3.6875 8.1425 3.6875 4.0625 C2.0375 4.0625 0.3875 4.0625 -1.3125 4.0625 C-1.3125 8.0225 -1.3125 11.9825 -1.3125 16.0625 C-1.9725 16.0625 -2.6325 16.0625 -3.3125 16.0625 C-3.3125 12.1025 -3.3125 8.1425 -3.3125 4.0625 C-4.6325 4.0625 -5.9525 4.0625 -7.3125 4.0625 C-7.3125 8.0225 -7.3125 11.9825 -7.3125 16.0625 C-8.6325 16.0625 -9.9525 16.0625 -11.3125 16.0625 C-11.3125 11.1125 -11.3125 6.1625 -11.3125 1.0625 C-7.25072627 0.25014525 -4.07899908 -0.04482417 0 0 Z " fill="#797979" transform="translate(217.3125,10.9375)"/>
<path d="M0 0 C0.66 0 1.32 0 2 0 C2 6.93 2 13.86 2 21 C-6 21 -6 21 -9 19 C-9.36328125 16.46875 -9.36328125 16.46875 -9.3125 13.5 C-9.30863281 12.5203125 -9.30476562 11.540625 -9.30078125 10.53125 C-9 8 -9 8 -7 6 C-3.375 5.875 -3.375 5.875 0 6 C0 4.02 0 2.04 0 0 Z " fill="#7E7E7E" transform="translate(142,68)"/>
<path d="M0 0 C3.63 0 7.26 0 11 0 C11 0.66 11 1.32 11 2 C11.66 2 12.32 2 13 2 C13 4.31 13 6.62 13 9 C12.34 9 11.68 9 11 9 C10.67 9.66 10.34 10.32 10 11 C7.36 11 4.72 11 2 11 C2 13.64 2 16.28 2 19 C4.64 19 7.28 19 10 19 C10 19.33 10 19.66 10 20 C6.7 20 3.4 20 0 20 C0 13.4 0 6.8 0 0 Z " fill="#5D5D5D" transform="translate(106,6)"/>
<path d="M0 0 C3.5 0.25 3.5 0.25 5.5 2.25 C5.73046875 4.78125 5.73046875 4.78125 5.6875 7.75 C5.67783203 9.21953125 5.67783203 9.21953125 5.66796875 10.71875 C5.5 13.25 5.5 13.25 4.5 15.25 C1.53 15.25 -1.44 15.25 -4.5 15.25 C-5.80089831 12.64820337 -5.66840078 10.6530812 -5.6875 7.75 C-5.70167969 6.7703125 -5.71585938 5.790625 -5.73046875 4.78125 C-5.35022324 0.60499425 -4.05558135 0.28968438 0 0 Z " fill="#626262" transform="translate(230.5,42.75)"/>
<path d="M0 0 C0.66 0.99 1.32 1.98 2 3 C2.66 2.67 3.32 2.34 4 2 C4 7.28 4 12.56 4 18 C4.33 17.67 4.66 17.34 5 17 C5.66 17 6.32 17 7 17 C6.34 12.71 5.68 8.42 5 4 C5.66 3.67 6.32 3.34 7 3 C7.33 2.34 7.66 1.68 8 1 C8.66 1.33 9.32 1.66 10 2 C10.33 1.34 10.66 0.68 11 0 C12.32 2.31 13.64 4.62 15 7 C12.35261084 8.4606285 11.10551666 9 8 9 C8 12.3 8 15.6 8 19 C8.99 19.33 9.98 19.66 11 20 C11 20.66 11 21.32 11 22 C7.37 22 3.74 22 0 22 C0 21.01 0 20.02 0 19 C0.66 19 1.32 19 2 19 C2 15.7 2 12.4 2 9 C-0.31 8.67 -2.62 8.34 -5 8 C-5 7.34 -5 6.68 -5 6 C-4.34 6 -3.68 6 -3 6 C-2.690625 5.38125 -2.38125 4.7625 -2.0625 4.125 C-1.375 2.75 -0.6875 1.375 0 0 Z " fill="#464445" transform="translate(28,37)"/>
<path d="M0 0 C1.32 0 2.64 0 4 0 C4 2.31 4 4.62 4 7 C5.98 7 7.96 7 10 7 C11.44207941 9.88415883 11.09394887 12.41721528 11.0625 15.625 C11.05347656 16.81351563 11.04445312 18.00203125 11.03515625 19.2265625 C11.02355469 20.14179687 11.01195312 21.05703125 11 22 C10.01 22 9.02 22 8 22 C8 17.71 8 13.42 8 9 C6.68 9 5.36 9 4 9 C4 13.29 4 17.58 4 22 C2.68 22 1.36 22 0 22 C0 14.74 0 7.48 0 0 Z " fill="#5E5E5E" transform="translate(201,67)"/>
<path d="M0 0 C0.33 0 0.66 0 1 0 C1 6.93 1 13.86 1 21 C-1.31 21 -3.62 21 -6 21 C-7 20 -7 20 -7.09765625 17.27734375 C-7.08605469 16.17519531 -7.07445312 15.07304688 -7.0625 13.9375 C-7.05347656 12.83277344 -7.04445312 11.72804688 -7.03515625 10.58984375 C-7.02355469 9.73519531 -7.01195312 8.88054687 -7 8 C-7.66 8 -8.32 8 -9 8 C-9 7.34 -9 6.68 -9 6 C-8.34 6 -7.68 6 -7 6 C-7 5.01 -7 4.02 -7 3 C-6.01 3 -5.02 3 -4 3 C-4 3.99 -4 4.98 -4 6 C-2.68 6 -1.36 6 0 6 C0 4.02 0 2.04 0 0 Z " fill="#DFDFDF" transform="translate(223,68)"/>
<path d="M0 0 C1.32 0 2.64 0 4 0 C4 5.28 4 10.56 4 16 C-2.8359375 16.1953125 -2.8359375 16.1953125 -5 16 C-7 14 -7 14 -7.1953125 10.9609375 C-7.17210938 9.77757813 -7.14890625 8.59421875 -7.125 7.375 C-7.10695313 6.18648438 -7.08890625 4.99796875 -7.0703125 3.7734375 C-7.04710938 2.85820313 -7.02390625 1.94296875 -7 1 C-5.68 1 -4.36 1 -3 1 C-3 4.96 -3 8.92 -3 13 C-2.01 13 -1.02 13 0 13 C0 8.71 0 4.42 0 0 Z " fill="#7A7A7A" transform="translate(112,73)"/>
<path d="M0 0 C3.375 -0.125 3.375 -0.125 7 0 C9 2 9 2 9.1953125 5.0390625 C9.17210937 6.22242188 9.14890625 7.40578125 9.125 8.625 C9.10695312 9.81351563 9.08890625 11.00203125 9.0703125 12.2265625 C9.04710937 13.14179687 9.02390625 14.05703125 9 15 C7.54207116 15.05399736 6.08357288 15.09279177 4.625 15.125 C3.81289062 15.14820313 3.00078125 15.17140625 2.1640625 15.1953125 C0 15 0 15 -2 13 C-2.25 10.5 -2.25 10.5 -2 8 C0 6 0 6 3.125 5.875 C4.07375 5.91625 5.0225 5.9575 6 6 C6 4.68 6 3.36 6 2 C4.02 2.66 2.04 3.32 0 4 C0 2.68 0 1.36 0 0 Z " fill="#585858" transform="translate(198,43)"/>
<path d="M0 0 C0.66 0.99 1.32 1.98 2 3 C2.33 2.01 2.66 1.02 3 0 C5.97 0 8.94 0 12 0 C12 0.99 12 1.98 12 3 C10.68 3.33 9.36 3.66 8 4 C7.67 7.63 7.34 11.26 7 15 C5.68 15 4.36 15 3 15 C2.01 17.475 2.01 17.475 1 20 C0.01 19.67 -0.98 19.34 -2 19 C-1.34 19 -0.68 19 0 19 C0 12.73 0 6.46 0 0 Z " fill="#D0D0D0" transform="translate(183,43)"/>
<path d="M0 0 C1.65 0 3.3 0 5 0 C6.1875 2.125 6.1875 2.125 7 5 C5.625 8.3125 5.625 8.3125 4 11 C3.34 11 2.68 11 2 11 C1.773125 11.886875 1.54625 12.77375 1.3125 13.6875 C-0.20085431 17.50691803 -1.77869701 19.46897622 -5 22 C-7.3125 21.8125 -7.3125 21.8125 -9 21 C-7.625 19.5 -7.625 19.5 -6 18 C-5.34 18 -4.68 18 -4 18 C-3.67 16.35 -3.34 14.7 -3 13 C-2.34 13 -1.68 13 -1 13 C-1 12.34 -1 11.68 -1 11 C-0.34 11 0.32 11 1 11 C1.12375 10.236875 1.2475 9.47375 1.375 8.6875 C2 6 2 6 4 3 C2.68 3.33 1.36 3.66 0 4 C-0.0825 4.886875 -0.165 5.77375 -0.25 6.6875 C-1.10771144 10.47572551 -2.39664817 12.16694065 -5 15 C-5.804375 15.8971875 -5.804375 15.8971875 -6.625 16.8125 C-8 18 -8 18 -10 18 C-8.87548273 15.0280615 -7.77706209 12.66559313 -6 10 C-5.34 10 -4.68 10 -4 10 C-3.71125 9.0925 -3.4225 8.185 -3.125 7.25 C-2.23468224 4.67797092 -1.28505587 2.38653234 0 0 Z " fill="#2E2C2D" transform="translate(21,27)"/>
<path d="M0 0 C6.4 -0.49230769 6.4 -0.49230769 9.4375 2 C10.2109375 2.99 10.2109375 2.99 11 4 C8.88974828 12.99001547 8.88974828 12.99001547 5.6875 16.625 C2.55439096 18.22798602 0.47385562 18.32314936 -3 18 C-3 16.68 -3 15.36 -3 14 C-3.66 14 -4.32 14 -5 14 C-5 11.36 -5 8.72 -5 6 C-4.67 6 -4.34 6 -4 6 C-4 8.31 -4 10.62 -4 13 C-1.36 12.34 1.28 11.68 4 11 C4.33 8.69 4.66 6.38 5 4 C4.360625 3.896875 3.72125 3.79375 3.0625 3.6875 C2.381875 3.460625 1.70125 3.23375 1 3 C0.67 2.01 0.34 1.02 0 0 Z " fill="#565556" transform="translate(42,7)"/>
<path d="M0 0 C7.71484375 -0.09765625 7.71484375 -0.09765625 10 0 C11 1 11 1 11.09765625 4.16015625 C11.08605469 5.44792969 11.07445312 6.73570313 11.0625 8.0625 C11.05347656 9.35285156 11.04445312 10.64320312 11.03515625 11.97265625 C11.02355469 12.97167969 11.01195312 13.97070312 11 15 C10.01 15 9.02 15 8 15 C8 11.04 8 7.08 8 3 C6.68 3 5.36 3 4 3 C4 6.96 4 10.92 4 15 C2.68 15 1.36 15 0 15 C0 10.05 0 5.1 0 0 Z " fill="#919191" transform="translate(239,43)"/>
<path d="M0 0 C1.32 0 2.64 0 4 0 C3.814375 0.804375 3.62875 1.60875 3.4375 2.4375 C3.2209375 3.7059375 3.2209375 3.7059375 3 5 C3.33 5.33 3.66 5.66 4 6 C4.07319621 8.69654854 4.09242537 11.36691458 4.0625 14.0625 C4.05798828 14.82111328 4.05347656 15.57972656 4.04882812 16.36132812 C4.0370068 18.24091871 4.01907078 20.12046899 4 22 C2.68 22 1.36 22 0 22 C-0.33 17.38 -0.66 12.76 -1 8 C-1.33 12.62 -1.66 17.24 -2 22 C-2.33 22 -2.66 22 -3 22 C-3 15.07 -3 8.14 -3 1 C-2.01 1.495 -2.01 1.495 -1 2 C-0.67 1.34 -0.34 0.68 0 0 Z " fill="#C5C5C5" transform="translate(166,36)"/>
<path d="M0 0 C2.64 0 5.28 0 8 0 C9.35439668 2.70879335 9.06501451 5.00933268 9 8 C6.36 8 3.72 8 1 8 C1.33 8.99 1.66 9.98 2 11 C4.31 11 6.62 11 9 11 C8.34 12.32 7.68 13.64 7 15 C1.25 15.125 1.25 15.125 -1 14 C-1.02705729 12.22925083 -1.04642195 10.45838289 -1.0625 8.6875 C-1.07410156 7.70136719 -1.08570313 6.71523437 -1.09765625 5.69921875 C-1 3 -1 3 0 0 Z " fill="#404040" transform="translate(266,74)"/>
<path d="M0 0 C1.65 0 3.3 0 5 0 C5 7.26 5 14.52 5 22 C4.01 22 3.02 22 2 22 C1.67 17.05 1.34 12.1 1 7 C0.566875 9.4440625 0.566875 9.4440625 0.125 11.9375 C-0.3671875 14.71484375 -0.3671875 14.71484375 -1 17 C-1.66 17.33 -2.32 17.66 -3 18 C-3.99 17.34 -4.98 16.68 -6 16 C-5.01 15.67 -4.02 15.34 -3 15 C-3.061875 14.195625 -3.12375 13.39125 -3.1875 12.5625 C-2.94860593 8.02351267 -1.57956736 4.23098399 0 0 Z " fill="#5C5C5C" transform="translate(158,36)"/>
<path d="M0 0 C0.99 0 1.98 0 3 0 C2.67 16.83 2.34 33.66 2 51 C1.34 51 0.68 51 0 51 C0 34.17 0 17.34 0 0 Z " fill="#FCF6B5" transform="translate(88,109)"/>
<path d="M0 0 C1.9375 0.375 1.9375 0.375 4 1 C5.35439668 3.70879335 5.06501451 6.00933268 5 9 C2.36 9 -0.28 9 -3 9 C-3 10.32 -3 11.64 -3 13 C-1.35 13 0.3 13 2 13 C2 12.34 2 11.68 2 11 C2.99 11 3.98 11 5 11 C3.125 14.875 3.125 14.875 2 16 C-0.375 16.3125 -0.375 16.3125 -3 16 C-4.8125 14.5625 -4.8125 14.5625 -6 12 C-6.36875442 8.22529563 -6.72275845 4.44551689 -5 1 C-3.02 1.495 -3.02 1.495 -1 2 C-1.66 3.32 -2.32 4.64 -3 6 C-1.35 6 0.3 6 2 6 C1.34 4.02 0.68 2.04 0 0 Z " fill="#494949" transform="translate(171,12)"/>
<path d="M0 0 C1.98 0 3.96 0 6 0 C6 0.99 6 1.98 6 3 C5.01 3 4.02 3 3 3 C2.67 4.65 2.34 6.3 2 8 C2.99 8 3.98 8 5 8 C3.125 12.75 3.125 12.75 2 15 C-1.37462715 14.45276317 -3.08235 13.9451 -6 12 C-6.1875 8.375 -6.1875 8.375 -6 5 C-4.35 5 -2.7 5 -1 5 C-0.67 3.35 -0.34 1.7 0 0 Z " fill="#EAEAEA" transform="translate(26,5)"/>
<path d="M0 0 C7.71484375 -0.09765625 7.71484375 -0.09765625 10 0 C11 1 11 1 11.09765625 4.16015625 C11.08605469 5.44792969 11.07445312 6.73570313 11.0625 8.0625 C11.05347656 9.35285156 11.04445312 10.64320312 11.03515625 11.97265625 C11.02355469 12.97167969 11.01195312 13.97070312 11 15 C10.01 15 9.02 15 8 15 C8 10.71 8 6.42 8 2 C6.68 2 5.36 2 4 2 C3.67 6.29 3.34 10.58 3 15 C2.01 15 1.02 15 0 15 C0 10.05 0 5.1 0 0 Z " fill="#565656" transform="translate(119,74)"/>
<path d="M0 0 C3.3 0 6.6 0 10 0 C11.44207941 2.88415883 11.09394887 5.41721528 11.0625 8.625 C11.05347656 9.81351563 11.04445312 11.00203125 11.03515625 12.2265625 C11.02355469 13.14179687 11.01195312 14.05703125 11 15 C10.01 15 9.02 15 8 15 C8 10.71 8 6.42 8 2 C6.35 2 4.7 2 3 2 C3 6.29 3 10.58 3 15 C2.01 15 1.02 15 0 15 C0 10.05 0 5.1 0 0 Z " fill="#3E3E3E" transform="translate(236,74)"/>
<path d="M0 0 C0.66 0 1.32 0 2 0 C2 4.29 2 8.58 2 13 C3.32 13 4.64 13 6 13 C6 8.71 6 4.42 6 0 C7.32 0 8.64 0 10 0 C10 4.95 10 9.9 10 15 C6.7 15 3.4 15 0 15 C0 10.05 0 5.1 0 0 Z " fill="#525252" transform="translate(114,43)"/>
<path d="M0 0 C0.99 0 1.98 0 3 0 C3 6.27 3 12.54 3 19 C2.01 18.67 1.02 18.34 0 18 C0.33 14.7 0.66 11.4 1 8 C-0.65 8 -2.3 8 -4 8 C-3.67 11.63 -3.34 15.26 -3 19 C-3.99 19 -4.98 19 -6 19 C-7.16983345 16.6603331 -7.1661241 15.16608473 -7.1875 12.5625 C-7.20167969 11.78003906 -7.21585938 10.99757813 -7.23046875 10.19140625 C-7 8 -7 8 -5 5 C-2.375 4.8125 -2.375 4.8125 0 5 C0 3.35 0 1.7 0 0 Z " fill="#484848" transform="translate(158,7)"/>
<path d="M0 0 C2.64 0 5.28 0 8 0 C8 0.33 8 0.66 8 1 C6.02 1.33 4.04 1.66 2 2 C2 2.66 2 3.32 2 4 C3.65 4.33 5.3 4.66 7 5 C6.65544802 8.10096781 6.15182706 9.79937138 4.25 12.3125 C1.58761061 14.30929204 0.25047681 14.36116409 -3 14 C-3.05447047 12.58376784 -3.09300508 11.16691809 -3.125 9.75 C-3.14820313 8.96109375 -3.17140625 8.1721875 -3.1953125 7.359375 C-2.9828378 4.79268059 -2.28654105 3.2083933 -1 1 C-0.67 1.66 -0.34 2.32 0 3 C0 2.01 0 1.02 0 0 Z " fill="#DBDBDB" transform="translate(41,6)"/>
<path d="M0 0 C-0.33 1.98 -0.66 3.96 -1 6 C-0.34 6 0.32 6 1 6 C1 6.66 1 7.32 1 8 C0.34 8 -0.32 8 -1 8 C-1 12.29 -1 16.58 -1 21 C-2.32 21 -3.64 21 -5 21 C-5.19585135 18.60458732 -5.38192107 16.20907226 -5.5625 13.8125 C-5.61857422 13.13896484 -5.67464844 12.46542969 -5.73242188 11.77148438 C-6.00778807 8.00814637 -6.13970152 4.62384135 -5 1 C-3 0 -3 0 0 0 Z " fill="#4B4B4B" transform="translate(110,37)"/>
<path d="M0 0 C0.99 0 1.98 0 3 0 C3 1.32 3 2.64 3 4 C3.99 4 4.98 4 6 4 C6 4.99 6 5.98 6 7 C5.01 7 4.02 7 3 7 C3 10.3 3 13.6 3 17 C3.66 17 4.32 17 5 17 C5 17.66 5 18.32 5 19 C3.33388095 19.042721 1.66617115 19.04063832 0 19 C-1.92298626 17.07701374 -1.48344145 13.76075784 -1.6875 11.1875 C-1.79449219 9.94355469 -1.90148437 8.69960938 -2.01171875 7.41796875 C-2.00056481 4.16473608 -1.75394374 2.6678761 0 0 Z " fill="#444444" transform="translate(228,8)"/>
<path d="M0 0 C2.05078125 0.03255208 4.1015625 0.06510417 6.15234375 0.09765625 C6.48234375 1.74765625 6.81234375 3.39765625 7.15234375 5.09765625 C6.16234375 5.09765625 5.17234375 5.09765625 4.15234375 5.09765625 C4.15234375 4.10765625 4.15234375 3.11765625 4.15234375 2.09765625 C2.83234375 2.09765625 1.51234375 2.09765625 0.15234375 2.09765625 C0.15234375 5.39765625 0.15234375 8.69765625 0.15234375 12.09765625 C1.14234375 12.09765625 2.13234375 12.09765625 3.15234375 12.09765625 C3.15234375 11.43765625 3.15234375 10.77765625 3.15234375 10.09765625 C4.47234375 10.09765625 5.79234375 10.09765625 7.15234375 10.09765625 C7.15234375 11.08765625 7.15234375 12.07765625 7.15234375 13.09765625 C6.49234375 13.09765625 5.83234375 13.09765625 5.15234375 13.09765625 C5.15234375 13.75765625 5.15234375 14.41765625 5.15234375 15.09765625 C-0.59765625 15.22265625 -0.59765625 15.22265625 -2.84765625 14.09765625 C-2.87451563 11.95188988 -2.89398713 9.8060298 -2.91015625 7.66015625 C-2.92175781 6.46519531 -2.93335938 5.27023438 -2.9453125 4.0390625 C-2.81615523 0.14884541 -2.81615523 0.14884541 0 0 Z " fill="#373737" transform="translate(190.84765625,73.90234375)"/>
<path d="M0 0 C0.99 0 1.98 0 3 0 C3 6.93 3 13.86 3 21 C-0.96 21.495 -0.96 21.495 -5 22 C-5.66 21.34 -6.32 20.68 -7 20 C-6.34 19.67 -5.68 19.34 -5 19 C-5 15.7 -5 12.4 -5 9 C-3.35 9 -1.7 9 0 9 C0 12.3 0 15.6 0 19 C0.66 19.33 1.32 19.66 2 20 C2 13.73 2 7.46 2 1 C1.34 0.67 0.68 0.34 0 0 Z " fill="#838383" transform="translate(159,6)"/>
<path d="M0 0 C0.1875 2.875 0.1875 2.875 0 6 C-4.1795645 8.78637633 -6.14668677 7.79562512 -11 7 C-11 4.36 -11 1.72 -11 -1 C-3.57142857 -2.42857143 -3.57142857 -2.42857143 0 0 Z " fill="#595959" transform="translate(119,18)"/>
<path d="M0 0 C0.99 0 1.98 0 3 0 C3 3.96 3 7.92 3 12 C4.65 12 6.3 12 8 12 C8 8.04 8 4.08 8 0 C8.66 0 9.32 0 10 0 C10 4.95 10 9.9 10 15 C3.9453125 15.1953125 3.9453125 15.1953125 2 15 C0 13 0 13 -0.1953125 9.9609375 C-0.17210937 8.77757813 -0.14890625 7.59421875 -0.125 6.375 C-0.10695312 5.18648438 -0.08890625 3.99796875 -0.0703125 2.7734375 C-0.04710937 1.85820313 -0.02390625 0.94296875 0 0 Z " fill="#363636" transform="translate(173,74)"/>
<path d="M0 0 C3.63 0 7.26 0 11 0 C10.67 1.32 10.34 2.64 10 4 C9.67 4 9.34 4 9 4 C9 4.99 9 5.98 9 7 C8.34 7 7.68 7 7 7 C6.896875 7.639375 6.79375 8.27875 6.6875 8.9375 C6.460625 9.618125 6.23375 10.29875 6 11 C5.01 11.33 4.02 11.66 3 12 C3 11.34 3 10.68 3 10 C2.01 10 1.02 10 0 10 C0 8.35 0 6.7 0 5 C1.32 4.34 2.64 3.68 4 3 C2.68 2.67 1.36 2.34 0 2 C-0.33 2.66 -0.66 3.32 -1 4 C-0.67 2.68 -0.34 1.36 0 0 Z " fill="#555555" transform="translate(28,3)"/>
<path d="M0 0 C2.33944736 0.28730055 4.6739143 0.61936779 7 1 C7 5.62 7 10.24 7 15 C5.68 14.67 4.36 14.34 3 14 C3.66 14 4.32 14 5 14 C5 12.35 5 10.7 5 9 C3.68 9.33 2.36 9.66 1 10 C1 11.65 1 13.3 1 15 C0.01 15 -0.98 15 -2 15 C-2.125 12.125 -2.125 12.125 -2 9 C0 7 0 7 2.625 6.875 C3.40875 6.91625 4.1925 6.9575 5 7 C5 6.01 5 5.02 5 4 C2.69 4.33 0.38 4.66 -2 5 C-1.125 1.125 -1.125 1.125 0 0 Z " fill="#313131" transform="translate(195,11)"/>
<path d="M0 0 C1 1 1 1 1.09765625 3.94140625 C1.08605469 5.13636719 1.07445312 6.33132812 1.0625 7.5625 C1.05347656 8.76003906 1.04445312 9.95757812 1.03515625 11.19140625 C1.02355469 12.11824219 1.01195312 13.04507812 1 14 C0.34 14 -0.32 14 -1 14 C-1 10.37 -1 6.74 -1 3 C-2.65 3 -4.3 3 -6 3 C-6 6.96 -6 10.92 -6 15 C-6.99 15 -7.98 15 -9 15 C-9 10.38 -9 5.76 -9 1 C-5.68024318 0.1700608 -3.35107416 -0.18113914 0 0 Z " fill="#5A5A5A" transform="translate(146,12)"/>
<path d="M0 0 C1.32 0.33 2.64 0.66 4 1 C4 5.62 4 10.24 4 15 C0.7 15 -2.6 15 -6 15 C-6 10.38 -6 5.76 -6 1 C-5.67 1 -5.34 1 -5 1 C-5 4.96 -5 8.92 -5 13 C-3.35 13 -1.7 13 0 13 C0 8.71 0 4.42 0 0 Z " fill="#515151" transform="translate(130,12)"/>
<path d="M0 0 C0.33 0.99 0.66 1.98 1 3 C-1.97 2.505 -1.97 2.505 -5 2 C-5 2.99 -5 3.98 -5 5 C-4.38125 5.103125 -3.7625 5.20625 -3.125 5.3125 C-1 6 -1 6 1 9 C0.48275862 12.51724138 0.48275862 12.51724138 -1 14 C-3.33297433 14.04092937 -5.66705225 14.04241723 -8 14 C-8 12.68 -8 11.36 -8 10 C-6.02 10.66 -4.04 11.32 -2 12 C-2 10.68 -2 9.36 -2 8 C-2.804375 7.855625 -3.60875 7.71125 -4.4375 7.5625 C-7 7 -7 7 -8 6 C-8.04080783 4.00041636 -8.04254356 1.99954746 -8 0 C-4.71023192 -1.09658936 -3.28696233 -0.79953138 0 0 Z " fill="#393939" transform="translate(188,13)"/>
<path d="M0 0 C0.66 0 1.32 0 2 0 C2.19291859 4.75014369 2.371533 9.50053348 2.53710938 14.25170898 C2.59538536 15.86676322 2.65751749 17.48168323 2.72363281 19.09643555 C2.81817843 21.42211458 2.8986889 23.74792899 2.9765625 26.07421875 C3.00875885 26.79212082 3.0409552 27.51002289 3.0741272 28.24967957 C3.19487087 32.32196049 2.82783241 35.34121602 1 39 C0.67 39 0.34 39 0 39 C0 26.13 0 13.26 0 0 Z " fill="#F5D101" transform="translate(82,119)"/>
<path d="M0 0 C2.64 0 5.28 0 8 0 C8 1.32 8 2.64 8 4 C6.68 4 5.36 4 4 4 C4 7.63 4 11.26 4 15 C2.68 15 1.36 15 0 15 C0 10.05 0 5.1 0 0 Z " fill="#A8A8A8" transform="translate(127,43)"/>
<path d="M0 0 C1.515625 1.34765625 1.515625 1.34765625 3 3 C2.75 5.4375 2.75 5.4375 2 8 C1.814375 8.763125 1.62875 9.52625 1.4375 10.3125 C1.2209375 11.1478125 1.2209375 11.1478125 1 12 C0.01 12 -0.98 12 -2 12 C-1.484375 12.928125 -0.96875 13.85625 -0.4375 14.8125 C1 18 1 18 0 21 C-0.33 20.01 -0.66 19.02 -1 18 C-1.66 18 -2.32 18 -3 18 C-3 17.01 -3 16.02 -3 15 C-3.598125 15.350625 -4.19625 15.70125 -4.8125 16.0625 C-7 17 -7 17 -10 16 C-10 15.01 -10 14.02 -10 13 C-9.2575 12.71125 -8.515 12.4225 -7.75 12.125 C-6.38875 11.568125 -6.38875 11.568125 -5 11 C-4.29875 10.7421875 -3.5975 10.484375 -2.875 10.21875 C-0.78685532 9.15455301 -0.78685532 9.15455301 -0.390625 6.8359375 C-0.32101563 5.61777344 -0.32101563 5.61777344 -0.25 4.375 C-0.19328125 3.55773437 -0.1365625 2.74046875 -0.078125 1.8984375 C-0.05234375 1.27195312 -0.0265625 0.64546875 0 0 Z " fill="#1B1A1A" transform="translate(51,12)"/>
<path d="M0 0 C0.04125 1.051875 0.0825 2.10375 0.125 3.1875 C1.2775357 8.20926268 3.01217509 8.94549581 7 12 C7 12.99 7 13.98 7 15 C5.68 15 4.36 15 3 15 C3 14.34 3 13.68 3 13 C2.21625 12.87625 1.4325 12.7525 0.625 12.625 C-2 12 -2 12 -4 10 C-4.30078125 8.125 -4.30078125 8.125 -4.3125 6 C-4.32925781 5.29875 -4.34601562 4.5975 -4.36328125 3.875 C-4.24339844 3.25625 -4.12351562 2.6375 -4 2 C-1 0 -1 0 0 0 Z " fill="#686868" transform="translate(20,10)"/>
<path d="M0 0 C0.33 0 0.66 0 1 0 C1 4.29 1 8.58 1 13 C-1.66666667 13 -4.33333333 13 -7 13 C-7 9.04 -7 5.08 -7 1 C-5.35 1 -3.7 1 -2 1 C-2 4.63 -2 8.26 -2 12 C-1.34 12 -0.68 12 0 12 C0 8.04 0 4.08 0 0 Z " fill="#D9D9D9" transform="translate(147,14)"/>
<path d="M0 0 C0.66 0 1.32 0 2 0 C2 6.93 2 13.86 2 21 C-0.64 21 -3.28 21 -6 21 C-8 19 -8 19 -8.1953125 17.0546875 C-8.13020833 15.03645833 -8.06510417 13.01822917 -8 11 C-7.67 11 -7.34 11 -7 11 C-7 12.98 -7 14.96 -7 17 C-4.69 17.33 -2.38 17.66 0 18 C0 12.06 0 6.12 0 0 Z " fill="#343434" transform="translate(142,68)"/>
<path d="M0 0 C3.3 0 6.6 0 10 0 C10 0.66 10 1.32 10 2 C7.36 2 4.72 2 2 2 C2 4.31 2 6.62 2 9 C4.31 9 6.62 9 9 9 C9 9.66 9 10.32 9 11 C6.69 11 4.38 11 2 11 C2 13.97 2 16.94 2 20 C1.34 20 0.68 20 0 20 C0 13.4 0 6.8 0 0 Z " fill="#2D2D2D" transform="translate(155,68)"/>
<path d="M0 0 C1.32 0 2.64 0 4 0 C3.67 7.26 3.34 14.52 3 22 C2.01 22 1.02 22 0 22 C0 14.74 0 7.48 0 0 Z " fill="#787878" transform="translate(219,36)"/>
<path d="M0 0 C4.03562998 3.69932748 6.41389616 7.17260616 9 12 C9.99477045 13.66979326 10.99260254 15.33779419 12 17 C7.75776898 17.3636198 5.41831915 16.5393228 2 14 C2 13.34 2 12.68 2 12 C2.66 11.67 3.32 11.34 4 11 C3.34 10.113125 2.68 9.22625 2 8.3125 C0.01139933 5.01888014 -0.43735074 3.71748127 0 0 Z " fill="#CFCDCE" transform="translate(38,32)"/>
<path d="M0 0 C0.99 0 1.98 0 3 0 C3 0.99 3 1.98 3 3 C3.99 3 4.98 3 6 3 C6 3.66 6 4.32 6 5 C5.01 5 4.02 5 3 5 C3.14148989 6.6045556 3.28835686 8.20863767 3.4375 9.8125 C3.51871094 10.70582031 3.59992188 11.59914063 3.68359375 12.51953125 C3.93489767 15.12743559 3.93489767 15.12743559 5 18 C3.35 17.67 1.7 17.34 0 17 C0 13.04 0 9.08 0 5 C-0.66 5 -1.32 5 -2 5 C-2 4.34 -2 3.68 -2 3 C-1.34 3 -0.68 3 0 3 C0 2.01 0 1.02 0 0 Z " fill="#515151" transform="translate(216,71)"/>
<path d="M0 0 C2.475 0.99 2.475 0.99 5 2 C4.67 2.66 4.34 3.32 4 4 C2.68 4 1.36 4 0 4 C0 5.98 0 7.96 0 10 C-2.31 10 -4.62 10 -7 10 C-7.33 7.36 -7.66 4.72 -8 2 C-5.66666667 2 -3.33333333 2 -1 2 C-0.67 1.34 -0.34 0.68 0 0 Z " fill="#B7B7B7" transform="translate(25,48)"/>
<path d="M0 0 C0.66 0 1.32 0 2 0 C1.52583422 4.97874064 0.0900669 8.06718758 -3 12 C-3.66 12 -4.32 12 -5 12 C-4.67 12.99 -4.34 13.98 -4 15 C-5.25 16.5 -5.25 16.5 -7 18 C-8.32 18 -9.64 18 -11 18 C-10.505 16.515 -10.505 16.515 -10 15 C-9.34 15 -8.68 15 -8 15 C-7.690625 14.05125 -7.38125 13.1025 -7.0625 12.125 C-6 9 -6 9 -5 7 C-4.34 7 -3.68 7 -3 7 C-2.690625 6.030625 -2.38125 5.06125 -2.0625 4.0625 C-1 1 -1 1 0 0 Z " fill="#C8C7C8" transform="translate(28,31)"/>
<path d="M0 0 C2.97 0 5.94 0 9 0 C9 0.33 9 0.66 9 1 C6.69 1 4.38 1 2 1 C2 3.31 2 5.62 2 8 C4.31 8 6.62 8 9 8 C9 8.66 9 9.32 9 10 C6.69 10 4.38 10 2 10 C2 12.64 2 15.28 2 18 C4.64 18 7.28 18 10 18 C10 18.33 10 18.66 10 19 C6.7 19 3.4 19 0 19 C0 12.73 0 6.46 0 0 Z " fill="#171717" transform="translate(106,7)"/>
<path d="M0 0 C-1.32 0.33 -2.64 0.66 -4 1 C-4 5.29 -4 9.58 -4 14 C-5.32 14 -6.64 14 -8 14 C-8.33 9.38 -8.66 4.76 -9 0 C-5.93109813 -1.53445094 -3.29905734 -0.54984289 0 0 Z " fill="#F2F2F2" transform="translate(124,42)"/>
<path d="M0 0 C-0.33 4.29 -0.66 8.58 -1 13 C-1.66 13 -2.32 13 -3 13 C-3 9.04 -3 5.08 -3 1 C-4.65 1 -6.3 1 -8 1 C-8 4.63 -8 8.26 -8 12 C-8.66 12 -9.32 12 -10 12 C-10 7.71 -10 3.42 -10 -1 C-5 -2 -5 -2 0 0 Z " fill="#434343" transform="translate(217,14)"/>
<path d="M0 0 C0.99 0 1.98 0 3 0 C3.9360342 3.79267192 3.98276252 6.93674565 3.5625 10.8125 C3.46066406 11.78832031 3.35882813 12.76414062 3.25390625 13.76953125 C3.12822266 14.87361328 3.12822266 14.87361328 3 16 C3.66 16 4.32 16 5 16 C5 16.66 5 17.32 5 18 C3.35 18 1.7 18 0 18 C-0.06058594 17.16855469 -0.12117187 16.33710937 -0.18359375 15.48046875 C-0.26738281 14.39378906 -0.35117188 13.30710937 -0.4375 12.1875 C-0.51871094 11.10855469 -0.59992188 10.02960937 -0.68359375 8.91796875 C-0.90212461 5.94010095 -0.90212461 5.94010095 -2 3 C-1.34 3 -0.68 3 0 3 C0 2.01 0 1.02 0 0 Z " fill="#343434" transform="translate(211,40)"/>
<path d="M0 0 C1.98 0 3.96 0 6 0 C5.67 16.17 5.34 32.34 5 49 C4.67 49 4.34 49 4 49 C3.67 33.16 3.34 17.32 3 1 C2.01 1.33 1.02 1.66 0 2 C0 1.34 0 0.68 0 0 Z " fill="#181616" transform="translate(81,7)"/>
<path d="M0 0 C1.32 0 2.64 0 4 0 C4 16.5 4 33 4 50 C4.66 50.33 5.32 50.66 6 51 C4.02 51 2.04 51 0 51 C0 50.34 0 49.68 0 49 C0.99 48.505 0.99 48.505 2 48 C2.33 32.49 2.66 16.98 3 1 C2.01 0.67 1.02 0.34 0 0 Z " fill="#ED2326" transform="translate(81,58)"/>
<path d="M0 0 C0.99 0 1.98 0 3 0 C3 6.93 3 13.86 3 21 C2.01 21 1.02 21 0 21 C0 14.07 0 7.14 0 0 Z " fill="#5D5D5D" transform="translate(167,68)"/>
<path d="M0 0 C1.9453125 -0.29296875 1.9453125 -0.29296875 4.125 -0.1875 C5.40375 -0.125625 6.6825 -0.06375 8 0 C8 1.32 8 2.64 8 4 C6.02 4 4.04 4 2 4 C1.67 4.66 1.34 5.32 1 6 C0.67 6 0.34 6 0 6 C-0.33 8.64 -0.66 11.28 -1 14 C-2.32 14 -3.64 14 -5 14 C-5 13.34 -5 12.68 -5 12 C-4.34 12 -3.68 12 -3 12 C-2.95101563 11.38511719 -2.90203125 10.77023438 -2.8515625 10.13671875 C-2.77679688 9.32847656 -2.70203125 8.52023437 -2.625 7.6875 C-2.52058594 6.48673828 -2.52058594 6.48673828 -2.4140625 5.26171875 C-2 3 -2 3 0 0 Z " fill="#454545" transform="translate(17,6)"/>
<path d="M0 0 C0.33 0 0.66 0 1 0 C1 3.63 1 7.26 1 11 C3.64 11.66 6.28 12.32 9 13 C8.67 13.99 8.34 14.98 8 16 C7.01 16 6.02 16 5 16 C5 15.34 5 14.68 5 14 C3.5459375 14.0309375 3.5459375 14.0309375 2.0625 14.0625 C-1 14 -1 14 -2 13 C-2.12487758 11.19072719 -2.17570846 9.37603893 -2.1875 7.5625 C-2.20167969 6.57378906 -2.21585938 5.58507813 -2.23046875 4.56640625 C-2 2 -2 2 0 0 Z " fill="#F0F0F0" transform="translate(172,45)"/>
<path d="M0 0 C1.65 0.33 3.3 0.66 5 1 C5.33 2.32 5.66 3.64 6 5 C5.01 4.67 4.02 4.34 3 4 C0.63425766 7.5486135 0.89134735 8.5764525 1.375 12.6875 C1.48585937 13.68136719 1.59671875 14.67523438 1.7109375 15.69921875 C1.80632813 16.45847656 1.90171875 17.21773437 2 18 C1.34 18 0.68 18 0 18 C0 18.66 0 19.32 0 20 C-0.66 19.67 -1.32 19.34 -2 19 C-2.05428973 16.77110504 -2.09292338 14.54182529 -2.125 12.3125 C-2.15980469 10.45044922 -2.15980469 10.45044922 -2.1953125 8.55078125 C-2.01032021 5.18762143 -1.45767895 3.0014413 0 0 Z " fill="#191818" transform="translate(33,36)"/>
<path d="M0 0 C1.32 0 2.64 0 4 0 C4 0.99 4 1.98 4 3 C4.99 3.33 5.98 3.66 7 4 C7 5.32 7 6.64 7 8 C5.68 8 4.36 8 3 8 C3 8.66 3 9.32 3 10 C2.01 10 1.02 10 0 10 C0 6.7 0 3.4 0 0 Z " fill="#ECECEC" transform="translate(191,76)"/>
<path d="M0 0 C2.68149993 -0.38567131 2.68149993 -0.38567131 5 -1 C5 0.32 5 1.64 5 3 C2.36 2.67 -0.28 2.34 -3 2 C-3.99 3.32 -4.98 4.64 -6 6 C-6.33 5.34 -6.66 4.68 -7 4 C-7.33 6.64 -7.66 9.28 -8 12 C-8.33 12 -8.66 12 -9 12 C-9 8.37 -9 4.74 -9 1 C-3.81651376 -1.0733945 -3.81651376 -1.0733945 0 0 Z " fill="#E0E0E0" transform="translate(199,46)"/>
<path d="M0 0 C0.33 0 0.66 0 1 0 C1 4.29 1 8.58 1 13 C-5.0546875 13.9765625 -5.0546875 13.9765625 -7 14 C-7.66 13.34 -8.32 12.68 -9 12 C-8.34 11.67 -7.68 11.34 -7 11 C-6.34444881 8.47266765 -6.34444881 8.47266765 -6 6 C-4.68 6 -3.36 6 -2 6 C-2 7.65 -2 9.3 -2 11 C-1.34 11.33 -0.68 11.66 0 12 C0 8.04 0 4.08 0 0 Z " fill="#AAAAAA" transform="translate(202,14)"/>
<path d="M0 0 C1.66611905 -0.042721 3.33382885 -0.04063832 5 0 C6 1 6 1 6.09765625 4.16015625 C6.08605469 5.44792969 6.07445312 6.73570313 6.0625 8.0625 C6.05347656 9.35285156 6.04445312 10.64320312 6.03515625 11.97265625 C6.02355469 12.97167969 6.01195312 13.97070312 6 15 C5.01 15 4.02 15 3 15 C3 10.71 3 6.42 3 2 C2.01 2 1.02 2 0 2 C0 1.34 0 0.68 0 0 Z " fill="#414141" transform="translate(244,43)"/>
<path d="M0 0 C2.475 0.495 2.475 0.495 5 1 C5.125 8.75 5.125 8.75 4 11 C2.68 10.67 1.36 10.34 0 10 C0 6.7 0 3.4 0 0 Z " fill="#E8E8E8" transform="translate(228,45)"/>
<path d="M0 0 C0.33 0 0.66 0 1 0 C1 4.29 1 8.58 1 13 C-1.97 13 -4.94 13 -8 13 C-7.34 12.34 -6.68 11.68 -6 11 C-5.83312552 8.41645782 -5.83312552 8.41645782 -6 6 C-4.35 6 -2.7 6 -1 6 C-0.67 4.02 -0.34 2.04 0 0 Z " fill="#676767" transform="translate(206,45)"/>
<path d="M0 0 C2.64983336 0.36549426 3.77833295 0.76128164 5.625 2.75 C7.62096374 6.01612249 8.79365636 9.38096908 10 13 C11.98 13 13.96 13 16 13 C16 13.99 16 14.98 16 16 C15.01 16 14.02 16 13 16 C12.67 16.66 12.34 17.32 12 18 C12 17.34 12 16.68 12 16 C11.34 16 10.68 16 10 16 C10 15.34 10 14.68 10 14 C9.34 14 8.68 14 8 14 C7.59007812 13.24074219 7.18015625 12.48148438 6.7578125 11.69921875 C6.21898437 10.70535156 5.68015625 9.71148437 5.125 8.6875 C4.59132813 7.70136719 4.05765625 6.71523438 3.5078125 5.69921875 C1.99277874 2.90413542 1.99277874 2.90413542 0 0 Z " fill="#A19FA0" transform="translate(41,30)"/>
<path d="M0 0 C0.66 0.99 1.32 1.98 2 3 C2.66 2.67 3.32 2.34 4 2 C4 6.62 4 11.24 4 16 C3.67 16 3.34 16 3 16 C2.67 13.69 2.34 11.38 2 9 C-0.31 8.67 -2.62 8.34 -5 8 C-5 7.34 -5 6.68 -5 6 C-4.34 6 -3.68 6 -3 6 C-2.690625 5.38125 -2.38125 4.7625 -2.0625 4.125 C-1.375 2.75 -0.6875 1.375 0 0 Z " fill="#494848" transform="translate(28,37)"/>
<path d="M0 0 C1.32 0 2.64 0 4 0 C5.60725635 3.21451269 5.05748185 6.43612536 5 10 C3.35 10 1.7 10 0 10 C0 6.7 0 3.4 0 0 Z " fill="#E5E5E5" transform="translate(137,76)"/>
<path d="M0 0 C0.99 0.33 1.98 0.66 3 1 C3 2.65 3 4.3 3 6 C2.34 5.01 1.68 4.02 1 3 C0.67 6.3 0.34 9.6 0 13 C-0.33 12.34 -0.66 11.68 -1 11 C-1.99 11 -2.98 11 -4 11 C-4 11.66 -4 12.32 -4 13 C-5.65 13 -7.3 13 -9 13 C-9 11.68 -9 10.36 -9 9 C-6.36 9 -3.72 9 -1 9 C-1.33 6.69 -1.66 4.38 -2 2 C-1.34 2 -0.68 2 0 2 C0 1.34 0 0.68 0 0 Z " fill="#C6C6C6" transform="translate(177,12)"/>
<path d="M0 0 C1.5625 1.1875 1.5625 1.1875 3 3 C2.6875 5.6875 2.6875 5.6875 2 8 C1.34 8 0.68 8 0 8 C-0.103125 8.5775 -0.20625 9.155 -0.3125 9.75 C-1.09792798 12.32049158 -2.30504197 13.93657284 -4 16 C-4.66 15.34 -5.32 14.68 -6 14 C-5.01 12.6696875 -5.01 12.6696875 -4 11.3125 C-2.01139933 8.01888014 -1.56264926 6.71748127 -2 3 C-1.34 3 -0.68 3 0 3 C0 2.01 0 1.02 0 0 Z " fill="#474747" transform="translate(15,20)"/>
<path d="M0 0 C0.99 0 1.98 0 3 0 C3 4.95 3 9.9 3 15 C2.01 15 1.02 15 0 15 C0 10.05 0 5.1 0 0 Z " fill="#5F5F5F" transform="translate(167,43)"/>
<path d="M0 0 C0 4.95 0 9.9 0 15 C-0.99 15 -1.98 15 -3 15 C-4.38226016 12.23547967 -4.09525387 9.9538637 -4.0625 6.875 C-4.05347656 5.77929688 -4.04445312 4.68359375 -4.03515625 3.5546875 C-4.02355469 2.71164063 -4.01195312 1.86859375 -4 1 C-2 0 -2 0 0 0 Z " fill="#F2F2F2" transform="translate(239,43)"/>
<path d="M0 0 C0.99 0 1.98 0 3 0 C3.33 2.97 3.66 5.94 4 9 C2.68 9.33 1.36 9.66 0 10 C-1 9 -1 9 -1.1328125 7.1875 C-1.13023437 6.465625 -1.12765625 5.74375 -1.125 5 C-1.12757813 4.278125 -1.13015625 3.55625 -1.1328125 2.8125 C-1 1 -1 1 0 0 Z " fill="#DADADA" transform="translate(254,76)"/>
<path d="M0 0 C2.475 0.495 2.475 0.495 5 1 C5 5.29 5 9.58 5 14 C4.01 14 3.02 14 2 14 C2 9.71 2 5.42 2 1 C1.34 0.67 0.68 0.34 0 0 Z " fill="#505050" transform="translate(242,75)"/>
<path d="M0 0 C2.475 0.495 2.475 0.495 5 1 C5 3.31 5 5.62 5 8 C3.0625 8.5625 3.0625 8.5625 1 9 C0 8 0 8 -0.09765625 6.15234375 C-0.06510417 4.1015625 -0.03255208 2.05078125 0 0 Z " fill="#EBEBEB" transform="translate(176,46)"/>
<path d="M0 0 C2.97 0 5.94 0 9 0 C9 5.94 9 11.88 9 18 C8.67 18 8.34 18 8 18 C7.87625 16.7625 7.7525 15.525 7.625 14.25 C7.23435314 11.0801798 6.59573844 8.79254227 5 6 C4.87625 5.29875 4.7525 4.5975 4.625 3.875 C4.41875 3.25625 4.2125 2.6375 4 2 C2.68 1.34 1.36 0.68 0 0 Z " fill="#737373" transform="translate(252,74)"/>
<path d="M0 0 C0.99 0 1.98 0 3 0 C3 6.27 3 12.54 3 19 C2.34 19 1.68 19 1 19 C0.67 12.73 0.34 6.46 0 0 Z " fill="#141414" transform="translate(159,38)"/>
<path d="M0 0 C0 0.99 0 1.98 0 3 C-1.32 3.33 -2.64 3.66 -4 4 C-4.33 7.63 -4.66 11.26 -5 15 C-5.66 15 -6.32 15 -7 15 C-7 10.38 -7 5.76 -7 1 C-3 0 -3 0 0 0 Z " fill="#3A3A3A" transform="translate(195,43)"/>
<path d="M0 0 C0.66 0 1.32 0 2 0 C2 6.27 2 12.54 2 19 C1.01 18.67 0.02 18.34 -1 18 C-1.18451025 5.33029613 -1.18451025 5.33029613 0 0 Z " fill="#262626" transform="translate(159,7)"/>
<path d="M0 0 C2.31 0 4.62 0 7 0 C7.042721 1.66611905 7.04063832 3.33382885 7 5 C6 6 6 6 2.9375 6.0625 C1.4834375 6.0315625 1.4834375 6.0315625 0 6 C0 4.02 0 2.04 0 0 Z " fill="#ECECEC" transform="translate(109,18)"/>
<path d="M0 0 C1.65 0 3.3 0 5 0 C5.66 2.64 6.32 5.28 7 8 C4.04335481 9.4783226 1.25770263 9.06032783 -2 9 C-2.33 7.68 -2.66 6.36 -3 5 C-1.68 5 -0.36 5 1 5 C1 5.66 1 6.32 1 7 C1.99 6.67 2.98 6.34 4 6 C4.33 5.34 4.66 4.68 5 4 C2.525 3.01 2.525 3.01 0 2 C0 1.34 0 0.68 0 0 Z " fill="#5F5F5F" transform="translate(176,54)"/>
<path d="M0 0 C0.33 0.99 0.66 1.98 1 3 C-0.375 5.5625 -0.375 5.5625 -2 8 C-2.33 8.66 -2.66 9.32 -3 10 C-3.66 10 -4.32 10 -5 10 C-5.433125 11.2065625 -5.433125 11.2065625 -5.875 12.4375 C-7 15 -7 15 -9 16 C-9.33 15.01 -9.66 14.02 -10 13 C-8.6875 10.8125 -8.6875 10.8125 -7 9 C-6.34 9 -5.68 9 -5 9 C-4.5978125 7.6078125 -4.5978125 7.6078125 -4.1875 6.1875 C-3.08851629 3.23759634 -2.37581439 1.94384814 0 0 Z " fill="#878586" transform="translate(20,27)"/>
<path d="M0 0 C0.103125 0.639375 0.20625 1.27875 0.3125 1.9375 C0.539375 2.618125 0.76625 3.29875 1 4 C1.99 4.33 2.98 4.66 4 5 C4 5.66 4 6.32 4 7 C0.37 7 -3.26 7 -7 7 C-7 6.01 -7 5.02 -7 4 C-6.34 4 -5.68 4 -5 4 C-4.67 3.01 -4.34 2.02 -4 1 C-3.34 1.99 -2.68 2.98 -2 4 C-2 3.34 -2 2.68 -2 2 C-1.34 2 -0.68 2 0 2 C0 1.34 0 0.68 0 0 Z " fill="#333333" transform="translate(35,52)"/>
<path d="M0 0 C2.09749995 2.35968744 2.96905704 3.54616994 3.1875 6.75 C3.0946875 7.86375 3.0946875 7.86375 3 9 C3.99 9 4.98 9 6 9 C6 10.65 6 12.3 6 14 C4.68 13.67 3.36 13.34 2 13 C0.54815522 8.46298506 -0.23509196 4.81938524 0 0 Z " fill="#3C3C3C" transform="translate(149,44)"/>
<path d="M0 0 C3.5 0.125 3.5 0.125 4.5 1.125 C4.57205511 2.81108966 4.58386068 4.50000659 4.5625 6.1875 C4.55347656 7.10660156 4.54445312 8.02570312 4.53515625 8.97265625 C4.52355469 9.68292969 4.51195312 10.39320312 4.5 11.125 C4.17 11.125 3.84 11.125 3.5 11.125 C3.17 8.815 2.84 6.505 2.5 4.125 C0.85 3.795 -0.8 3.465 -2.5 3.125 C-2.83 6.095 -3.16 9.065 -3.5 12.125 C-3.83 12.125 -4.16 12.125 -4.5 12.125 C-4.52687279 10.31257948 -4.54633715 8.50004767 -4.5625 6.6875 C-4.57410156 5.67816406 -4.58570313 4.66882812 -4.59765625 3.62890625 C-4.44506773 -0.28346347 -4.05187323 0.14470976 0 0 Z " fill="#2D2D2D" transform="translate(230.5,42.875)"/>
<path d="M0 0 C2.64 0 5.28 0 8 0 C7.49396008 2.16874252 7.00016187 3.99967627 6 6 C2.31245243 5.50168276 0.39509338 4.89932357 -2 2 C-1.34 2 -0.68 2 0 2 C0 1.34 0 0.68 0 0 Z " fill="#E3E2E3" transform="translate(22,14)"/>
<path d="M0 0 C0.33 0 0.66 0 1 0 C1.02683987 2.97922593 1.04676037 5.95821295 1.0625 8.9375 C1.07087891 9.78763672 1.07925781 10.63777344 1.08789062 11.51367188 C1.09111328 12.32255859 1.09433594 13.13144531 1.09765625 13.96484375 C1.10289307 14.7137085 1.10812988 15.46257324 1.11352539 16.23413086 C1 18 1 18 0 19 C-5.52941176 19.23529412 -5.52941176 19.23529412 -8 18 C-8 17.34 -8 16.68 -8 16 C-5.36 16 -2.72 16 0 16 C-0.17402344 15.29488281 -0.34804688 14.58976562 -0.52734375 13.86328125 C-1.03316985 10.79906196 -0.89657273 8.26839299 -0.5625 5.1875 C-0.46066406 4.21167969 -0.35882813 3.23585938 -0.25390625 2.23046875 C-0.12822266 1.12638672 -0.12822266 1.12638672 0 0 Z " fill="#292929" transform="translate(259,75)"/>
<path d="M0 0 C3.60875142 1.4450628 5.07731739 3.17300076 7.125 6.4375 C7.62257813 7.21996094 8.12015625 8.00242187 8.6328125 8.80859375 C9.30957031 9.89333984 9.30957031 9.89333984 10 11 C10.99 12.485 10.99 12.485 12 14 C9.00998387 13.67675501 7.43579795 13.45193862 5.3125 11.25 C3.93538416 8.88922999 2.95887094 6.55698917 2 4 C1.34786461 2.65949948 0.68620031 1.32338632 0 0 Z " fill="#2A2929" transform="translate(44,30)"/>
<path d="M0 0 C0.99 0 1.98 0 3 0 C3 1.32 3 2.64 3 4 C3.99 4 4.98 4 6 4 C6 4.99 6 5.98 6 7 C5.01 7 4.02 7 3 7 C3 9.97 3 12.94 3 16 C2.67 16 2.34 16 2 16 C1.67 12.04 1.34 8.08 1 4 C0.01 4.99 -0.98 5.98 -2 7 C-1.125 1.125 -1.125 1.125 0 0 Z " fill="#8D8D8D" transform="translate(228,8)"/>
<path d="M0 0 C0.33 0 0.66 0 1 0 C1.33 2.64 1.66 5.28 2 8 C4.64 8 7.28 8 10 8 C9.34 9.32 8.68 10.64 8 12 C2.25 12.125 2.25 12.125 0 11 C0 7.37 0 3.74 0 0 Z " fill="#4C4C4C" transform="translate(265,77)"/>
<path d="M0 0 C0.99 0 1.98 0 3 0 C3 0.66 3 1.32 3 2 C3.66 2 4.32 2 5 2 C5 5.63 5 9.26 5 13 C4.67 13 4.34 13 4 13 C3.67 10.69 3.34 8.38 3 6 C2.67 8.97 2.34 11.94 2 15 C1.67 15 1.34 15 1 15 C0.67 10.05 0.34 5.1 0 0 Z " fill="#D2D2D2" transform="translate(211,74)"/>
<path d="M0 0 C2.64 0 5.28 0 8 0 C8.33 1.65 8.66 3.3 9 5 C8.01 5 7.02 5 6 5 C6 4.01 6 3.02 6 2 C4.68 2 3.36 2 2 2 C2 4.97 2 7.94 2 11 C1.67 11 1.34 11 1 11 C1 8.36 1 5.72 1 3 C0.34 3 -0.32 3 -1 3 C-0.67 2.01 -0.34 1.02 0 0 Z " fill="#5D5D5D" transform="translate(189,74)"/>
<path d="M0 0 C2.33294775 -0.04241723 4.66702567 -0.04092937 7 0 C8 1 8 1 8.09765625 3.94140625 C8.08605469 5.13636719 8.07445312 6.33132812 8.0625 7.5625 C8.05347656 8.76003906 8.04445312 9.95757812 8.03515625 11.19140625 C8.02355469 12.11824219 8.01195312 13.04507813 8 14 C7.67 14 7.34 14 7 14 C6.67 10.04 6.34 6.08 6 2 C4.02 2.66 2.04 3.32 0 4 C0 2.68 0 1.36 0 0 Z " fill="#2B2B2B" transform="translate(198,43)"/>
<path d="M0 0 C2.31 0.33 4.62 0.66 7 1 C7 2.32 7 3.64 7 5 C4.36 5.66 1.72 6.32 -1 7 C-0.67 4.69 -0.34 2.38 0 0 Z " fill="#949494" transform="translate(115,36)"/>
<path d="M0 0 C0.66 0.99 1.32 1.98 2 3 C1.125 5.6875 1.125 5.6875 0 8 C-0.66 8 -1.32 8 -2 8 C-2.2475 8.639375 -2.495 9.27875 -2.75 9.9375 C-4 12 -4 12 -6.125 12.75 C-7.053125 12.87375 -7.053125 12.87375 -8 13 C-7.1875 11.0625 -7.1875 11.0625 -6 9 C-5.01 8.67 -4.02 8.34 -3 8 C-1.81608777 5.62374655 -1.81608777 5.62374655 -1 3 C-0.67 2.01 -0.34 1.02 0 0 Z " fill="#363636" transform="translate(15,28)"/>
<path d="M0 0 C1.32 0 2.64 0 4 0 C4 2.97 4 5.94 4 9 C2.68 9 1.36 9 0 9 C0 6.03 0 3.06 0 0 Z " fill="#F7F7F7" transform="translate(154,15)"/>
<path d="M0 0 C2.64 0 5.28 0 8 0 C8.33 1.98 8.66 3.96 9 6 C8.01 6 7.02 6 6 6 C6.66 5.01 7.32 4.02 8 3 C5.69 3.33 3.38 3.66 1 4 C0.67 2.68 0.34 1.36 0 0 Z " fill="#CBCBCB" transform="translate(267,82)"/>
<path d="M0 0 C2.44710376 1.86977097 2.96931493 2.82502483 3.51171875 5.91796875 C3.56972656 6.99691406 3.62773437 8.07585938 3.6875 9.1875 C3.75324219 10.27417969 3.81898438 11.36085938 3.88671875 12.48046875 C3.92410156 13.31191406 3.96148437 14.14335938 4 15 C3.01 15.66 2.02 16.32 1 17 C-0.53266582 13.93466836 -0.10276471 10.73245728 -0.0625 7.375 C-0.05798828 6.66859375 -0.05347656 5.9621875 -0.04882812 5.234375 C-0.03703875 3.48954725 -0.01910324 1.744763 0 0 Z " fill="#E4E4E4" transform="translate(222,43)"/>
<path d="M0 0 C-0.33 0.99 -0.66 1.98 -1 3 C-1.99 3 -2.98 3 -4 3 C-4 6.63 -4 10.26 -4 14 C-4.66 14 -5.32 14 -6 14 C-6 9.71 -6 5.42 -6 1 C-2 0 -2 0 0 0 Z " fill="#3C3C3C" transform="translate(134,43)"/>
<path d="M0 0 C-0.309375 0.763125 -0.61875 1.52625 -0.9375 2.3125 C-1.67893593 4.18789677 -2.36228217 6.08684652 -3 8 C-3.66 8 -4.32 8 -5 8 C-5 8.66 -5 9.32 -5 10 C-5.66 10 -6.32 10 -7 10 C-7.33 11.65 -7.66 13.3 -8 15 C-8.66 14.01 -9.32 13.02 -10 12 C-9.38125 11.29875 -8.7625 10.5975 -8.125 9.875 C-5.95345733 6.93703051 -5.0966244 4.44653382 -4 1 C-2 0 -2 0 0 0 Z " fill="#9A999A" transform="translate(25,30)"/>
<path d="M0 0 C1.98 0 3.96 0 6 0 C6.042721 1.66611905 6.04063832 3.33382885 6 5 C5 6 5 6 2.4375 6.0625 C1.2309375 6.0315625 1.2309375 6.0315625 0 6 C0 4.02 0 2.04 0 0 Z " fill="#EEEEEE" transform="translate(109,9)"/>
<path d="M0 0 C1.65 0 3.3 0 5 0 C4.34 2.31 3.68 4.62 3 7 C1.02 7.33 -0.96 7.66 -3 8 C-3 7.34 -3 6.68 -3 6 C-2.34 6 -1.68 6 -1 6 C-0.67 4.02 -0.34 2.04 0 0 Z " fill="#8F8F8F" transform="translate(45,50)"/>
<path d="M0 0 C0.33 0 0.66 0 1 0 C0.8263239 5.29712119 0.8263239 5.29712119 0 8 C-3.62867604 10.58039185 -5.52664026 11 -10 11 C-10 10.34 -10 9.68 -10 9 C-9.05125 8.9175 -8.1025 8.835 -7.125 8.75 C-3.94726712 8.35529424 -3.94726712 8.35529424 -2.75 6.1875 C-2.5025 5.465625 -2.255 4.74375 -2 4 C-1.33333333 2.66666667 -0.66666667 1.33333333 0 0 Z " fill="#DEDBDC" transform="translate(50,13)"/>
<path d="M0 0 C0.99 1.32 1.98 2.64 3 4 C2.01 4 1.02 4 0 4 C0 4.99 0 5.98 0 7 C1.65 7.33 3.3 7.66 5 8 C5 8.33 5 8.66 5 9 C1.625 9.625 1.625 9.625 -2 10 C-2.66 9.34 -3.32 8.68 -4 8 C-3.34 8 -2.68 8 -2 8 C-2.75150023 4.72226496 -2.75150023 4.72226496 -6 3 C-4.35 3 -2.7 3 -1 3 C-0.67 2.01 -0.34 1.02 0 0 Z " fill="#2B2829" transform="translate(29,17)"/>
<path d="M0 0 C0.721875 0.61875 1.44375 1.2375 2.1875 1.875 C4.78381938 3.83666353 6.94671666 4.95316 10 6 C10 6.99 10 7.98 10 9 C8.68 9 7.36 9 6 9 C6 8.34 6 7.68 6 7 C4.35 6.67 2.7 6.34 1 6 C0.67 4.02 0.34 2.04 0 0 Z " fill="#C0C0C0" transform="translate(17,16)"/>
<path d="M0 0 C0.66 0 1.32 0 2 0 C2 0.66 2 1.32 2 2 C2.66 2 3.32 2 4 2 C5.32 4.64 6.64 7.28 8 10 C7.34 10.66 6.68 11.32 6 12 C4.99157547 10.56839732 3.99352109 9.12948547 3 7.6875 C2.1646875 6.48673828 2.1646875 6.48673828 1.3125 5.26171875 C0 3 0 3 0 0 Z " fill="#8B8A8A" transform="translate(46,28)"/>
<path d="M0 0 C0.99 0.495 0.99 0.495 2 1 C2 1.99 2 2.98 2 4 C2.66 4 3.32 4 4 4 C6.125 5.875 6.125 5.875 8 8 C8 8.66 8 9.32 8 10 C5.125 9.8125 5.125 9.8125 2 9 C0.06279854 5.74197937 0 3.84955327 0 0 Z " fill="#444444" transform="translate(52,31)"/>
<path d="M0 0 C0.99 0 1.98 0 3 0 C3 0.99 3 1.98 3 3 C2.34 3 1.68 3 1 3 C1.33 7.95 1.66 12.9 2 18 C1.34 18 0.68 18 0 18 C-0.06058594 17.16855469 -0.12117187 16.33710937 -0.18359375 15.48046875 C-0.26738281 14.39378906 -0.35117188 13.30710937 -0.4375 12.1875 C-0.51871094 11.10855469 -0.59992188 10.02960937 -0.68359375 8.91796875 C-0.90212461 5.94010095 -0.90212461 5.94010095 -2 3 C-1.34 3 -0.68 3 0 3 C0 2.01 0 1.02 0 0 Z " fill="#6E6E6E" transform="translate(211,40)"/>
<path d="M0 0 C0 1.32 0 2.64 0 4 C-2.16874252 3.49396008 -3.99967627 3.00016187 -6 2 C-6.33 2.99 -6.66 3.98 -7 5 C-7.33 3.35 -7.66 1.7 -8 0 C-4.71023192 -1.09658936 -3.28696233 -0.79953138 0 0 Z " fill="#D1D1D1" transform="translate(186,21)"/>
<path d="M0 0 C1.98 0.99 1.98 0.99 4 2 C3.67 5.96 3.34 9.92 3 14 C2.34 14 1.68 14 1 14 C0.67 9.38 0.34 4.76 0 0 Z " fill="#333333" transform="translate(213,13)"/>
<path d="M0 0 C6.4 -0.49230769 6.4 -0.49230769 9.4375 2 C10.2109375 2.99 10.2109375 2.99 11 4 C10.67 4.66 10.34 5.32 10 6 C9.01 5.34 8.02 4.68 7 4 C5.0103005 3.60986284 3.00980131 3.26797351 1 3 C0.67 2.01 0.34 1.02 0 0 Z " fill="#393939" transform="translate(42,7)"/>
<path d="M0 0 C0.33 0 0.66 0 1 0 C1.05395478 1.62463842 1.09277195 3.24978541 1.125 4.875 C1.14820313 5.77992187 1.17140625 6.68484375 1.1953125 7.6171875 C1 10 1 10 -1 12 C-1 11.01 -1 10.02 -1 9 C-1.99 8.67 -2.98 8.34 -4 8 C-3.01 7.67 -2.02 7.34 -1 7 C-1.99 6.34 -2.98 5.68 -4 5 C-4 4.34 -4 3.68 -4 3 C-2.68 3 -1.36 3 0 3 C0 2.01 0 1.02 0 0 Z " fill="#D8D7D8" transform="translate(30,44)"/>
<path d="M0 0 C-0.99 1.485 -0.99 1.485 -2 3 C-5.125 3.1875 -5.125 3.1875 -8 3 C-8 1.68 -8 0.36 -8 -1 C-4.37673261 -2.2077558 -3.35853631 -1.54311128 0 0 Z " fill="#C4C3C4" transform="translate(44,47)"/>
<path d="M0 0 C2.62187494 1.04874998 3.79371361 1.64931313 5.25 4.125 C5.4975 4.74375 5.745 5.3625 6 6 C2.39703406 6.41176754 1.21597933 6.1535853 -1.8125 4 C-2.534375 3.34 -3.25625 2.68 -4 2 C-2.68 2 -1.36 2 0 2 C0 1.34 0 0.68 0 0 Z " fill="#E7E5E6" transform="translate(44,43)"/>
<path d="M0 0 C-1.23932829 3.43198603 -2.50301511 6.30325632 -5 9 C-5.99 9 -6.98 9 -8 9 C-6.68994234 5.06982701 -4.75047804 0 0 0 Z " fill="#313131" transform="translate(14,26)"/>
<path d="M0 0 C1.66666667 1.66666667 3.33333333 3.33333333 5 5 C5.8971875 5.8353125 5.8971875 5.8353125 6.8125 6.6875 C8 8 8 8 8 10 C4.9054129 9.6684371 3.97195314 8.97117406 1.75 6.6875 C0 4 0 4 0 0 Z " fill="#2D2D2D" transform="translate(53,25)"/>
<path d="M0 0 C0.99 0.33 1.98 0.66 3 1 C2.6875 2.9375 2.6875 2.9375 2 5 C1.01 5.33 0.02 5.66 -1 6 C-1.33 6.66 -1.66 7.32 -2 8 C-2.66 8 -3.32 8 -4 8 C-4 6.35 -4 4.7 -4 3 C-2.68 2.34 -1.36 1.68 0 1 C0 0.67 0 0.34 0 0 Z " fill="#8A8B8B" transform="translate(32,5)"/>
<path d="M0 0 C0.99 0 1.98 0 3 0 C2.67 4.29 2.34 8.58 2 13 C1.34 13 0.68 13 0 13 C0 8.71 0 4.42 0 0 Z " fill="#444444" transform="translate(240,44)"/>
<path d="M0 0 C0.99 0 1.98 0 3 0 C3 4.29 3 8.58 3 13 C2.34 13 1.68 13 1 13 C0.67 8.71 0.34 4.42 0 0 Z " fill="#2B2B2B" transform="translate(144,13)"/>
<path d="M0 0 C2.33944736 0.28730055 4.6739143 0.61936779 7 1 C6 3 6 3 3.625 4.125 C1 5 1 5 -2 5 C-1.125 1.125 -1.125 1.125 0 0 Z " fill="#7A7A7A" transform="translate(195,11)"/>
<path d="M0 0 C2.475 0.99 2.475 0.99 5 2 C4.67 2.66 4.34 3.32 4 4 C2.68 4 1.36 4 0 4 C0 5.98 0 7.96 0 10 C-0.66 10 -1.32 10 -2 10 C-2.25 3.375 -2.25 3.375 0 0 Z " fill="#868686" transform="translate(25,48)"/>
<path d="M0 0 C0.33 0.99 0.66 1.98 1 3 C1.66 3.33 2.32 3.66 3 4 C0.75 6.5625 0.75 6.5625 -2 9 C-4.3125 8.8125 -4.3125 8.8125 -6 8 C-4.625 6.5 -4.625 6.5 -3 5 C-2.34 5 -1.68 5 -1 5 C-0.67 3.35 -0.34 1.7 0 0 Z " fill="#474747" transform="translate(18,40)"/>
<path d="M0 0 C0.66 1.32 1.32 2.64 2 4 C2.66 4 3.32 4 4 4 C4 4.66 4 5.32 4 6 C4.66 6 5.32 6 6 6 C6.33 6.99 6.66 7.98 7 9 C4.75 8.9375 4.75 8.9375 2 8 C0.32150176 5.7691525 -0.75999263 3.52594094 -2 1 C-1.34 0.67 -0.68 0.34 0 0 Z " fill="#353334" transform="translate(47,40)"/>
<path d="M0 0 C0.66 0.99 1.32 1.98 2 3 C1.125 6.1875 1.125 6.1875 0 9 C-1.98 9 -3.96 9 -6 9 C-5.67 8.01 -5.34 7.02 -5 6 C-4.01 6 -3.02 6 -2 6 C-2 4.68 -2 3.36 -2 2 C-1.34 2 -0.68 2 0 2 C0 1.34 0 0.68 0 0 Z " fill="#403E3F" transform="translate(38,28)"/>
<path d="M0 0 C0.66 0 1.32 0 2 0 C2 0.66 2 1.32 2 2 C2.66 2 3.32 2 4 2 C5.2890625 3.75 5.2890625 3.75 6.625 6 C7.07101563 6.7425 7.51703125 7.485 7.9765625 8.25 C8.31429687 8.8275 8.65203125 9.405 9 10 C7.68 10 6.36 10 5 10 C1.125 3.375 1.125 3.375 0 0 Z " fill="#959595" transform="translate(49,25)"/>
<path d="M0 0 C-0.66 0 -1.32 0 -2 0 C-1.34 0.99 -0.68 1.98 0 3 C0 3.99 0 4.98 0 6 C-1.65 6 -3.3 6 -5 6 C-4.79375 5.38125 -4.5875 4.7625 -4.375 4.125 C-4.25125 3.42375 -4.1275 2.7225 -4 2 C-4.66 1.34 -5.32 0.68 -6 0 C-3.50907189 -1.24546405 -2.58919267 -0.7767578 0 0 Z " fill="#C7C7C7" transform="translate(173,12)"/>
<path d="M0 0 C0 0.99 0 1.98 0 3 C-3.28696233 3.79953138 -4.71023192 4.09658936 -8 3 C-8.33 3.66 -8.66 4.32 -9 5 C-9 3.68 -9 2.36 -9 1 C-6.04335481 -0.4783226 -3.25770263 -0.06032783 0 0 Z " fill="#C8C8C8" transform="translate(259,88)"/>
<path d="M0 0 C1.53445094 3.06890187 0.54984289 5.70094266 0 9 C-0.66 9 -1.32 9 -2 9 C-4 6 -4 6 -3.625 3.3125 C-3.41875 2.549375 -3.2125 1.78625 -3 1 C-2.01 0.67 -1.02 0.34 0 0 Z " fill="#D6D6D6" transform="translate(265,75)"/>
<path d="M0 0 C3.3 0 6.6 0 10 0 C10 0.66 10 1.32 10 2 C8.72125 2.0825 7.4425 2.165 6.125 2.25 C3.94666582 2.45869931 3.94666582 2.45869931 2 3 C0.4100567 4.92064793 0.4100567 4.92064793 0 7 C0 4.69 0 2.38 0 0 Z " fill="#222222" transform="translate(155,68)"/>
<path d="M0 0 C0.66 0 1.32 0 2 0 C2.33 3.3 2.66 6.6 3 10 C2.01 10.66 1.02 11.32 0 12 C0 8.04 0 4.08 0 0 Z " fill="#CFCFCF" transform="translate(216,15)"/>
<path d="M0 0 C1.32 0.33 2.64 0.66 4 1 C4.33 3.31 4.66 5.62 5 8 C4.01 8 3.02 8 2 8 C1.34 5.36 0.68 2.72 0 0 Z " fill="#3B3B3B" transform="translate(171,12)"/>
<path d="M0 0 C0.33 0.99 0.66 1.98 1 3 C-1.97 2.505 -1.97 2.505 -5 2 C-5.33 2.66 -5.66 3.32 -6 4 C-6 3.01 -6 2.02 -6 1 C-6.66 0.67 -7.32 0.34 -8 0 C-4.71023192 -1.09658936 -3.28696233 -0.79953138 0 0 Z " fill="#636363" transform="translate(188,13)"/>
<path d="M0 0 C0.33 0 0.66 0 1 0 C1.03738281 0.67546875 1.07476562 1.3509375 1.11328125 2.046875 C1.17902344 2.93890625 1.24476562 3.8309375 1.3125 4.75 C1.37050781 5.63171875 1.42851563 6.5134375 1.48828125 7.421875 C2.0641181 10.32303774 3.07596148 11.79225607 5 14 C3.35 13.67 1.7 13.34 0 13 C0 8.71 0 4.42 0 0 Z " fill="#242524" transform="translate(106,75)"/>
<path d="M0 0 C0.33 0 0.66 0 1 0 C1 1.98 1 3.96 1 6 C-0.8125 6.6875 -0.8125 6.6875 -3 7 C-4.75 5.5625 -4.75 5.5625 -6 4 C-5.38125 3.71125 -4.7625 3.4225 -4.125 3.125 C-1.86674235 2.06279958 -1.86674235 2.06279958 0 0 Z " fill="#EBEBEB" transform="translate(175,25)"/>
<path d="M0 0 C0.99 0 1.98 0 3 0 C1.125 3.875 1.125 3.875 0 5 C-1.66617115 5.04063832 -3.33388095 5.042721 -5 5 C-5.33 4.34 -5.66 3.68 -6 3 C-4.02 2.67 -2.04 2.34 0 2 C0 1.34 0 0.68 0 0 Z " fill="#5F5F5F" transform="translate(173,23)"/>
<path d="M0 0 C0 1.98 0 3.96 0 6 C-1.32 6 -2.64 6 -4 6 C-4 5.01 -4 4.02 -4 3 C-4.99 2.67 -5.98 2.34 -7 2 C-1.125 0 -1.125 0 0 0 Z " fill="#EAEAEA" transform="translate(223,68)"/>
<path d="M0 0 C0.33 0.66 0.66 1.32 1 2 C1.99 1.67 2.98 1.34 4 1 C3.67 3.64 3.34 6.28 3 9 C2.01 8.67 1.02 8.34 0 8 C0.66 8 1.32 8 2 8 C1.67 7.4225 1.34 6.845 1 6.25 C0 4 0 4 0 0 Z " fill="#DEDEDE" transform="translate(37,51)"/>
<path d="M0 0 C0.33 0 0.66 0 1 0 C1 2.64 1 5.28 1 8 C0.34 8 -0.32 8 -1 8 C-1 8.66 -1 9.32 -1 10 C-2.32 9.67 -3.64 9.34 -5 9 C-4.01 9 -3.02 9 -2 9 C-2.04125 8.2575 -2.0825 7.515 -2.125 6.75 C-1.99601866 3.91241048 -1.42948778 2.41226062 0 0 Z " fill="#F2F2F2" transform="translate(205,18)"/>
<path d="M0 0 C1.32 0.33 2.64 0.66 4 1 C3.67 2.98 3.34 4.96 3 7 C2.01 6.67 1.02 6.34 0 6 C0 4.02 0 2.04 0 0 Z " fill="#EAEAEA" transform="translate(25,52)"/>
<path d="M0 0 C0.99 0.495 0.99 0.495 2 1 C3.67654729 0.72057545 5.34608154 0.39171753 7 0 C7 1.32 7 2.64 7 4 C4.69 3.67 2.38 3.34 0 3 C0 2.01 0 1.02 0 0 Z " fill="#C7C7C7" transform="translate(197,45)"/>
<path d="M0 0 C0.33 0.66 0.66 1.32 1 2 C2.65 1.34 4.3 0.68 6 0 C4.70700306 2.88437779 3.34058637 4.87219421 1 7 C1 6.01 1 5.02 1 4 C0.34 4 -0.32 4 -1 4 C-0.67 2.68 -0.34 1.36 0 0 Z " fill="#CECECE" transform="translate(10,43)"/>
<path d="M0 0 C0.66 0 1.32 0 2 0 C3.32 2.31 4.64 4.62 6 7 C5.34 7.66 4.68 8.32 4 9 C0 3.375 0 3.375 0 0 Z " fill="#9F9F9F" transform="translate(53,21)"/>
<path d="M0 0 C1.65 0 3.3 0 5 0 C4.67 1.98 4.34 3.96 4 6 C3.01 6 2.02 6 1 6 C0.67 4.02 0.34 2.04 0 0 Z " fill="#8C8C8C" transform="translate(17,50)"/>
<path d="M0 0 C0.66 0 1.32 0 2 0 C1.40072174 3.35595828 0.15377564 5.37801226 -2 8 C-2.66 7.34 -3.32 6.68 -4 6 C-2.7260411 3.96166576 -1.38938077 1.96147874 0 0 Z " fill="#9A9A9A" transform="translate(13,28)"/>
<path d="M0 0 C1.32 0 2.64 0 4 0 C4 1.32 4 2.64 4 4 C2.35 4 0.7 4 -1 4 C-0.67 2.68 -0.34 1.36 0 0 Z " fill="#DBDBDB" transform="translate(268,76)"/>
<path d="M0 0 C2.31 0 4.62 0 7 0 C6.67 1.32 6.34 2.64 6 4 C6 3.34 6 2.68 6 2 C4.02 2.66 2.04 3.32 0 4 C0 2.68 0 1.36 0 0 Z " fill="#444444" transform="translate(135,74)"/>
<path d="M0 0 C1.14229879 3.42689636 0.90861076 5.61102218 0.5625 9.1875 C0.40974609 10.81751953 0.40974609 10.81751953 0.25390625 12.48046875 C0.17011719 13.31191406 0.08632812 14.14335937 0 15 C-0.33 15 -0.66 15 -1 15 C-1.33 10.38 -1.66 5.76 -2 1 C-1.34 0.67 -0.68 0.34 0 0 Z " fill="#D2D2D2" transform="translate(225,12)"/>
<path d="M0 0 C0.33 0 0.66 0 1 0 C1.125 5.75 1.125 5.75 0 8 C-2.97 7.505 -2.97 7.505 -6 7 C-5.67 6.34 -5.34 5.68 -5 5 C-3.35 5 -1.7 5 0 5 C0 3.35 0 1.7 0 0 Z " fill="#7F7F7F" transform="translate(158,7)"/>
<path d="M0 0 C1.32 0 2.64 0 4 0 C4 0.99 4 1.98 4 3 C3.34 3 2.68 3 2 3 C2 3.66 2 4.32 2 5 C1.34 5 0.68 5 0 5 C0 4.34 0 3.68 0 3 C-0.66 2.67 -1.32 2.34 -2 2 C-1.34 2 -0.68 2 0 2 C0 1.34 0 0.68 0 0 Z " fill="#606060" transform="translate(194,84)"/>
<path d="M0 0 C0.33 1.32 0.66 2.64 1 4 C-0.98 4.33 -2.96 4.66 -5 5 C-5.33 4.34 -5.66 3.68 -6 3 C-4.02 2.01 -2.04 1.02 0 0 Z " fill="#515151" transform="translate(258,84)"/>
<path d="M0 0 C0.99 0 1.98 0 3 0 C2.67 2.31 2.34 4.62 2 7 C1.34 6.67 0.68 6.34 0 6 C0 4.02 0 2.04 0 0 Z " fill="#F8F8F8" transform="translate(254,76)"/>
<path d="M0 0 C0.99 0 1.98 0 3 0 C2.67 1.65 2.34 3.3 2 5 C1.01 5 0.02 5 -1 5 C-0.67 3.35 -0.34 1.7 0 0 Z " fill="#9D9D9D" transform="translate(180,68)"/>
<path d="M0 0 C0.99 0 1.98 0 3 0 C3 1.98 3 3.96 3 6 C2.01 6 1.02 6 0 6 C0 4.02 0 2.04 0 0 Z " fill="#A2A2A2" transform="translate(175,67)"/>
<path d="M0 0 C1.32 0 2.64 0 4 0 C3.67 1.65 3.34 3.3 3 5 C2.01 5 1.02 5 0 5 C0 3.35 0 1.7 0 0 Z " fill="#E9E9E9" transform="translate(200,51)"/>
<path d="M0 0 C0.66 0.66 1.32 1.32 2 2 C0.75 3.5 0.75 3.5 -1 5 C-2.32 5 -3.64 5 -5 5 C-4 2 -4 2 -1.9375 0.8125 C-1.298125 0.544375 -0.65875 0.27625 0 0 Z " fill="#ECECEC" transform="translate(22,44)"/>
<path d="M0 0 C0.99 0 1.98 0 3 0 C2.67 3.3 2.34 6.6 2 10 C1.67 10 1.34 10 1 10 C0.67 6.7 0.34 3.4 0 0 Z " fill="#222222" transform="translate(159,38)"/>
<path d="M0 0 C0.33 0.66 0.66 1.32 1 2 C-0.98 4.97 -0.98 4.97 -3 8 C-3.66 7.01 -4.32 6.02 -5 5 C-3.35 3.35 -1.7 1.7 0 0 Z " fill="#ADACAD" transform="translate(15,35)"/>
<path d="M0 0 C2.02045442 0.60183749 4.02111039 1.27306096 6 2 C6.33 2.66 6.66 3.32 7 4 C4.69 4 2.38 4 0 4 C0 2.68 0 1.36 0 0 Z " fill="#4B4B4B" transform="translate(180,23)"/>
<path d="M0 0 C0.66 0 1.32 0 2 0 C1.39816251 2.02045442 0.72693904 4.02111039 0 6 C-0.99 6.495 -0.99 6.495 -2 7 C-2.66 6.34 -3.32 5.68 -4 5 C-3.34 5 -2.68 5 -2 5 C-1.34 3.35 -0.68 1.7 0 0 Z " fill="#878787" transform="translate(12,21)"/>
<path d="M0 0 C1.65 0 3.3 0 5 0 C5 0.66 5 1.32 5 2 C5.99 2.33 6.98 2.66 8 3 C5.36 3 2.72 3 0 3 C0 2.01 0 1.02 0 0 Z " fill="#646464" transform="translate(168,18)"/>
<path d="M0 0 C0.33 0 0.66 0 1 0 C1 2.31 1 4.62 1 7 C0.34 7 -0.32 7 -1 7 C-1.33 7.66 -1.66 8.32 -2 9 C-2.66 8.01 -3.32 7.02 -4 6 C-3.34 4.68 -2.68 3.36 -2 2 C-2 3.32 -2 4.64 -2 6 C-1.34 6 -0.68 6 0 6 C0 4.02 0 2.04 0 0 Z " fill="#7F7F7F" transform="translate(118,8)"/>
<path d="M0 0 C-0.33 0.99 -0.66 1.98 -1 3 C-2.65 3 -4.3 3 -6 3 C-6.33 2.34 -6.66 1.68 -7 1 C-4.53721199 -0.231394 -2.7204945 -0.07159196 0 0 Z " fill="#5A5A5A" transform="translate(181,86)"/>
<path d="M0 0 C0.66 0 1.32 0 2 0 C0.125 4.75 0.125 4.75 -1 7 C-1.66 7 -2.32 7 -3 7 C-2.67 5.35 -2.34 3.7 -2 2 C-1.34 2 -0.68 2 0 2 C0 1.34 0 0.68 0 0 Z " fill="#1D1C1C" transform="translate(22,36)"/>
<path d="M0 0 C-0.33 1.98 -0.66 3.96 -1 6 C-1.66 5.01 -2.32 4.02 -3 3 C-3.66 3.99 -4.32 4.98 -5 6 C-5 4.35 -5 2.7 -5 1 C-3 0 -3 0 0 0 Z " fill="#686868" transform="translate(110,37)"/>
<path d="M0 0 C4 2 4 2 5.25 5.125 C5.4975 6.07375 5.745 7.0225 6 8 C5.34 8 4.68 8 4 8 C2.68 5.36 1.36 2.72 0 0 Z " fill="#181617" transform="translate(44,30)"/>
<path d="M0 0 C-1.12451727 2.9719385 -2.22293791 5.33440687 -4 8 C-4.93423645 4.98968256 -5.04449911 4.13349732 -4 1 C-2 0 -2 0 0 0 Z " fill="#8B898A" transform="translate(25,30)"/>
<path d="M0 0 C0.33 0 0.66 0 1 0 C0.67 2.64 0.34 5.28 0 8 C-1.32 7.34 -2.64 6.68 -4 6 C-3.525625 5.566875 -3.05125 5.13375 -2.5625 4.6875 C-0.76313043 2.97690387 -0.76313043 2.97690387 0 0 Z " fill="#A0A0A0" transform="translate(50,13)"/>
<path d="M0 0 C1.33332095 2.6666419 0.67102033 4.16680303 0 7 C-0.66 7 -1.32 7 -2 7 C-2 7.66 -2 8.32 -2 9 C-2.66 9 -3.32 9 -4 9 C-2.80100302 5.9168649 -1.52299523 2.93720508 0 0 Z " fill="#666666" transform="translate(14,11)"/>
<path d="M0 0 C1.485 0.99 1.485 0.99 3 2 C2.625 4.9375 2.625 4.9375 2 8 C1.01 8.495 1.01 8.495 0 9 C0 6.03 0 3.06 0 0 Z " fill="#1B1B1B" transform="translate(36,5)"/>
</svg>
