<?xml version="1.0" encoding="UTF-8"?>
<svg version="1.1" xmlns="http://www.w3.org/2000/svg" width="282" height="235">
<path d="M0 0 C93.06 0 186.12 0 282 0 C282 77.55 282 155.1 282 235 C188.94 235 95.88 235 0 235 C0 157.45 0 79.9 0 0 Z " fill="#F9FAFC" transform="translate(0,0)"/>
<path d="M0 0 C0.77943466 0.00222061 1.55886932 0.00444122 2.36192322 0.00672913 C3.24276077 0.00680466 4.12359833 0.00688019 5.03112793 0.00695801 C5.98841293 0.01211929 6.94569794 0.01728058 7.93199158 0.02259827 C9.39480812 0.02472069 9.39480812 0.02472069 10.88717651 0.02688599 C14.01542675 0.03250319 17.14360656 0.04505859 20.27183533 0.05775452 C22.38706867 0.0627673 24.50230313 0.06733059 26.61753845 0.07142639 C31.81482829 0.0824782 37.01207678 0.09923305 42.20933533 0.12025452 C42.35912076 5.59702451 42.46721902 11.07256888 42.53892517 16.55091858 C42.56885597 18.40920311 42.6096168 20.26734935 42.66197205 22.12513733 C42.97983908 33.70546974 42.59865569 42.06118133 36.20933533 52.12025452 C35.19939426 54.44930228 34.1991589 56.78258608 33.20933533 59.12025452 C30.92595399 63.98999012 28.57477248 68.82739931 26.23667908 73.67103577 C25.52705017 75.1463678 25.52705017 75.1463678 24.80308533 76.65150452 C24.37705017 77.5338678 23.95101501 78.41623108 23.5120697 79.32533264 C22.560666 81.36650011 21.65011995 83.42685368 20.76402283 85.49720764 C19.16569935 89.22194389 17.47149245 92.89357567 15.74058533 96.55775452 C15.41900452 97.24152161 15.09742371 97.9252887 14.76609802 98.629776 C13.40568128 101.52229174 12.04249309 104.41349878 10.67955017 107.30482483 C9.6780931 109.43034683 8.67806202 111.55653575 7.67808533 113.68275452 C7.37487366 114.32462708 7.07166199 114.96649963 6.75926208 115.62782288 C5.34387785 118.63764953 3.97858931 121.65866188 2.6683197 124.71595764 C1.31953965 127.86311109 -0.11087992 130.94532704 -1.60316467 134.02650452 C-2.38046936 135.63718811 -2.38046936 135.63718811 -3.17347717 137.28041077 C-4.25160217 139.50697327 -5.32972717 141.73353577 -6.40785217 143.96009827 C-8.98747754 149.30544138 -11.46975093 154.65681158 -13.79066467 160.12025452 C-15.8322531 164.60908901 -17.90563371 169.0831382 -19.97816467 173.55775452 C-20.54270668 174.77841654 -21.10716055 175.99911933 -21.67152405 177.21986389 C-23.04370656 180.18706197 -24.41677877 183.15384487 -25.79066467 186.12025452 C-27.77066467 186.12025452 -29.75066467 186.12025452 -31.79066467 186.12025452 C-30.50379016 181.21014109 -28.86713414 176.84274192 -26.66566467 172.24525452 C-26.36144592 171.60523499 -26.05722717 170.96521545 -25.74378967 170.30580139 C-25.09574413 168.94253485 -24.44563191 167.58024905 -23.79359436 166.21888733 C-22.10904944 162.69397298 -20.45169599 159.15629281 -18.79066467 155.62025452 C-18.1136908 154.18140093 -17.43660802 152.74259857 -16.75941467 151.30384827 C-16.42941467 150.60243713 -16.09941467 149.901026 -15.75941467 149.17835999 C-15.1349204 147.85162443 -14.50995609 146.52510996 -13.88441467 145.1988678 C-9.03215446 134.90676899 -4.38198329 124.53121855 0.20933533 114.12025452 C-1.77066467 113.13025452 -3.75066467 112.14025452 -5.79066467 111.12025452 C-6.04589905 111.93752014 -6.30113342 112.75478577 -6.56410217 113.59681702 C-7.98103644 117.66711864 -9.65680502 121.56331101 -11.41566467 125.49525452 C-11.76467834 126.27892395 -12.11369202 127.06259338 -12.47328186 127.87001038 C-15.1598633 133.84506852 -18.01035976 139.72443486 -21.00013733 145.55335999 C-23.01415335 149.49162205 -24.8608665 153.47590971 -26.63929749 157.52577209 C-29.04221015 162.94047797 -31.55334139 168.30644689 -34.04066467 173.68275452 C-34.60062026 174.89431544 -35.1605165 176.1059038 -35.72035217 177.31752014 C-37.07654192 180.25203416 -38.43332647 183.18627158 -39.79066467 186.12025452 C-41.77066467 186.12025452 -43.75066467 186.12025452 -45.79066467 186.12025452 C-43.38026047 178.16250165 -39.9773235 170.80669621 -36.41566467 163.30775452 C-35.79546623 161.99202348 -35.17584691 160.67601932 -34.55677795 159.35975647 C-33.27781476 156.64104931 -31.99680736 153.92331991 -30.7144928 151.20619202 C-27.95457091 145.35172776 -25.22698654 139.48227017 -22.50276184 133.61112976 C-21.68781464 131.85547263 -20.87134094 130.10052433 -20.05482483 128.34559631 C-17.50797564 122.86337474 -14.98922136 117.37230452 -12.55677795 111.83827209 C-11.99798102 110.58516375 -11.40426626 109.34745769 -10.79066467 108.12025452 C-13.10066467 107.46025452 -15.41066467 106.80025452 -17.79066467 106.12025452 C-17.8860553 106.80345764 -17.98144592 107.48666077 -18.07972717 108.19056702 C-18.94231898 111.74520359 -20.47744923 114.77927386 -22.16566467 117.99525452 C-24.22421096 121.96406198 -26.17921936 125.94168963 -27.91078186 130.06654358 C-29.92595877 134.77011411 -32.09535808 139.40669436 -34.22816467 144.05775452 C-34.94456116 145.62686584 -34.94456116 145.62686584 -35.6754303 147.22767639 C-38.00338156 152.3082943 -40.38285814 157.34539741 -42.91078186 162.32923889 C-44.32466949 165.20722991 -45.54058506 168.16821956 -46.79066467 171.12025452 C-47.99869329 173.77605794 -49.23697611 176.4173137 -50.47816467 179.05775452 C-50.7984967 179.74160217 -51.11882874 180.42544983 -51.4488678 181.13002014 C-52.22845147 182.79390767 -53.00941218 184.4571499 -53.79066467 186.12025452 C-55.77066467 186.12025452 -57.75066467 186.12025452 -59.79066467 186.12025452 C-59.14668047 181.45023525 -57.25435138 177.5013173 -55.22816467 173.29994202 C-54.87681458 172.55946625 -54.52546448 171.81899048 -54.16346741 171.05607605 C-53.04443335 168.6999353 -51.91791923 166.34747186 -50.79066467 163.99525452 C-49.66476116 161.63527999 -48.5404447 159.27456554 -47.41786194 156.91300964 C-46.72006219 155.44618609 -46.02010605 153.98038599 -45.31776428 152.51573181 C-43.99344676 149.74059668 -42.76419363 147.04084139 -41.79066467 144.12025452 C-41.13066467 144.12025452 -40.47066467 144.12025452 -39.79066467 144.12025452 C-39.6881842 142.94656311 -39.6881842 142.94656311 -39.58363342 141.74916077 C-38.49982269 136.78925842 -36.34436985 132.59174752 -34.10316467 128.05775452 C-33.19501434 126.18825335 -32.28746166 124.31846173 -31.38050842 122.44837952 C-30.93819885 121.54152405 -30.49588928 120.63466858 -30.04017639 119.70033264 C-27.54318512 114.54437255 -25.16918371 109.3317251 -22.79066467 104.12025452 C-25.60576461 101.84290442 -25.60576461 101.84290442 -28.79066467 102.12025452 C-30.42725754 105.65786624 -32.0629587 109.19588882 -33.69789124 112.73426819 C-34.52263265 114.51873911 -35.34804741 116.30289877 -36.17347717 118.08705139 C-39.53505112 125.36167131 -39.53505112 125.36167131 -42.80238342 132.67884827 C-45.83901462 139.55592481 -49.1815865 146.29215271 -52.4566803 153.05775452 C-55.53402468 159.39807021 -55.53402468 159.39807021 -58.40003967 165.83509827 C-60.14785747 169.96407233 -62.05843295 174.00653043 -63.97816467 178.05775452 C-64.34619202 178.8369928 -64.71421936 179.61623108 -65.09339905 180.41908264 C-65.9913775 182.31999806 -66.89086423 184.22020086 -67.79066467 186.12025452 C-69.77066467 186.12025452 -71.75066467 186.12025452 -73.79066467 186.12025452 C-71.7636536 179.43840065 -69.10628722 173.2608751 -66.04066467 166.99525452 C-65.14169762 165.13483322 -64.24326258 163.27415477 -63.34535217 161.41322327 C-62.90803772 160.51007385 -62.47072327 159.60692444 -62.02015686 158.67640686 C-60.36567534 155.23668853 -58.76299424 151.77426956 -57.16566467 148.30775452 C-54.76336546 143.12921328 -52.24710542 138.02399622 -49.66566467 132.93275452 C-46.85402672 127.38336398 -44.33707997 121.79279575 -42.02113342 116.01478577 C-40.21479069 111.76557953 -38.07984233 107.69897184 -35.92738342 103.61634827 C-34.58344134 101.12234077 -34.58344134 101.12234077 -34.79066467 98.12025452 C-36.44066467 97.46025452 -38.09066467 96.80025452 -39.79066467 96.12025452 C-40.0805426 96.76639709 -40.37042053 97.41253967 -40.66908264 98.07826233 C-44.47270345 106.50709804 -48.47745657 114.83208986 -52.50550842 123.15541077 C-53.26927795 124.73902405 -53.26927795 124.73902405 -54.04847717 126.35462952 C-54.50367737 127.29532288 -54.95887756 128.23601624 -55.4278717 129.20521545 C-56.40124807 131.28728529 -57.33367 133.38870178 -58.23817444 135.50160217 C-59.86966344 139.30439034 -61.60239324 143.04491228 -63.37269592 146.78431702 C-63.70935776 147.49824615 -64.04601959 148.21217529 -64.3928833 148.94773865 C-65.46182122 151.21412491 -66.53238292 153.47973889 -67.60316467 155.74525452 C-69.00623243 158.7162674 -70.40853913 161.68763822 -71.81019592 164.65931702 C-72.14866547 165.37678101 -72.48713501 166.094245 -72.83586121 166.83345032 C-75.85721766 173.24570336 -78.83427693 179.67776647 -81.79066467 186.12025452 C-83.77066467 186.12025452 -85.75066467 186.12025452 -87.79066467 186.12025452 C-85.88930751 179.96050829 -83.56302274 174.21694087 -80.72816467 168.43275452 C-76.80304757 160.29573512 -73.02715747 152.10061359 -69.32948303 143.85780334 C-67.43060866 139.64537598 -65.48780559 135.4712015 -63.40394592 131.34681702 C-60.49715517 125.59141651 -57.78520403 119.74922922 -55.07899475 113.89735413 C-54.22742183 112.05614839 -53.37348222 110.21605474 -52.5191803 108.37611389 C-50.23713571 103.45170189 -47.95731174 98.52902773 -45.77894592 93.55775452 C-43.19020634 87.6917017 -40.34378796 81.94843584 -37.54066467 76.18275452 C-33.41713129 67.67374789 -29.39025885 59.13646975 -25.60145569 50.47254944 C-22.97682069 44.48546614 -20.19333351 38.58255062 -17.37367249 32.68519592 C-13.59447862 24.76060724 -9.95499855 16.77323986 -6.33241272 8.77601624 C-5.66205994 7.3028595 -5.66205994 7.3028595 -4.97816467 5.79994202 C-4.57984436 4.92064026 -4.18152405 4.0413385 -3.77113342 3.13539124 C-2.32145635 0.15590055 -2.32145635 0.15590055 0 0 Z " fill="#084996" transform="translate(207.79066467285156,1.8797454833984375)"/>
<path d="M0 0 C20.46 0 40.92 0 62 0 C60.23894804 4.69613856 58.56782876 9.12187585 56.46875 13.625 C55.9934082 14.64932129 55.51806641 15.67364258 55.02832031 16.72900391 C54.52397461 17.80843262 54.01962891 18.88786133 53.5 20 C52.42146999 22.32012427 51.34335444 24.64044125 50.265625 26.9609375 C49.72099609 28.13237305 49.17636719 29.30380859 48.61523438 30.51074219 C46.60167441 34.86046998 44.61693182 39.22296896 42.6328125 43.58618164 C38.75442448 52.10918581 34.82267903 60.5858318 30.54785156 68.91845703 C28.85799292 72.21951167 27.32540445 75.54859643 25.88867188 78.96655273 C23.43950101 84.57071322 20.68567328 90.04373785 18.02734375 95.55078125 C16.12222787 99.5115535 14.23153494 103.45975181 12.5 107.5 C9.88076003 113.61155994 6.91740338 119.5636816 4.02734375 125.55078125 C3.31771484 127.02611328 3.31771484 127.02611328 2.59375 128.53125 C2.16771484 129.41361328 1.74167969 130.29597656 1.30273438 131.20507812 C0.35424908 133.23998435 -0.55335026 135.29409829 -1.43603516 137.35839844 C-3.08265771 141.1924637 -4.83126704 144.96395431 -6.6171875 148.734375 C-6.95622101 149.45304749 -7.29525452 150.17171997 -7.64456177 150.91217041 C-8.72021162 153.19199814 -9.7974644 155.47106302 -10.875 157.75 C-15.31197993 167.13909222 -19.74618575 176.52594602 -24 186 C-25.98 186 -27.96 186 -30 186 C-28.3846573 180.80013493 -26.14516082 176.20486314 -23.6328125 171.390625 C-22.36682826 168.76173906 -21.26415761 166.18871859 -20.20703125 163.4765625 C-17.87014734 157.54225331 -15.17597596 151.79088508 -12.45727539 146.0234375 C-11.53977314 144.0767806 -10.6258736 142.1284677 -9.71289062 140.1796875 C-8.44259602 137.46859226 -7.17123474 134.75800205 -5.89892578 132.04785156 C-2.9216332 125.70367498 0.04173184 119.353066 3 113 C3.5148999 111.89930176 4.0297998 110.79860352 4.56030273 109.66455078 C8.20201754 101.84134482 11.63993877 93.94737886 15 86 C13.02 86 11.04 86 9 86 C7.89324381 88.1862225 6.78955622 90.37390948 5.6875 92.5625 C5.2244043 93.47612305 5.2244043 93.47612305 4.75195312 94.40820312 C2.9957886 97.90204623 1.36624409 101.41714821 -0.15356445 105.0222168 C-4.35492521 114.83912579 -9.06456888 124.42611161 -13.71484375 134.03515625 C-16.26150535 139.31544954 -18.69872986 144.60756429 -21 150 C-23.07229572 154.40896586 -25.20091226 158.79114424 -27.328125 163.17382812 C-29.83121663 168.37980635 -32.04272753 173.56576013 -34 179 C-34.96504377 181.35105314 -35.98121331 183.6713447 -37 186 C-39.31 186 -41.62 186 -44 186 C-42.23933248 180.24732395 -39.61230749 175.15502503 -36.8515625 169.828125 C-35.43476734 167.00283768 -34.231414 164.13772986 -33.078125 161.1953125 C-30.99419616 155.88637548 -28.6012823 150.76055283 -26.125 145.625 C-25.68591309 144.7074292 -25.24682617 143.7898584 -24.79443359 142.84448242 C-22.45656465 137.97284576 -20.073923 133.12913172 -17.625 128.3125 C-15.94916508 125.00272604 -14.44923517 121.71470151 -13.125 118.25 C-11.08927108 112.94684064 -8.50810363 107.96097801 -5.93334961 102.90576172 C-3.64093496 98.37265318 -1.61450143 93.81404376 0.19140625 89.0625 C1.28575022 86.27112987 2.60439592 83.65164775 4 81 C3.21625 80.855625 2.4325 80.71125 1.625 80.5625 C-1 80 -1 80 -3 79 C-3.556875 80.83691406 -3.556875 80.83691406 -4.125 82.7109375 C-6.20263085 88.94139152 -9.10663175 94.74042012 -12 100.625 C-15.13113261 107.03852767 -18.19356971 113.43704582 -21 120 C-23.49756428 125.2998239 -26.06388315 130.56671521 -28.6171875 135.83984375 C-31.19682298 141.18520781 -33.67704978 146.53743738 -36 152 C-38.51144425 157.47822918 -41.06480719 162.93722649 -43.6171875 168.39648438 C-46.31253648 174.1995305 -48.86774084 179.96600272 -51 186 C-53.31 186 -55.62 186 -58 186 C-56.61657341 181.47989331 -54.79799755 177.44416995 -52.625 173.25 C-50.62261431 169.33049084 -48.68863524 165.43152062 -47.125 161.3125 C-44.6279259 154.79652981 -41.52459885 148.55806594 -38.51171875 142.26953125 C-34.4000507 133.67673107 -30.40448537 125.02869435 -26.39494324 116.38789368 C-13.66985572 88.96686236 -13.66985572 88.96686236 -7 76 C-9.31 75.67 -11.62 75.34 -14 75 C-14.598125 76.175625 -15.19625 77.35125 -15.8125 78.5625 C-16.14894531 79.22378906 -16.48539063 79.88507813 -16.83203125 80.56640625 C-17.71062683 82.39705857 -18.5319599 84.25536259 -19.32421875 86.125 C-21.77638784 91.906165 -24.58678137 97.52585398 -27.328125 103.17382812 C-29.53744136 107.76880689 -31.5502107 112.33488065 -33.27978516 117.12963867 C-34.51865043 120.3469088 -36.10743046 123.37721662 -37.6875 126.4375 C-40.65172648 132.27217031 -43.52876491 138.13947895 -46.3125 144.0625 C-46.80012817 145.09685181 -46.80012817 145.09685181 -47.29760742 146.15209961 C-48.71204859 149.17150749 -50.08161052 152.19327591 -51.37890625 155.265625 C-54.04730417 161.56147393 -57.15445312 167.66910826 -60.1484375 173.81445312 C-60.62796875 174.80767578 -61.1075 175.80089844 -61.6015625 176.82421875 C-62.25632568 178.17132935 -62.25632568 178.17132935 -62.92431641 179.5456543 C-63.87136599 181.70650074 -64.51916018 183.69740094 -65 186 C-67.31 186 -69.62 186 -72 186 C-70.64899833 181.69489419 -69.0033164 177.69644369 -67.0625 173.625 C-66.43786944 172.30512847 -65.81424489 170.98478057 -65.19140625 169.6640625 C-64.67344482 168.56626465 -64.67344482 168.56626465 -64.14501953 167.44628906 C-61.89800135 162.64562335 -59.70336117 157.82081459 -57.5 153 C-51.53662109 139.97114937 -45.47781829 126.99098685 -39.33544922 114.0456543 C-36.47661777 108.01730172 -33.64637777 101.97660857 -30.84375 95.921875 C-29.44206418 92.91422179 -27.99281237 89.93211987 -26.53125 86.953125 C-25.90186523 85.65858398 -25.90186523 85.65858398 -25.25976562 84.33789062 C-24.4332083 82.63992403 -23.59881676 80.94574411 -22.75585938 79.25585938 C-22.38267578 78.48564453 -22.00949219 77.71542969 -21.625 76.921875 C-21.28726563 76.23706055 -20.94953125 75.55224609 -20.6015625 74.84667969 C-19.7343934 72.80595941 -19.7343934 72.80595941 -21 70 C-22.65 69.67 -24.3 69.34 -26 69 C-26.27585938 69.85851562 -26.55171875 70.71703125 -26.8359375 71.6015625 C-31.05109011 83.90754495 -37.12195114 95.4527626 -43.02636719 107.00878906 C-43.36571289 107.6787793 -43.70505859 108.34876953 -44.0546875 109.0390625 C-44.35616699 109.63154785 -44.65764648 110.2240332 -44.96826172 110.83447266 C-46.11159314 113.23422414 -47.14612419 115.67417987 -48.18582153 118.12020874 C-49.54476644 121.25776747 -51.00848469 124.34624618 -52.46875 127.4375 C-52.79033081 128.12126709 -53.11191162 128.80503418 -53.4432373 129.50952148 C-54.80365405 132.40203722 -56.16684223 135.29324426 -57.52978516 138.18457031 C-58.53124223 140.31009231 -59.53127331 142.43628123 -60.53125 144.5625 C-60.9860675 145.52530884 -60.9860675 145.52530884 -61.45007324 146.50756836 C-63.39197929 150.63704814 -65.22015821 154.79918889 -67 159 C-67.72546783 160.64746709 -68.45405397 162.29356925 -69.1875 163.9375 C-69.70376953 165.09572266 -69.70376953 165.09572266 -70.23046875 166.27734375 C-70.61138672 167.13005859 -70.61138672 167.13005859 -71 168 C-71.33 168 -71.66 168 -72 168 C-72.70892626 153.80178238 -72.70892626 153.80178238 -68 147 C-67.38150767 145.56596283 -66.80325855 144.11426283 -66.25390625 142.65234375 C-63.68411237 136.07180594 -60.68461742 129.70712795 -57.6875 123.3125 C-57.10107488 122.05634736 -56.51489505 120.80008018 -55.92895508 119.54370117 C-54.79003425 117.10266321 -53.64939358 114.66245396 -52.5078125 112.22265625 C-51.29421459 109.62882651 -50.08308163 107.03390125 -48.875 104.4375 C-45.59620161 97.39415531 -42.29299639 90.36240278 -38.97924805 83.33544922 C-37.38175012 79.94592838 -35.79023514 76.55401276 -34.21875 73.15234375 C-30.89455577 65.96385591 -27.47500705 58.84209761 -23.83984375 51.80444336 C-22.06115359 48.31367205 -20.4931312 44.8046984 -19.0625 41.15625 C-17.0081047 35.91985897 -14.63904301 30.87288378 -12.1875 25.8125 C-8.05676591 17.23839978 -4.02547384 8.62601537 0 0 Z " fill="#094A96" transform="translate(136,2)"/>
<path d="M0 0 C21.12 0 42.24 0 64 0 C61.75157955 6.74526134 61.75157955 6.74526134 60.16015625 10.05859375 C59.81919922 10.77466797 59.47824219 11.49074219 59.12695312 12.22851562 C58.77568359 12.95748047 58.42441406 13.68644531 58.0625 14.4375 C55.90795184 18.93446972 53.80915951 23.42894432 51.86889648 28.02368164 C49.41536256 33.60428213 46.67708962 39.06151992 44.02734375 44.55078125 C42.12222787 48.5115535 40.23153494 52.45975181 38.5 56.5 C35.88076003 62.61155994 32.91740338 68.5636816 30.02734375 74.55078125 C29.55425781 75.53433594 29.08117187 76.51789063 28.59375 77.53125 C28.16771484 78.41361328 27.74167969 79.29597656 27.30273438 80.20507812 C26.35494028 82.23850144 25.44803831 84.29113736 24.56616211 86.35400391 C22.90827623 90.21353123 21.14624994 94.00945986 19.34765625 97.8046875 C19.00625107 98.52810333 18.66484589 99.25151917 18.31309509 99.99685669 C17.23073323 102.29012585 16.14678898 104.58264145 15.0625 106.875 C13.63552001 109.8926646 12.20976565 112.91090308 10.78515625 115.9296875 C10.44569977 116.64767517 10.10624329 117.36566284 9.75650024 118.10540771 C7.70962406 122.44788799 5.72754596 126.80883077 3.88452148 131.24267578 C3 133 3 133 0 137 C0 91.79 0 46.58 0 0 Z " fill="#024694" transform="translate(64,2)"/>
<path d="M0 0 C0.33 0 0.66 0 1 0 C1 42.57 1 85.14 1 129 C-18.8 129 -38.6 129 -59 129 C-57.09227437 123.2768231 -55.24818365 118.02376597 -52.671875 112.6484375 C-52.20373383 111.65549179 -52.20373383 111.65549179 -51.72613525 110.64248657 C-50.73883892 108.55103791 -49.74465807 106.4629559 -48.75 104.375 C-48.09978372 103.00152766 -47.4500414 101.62783083 -46.80078125 100.25390625 C-45.50678763 97.51662848 -44.21068351 94.78036449 -42.91333008 92.04467773 C-37.9775288 81.62451377 -33.13877901 71.15873486 -28.3125 60.6875 C-27.5532019 59.04140747 -27.5532019 59.04140747 -26.77856445 57.36206055 C-25.18539434 53.90818567 -23.59264095 50.45411891 -22 47 C-3.82409031 7.58009593 -3.82409031 7.58009593 0 0 Z " fill="#074A96" transform="translate(249,59)"/>
<path d="M0 0 C2.28571429 8.42857143 2.28571429 8.42857143 2 13 C4.64 13 7.28 13 10 13 C10 20.59 10 28.18 10 36 C8.68 36 7.36 36 6 36 C6 37.65 6 39.3 6 41 C-1.68459597 43.28592412 -9.38230346 44.59964814 -17.3125 45.6875 C-18.25496582 45.81874268 -19.19743164 45.94998535 -20.16845703 46.08520508 C-25.15975467 46.74414122 -29.96618111 47.14580717 -35 47 C-36.17571451 43.32589215 -36.07366746 39.83070817 -36 36 C-38.64 36 -41.28 36 -44 36 C-44 28.41 -44 20.82 -44 13 C-43.01 12.67 -42.02 12.34 -41 12 C-41 10.02 -41 8.04 -41 6 C-40.22922119 5.88930176 -39.45844238 5.77860352 -38.66430664 5.66455078 C-35.12985236 5.15489356 -31.5961816 4.63998616 -28.0625 4.125 C-26.85013672 3.95097656 -25.63777344 3.77695313 -24.38867188 3.59765625 C-16.5254131 2.44693545 -7.9148623 -0.51063628 0 0 Z " fill="#AAC7E9" transform="translate(46,185)"/>
<path d="M0 0 C10.83984375 -0.09765625 10.83984375 -0.09765625 14 0 C16.05922402 2.05922402 15.41427579 6.21708124 15.5625 9.0625 C15.60568359 9.82111328 15.64886719 10.57972656 15.69335938 11.36132812 C15.79973633 13.24065438 15.90039934 15.12030244 16 17 C18.8505108 11.40037997 21.60078508 5.80862559 24 0 C27.3 0 30.6 0 34 0 C34 5.61 34 11.22 34 17 C34.66 17 35.32 17 36 17 C36.10183594 16.30519531 36.20367187 15.61039063 36.30859375 14.89453125 C37.11717006 11.50947448 38.46675713 8.77712981 40.0625 5.6875 C40.61035156 4.61886719 41.15820312 3.55023438 41.72265625 2.44921875 C42.14417969 1.64097656 42.56570312 0.83273438 43 0 C46.3 0 49.6 0 53 0 C53 6.93 53 13.86 53 21 C50.69 21 48.38 21 46 21 C46 20.34 46 19.68 46 19 C44.72769531 19.49113281 44.72769531 19.49113281 43.4296875 19.9921875 C39.79809989 21.05932828 36.89663699 21.20197218 33.125 21.125 C31.97257812 21.10695312 30.82015625 21.08890625 29.6328125 21.0703125 C28.76398437 21.04710937 27.89515625 21.02390625 27 21 C27 20.34 27 19.68 27 19 C26.13375 19.33 25.2675 19.66 24.375 20 C21.01482091 20.99560862 18.47605178 21.15449119 15 21 C14.01 21 13.02 21 12 21 C8 21 4 21 0 21 C0 14.07 0 7.14 0 0 Z " fill="#0B4B97" transform="translate(3,199)"/>
<path d="M0 0 C3.63 0 7.26 0 11 0 C11.66 2.31 12.32 4.62 13 7 C13.99 4.69 14.98 2.38 16 0 C19.63 0 23.26 0 27 0 C27 6.27 27 12.54 27 19 C24.69 19 22.38 19 20 19 C19.67 16.36 19.34 13.72 19 11 C18.01 13.64 17.02 16.28 16 19 C14.35 19 12.7 19 11 19 C10.01 16.36 9.02 13.72 8 11 C7.67 13.64 7.34 16.28 7 19 C4.69 19 2.38 19 0 19 C0 12.73 0 6.46 0 0 Z " fill="#15509A" transform="translate(253,200)"/>
<path d="M0 0 C9 0 9 0 11.19140625 1.96875 C11.87009766 3.22171875 11.87009766 3.22171875 12.5625 4.5 C13.03816406 5.3353125 13.51382813 6.170625 14.00390625 7.03125 C14.33261719 7.6809375 14.66132813 8.330625 15 9 C15.33 6.03 15.66 3.06 16 0 C18.31 0 20.62 0 23 0 C23 6.27 23 12.54 23 19 C15 19 15 19 12.90625 17.5390625 C12.4421875 16.90742188 11.978125 16.27578125 11.5 15.625 C10.77296875 14.68527344 10.77296875 14.68527344 10.03125 13.7265625 C9 12 9 12 9 10 C8.34 10 7.68 10 7 10 C7 13.3 7 16.6 7 20 C4.69 20 2.38 20 0 20 C0 13.4 0 6.8 0 0 Z " fill="#145099" transform="translate(163,199)"/>
<path d="M0 0 C2.64 0 5.28 0 8 0 C8 2.31 8 4.62 8 7 C10.64 7 13.28 7 16 7 C16 4.69 16 2.38 16 0 C18.64 0 21.28 0 24 0 C24 6.6 24 13.2 24 20 C21.36 20 18.72 20 16 20 C16 17.36 16 14.72 16 12 C13.36 12 10.72 12 8 12 C8 14.64 8 17.28 8 20 C5.36 20 2.72 20 0 20 C0 13.4 0 6.8 0 0 Z " fill="#20589E" transform="translate(136,199)"/>
<path d="M0 0 C1.12148437 -0.01675781 2.24296875 -0.03351563 3.3984375 -0.05078125 C6.9421817 0.34821174 8.81631806 1.1456558 11.625 3.3125 C12.4375 6 12.4375 6 12.625 8.3125 C9.985 8.3125 7.345 8.3125 4.625 8.3125 C4.295 7.6525 3.965 6.9925 3.625 6.3125 C1.645 6.3125 -0.335 6.3125 -2.375 6.3125 C-2.375 8.9525 -2.375 11.5925 -2.375 14.3125 C-0.395 14.3125 1.585 14.3125 3.625 14.3125 C3.955 13.6525 4.285 12.9925 4.625 12.3125 C7.265 12.3125 9.905 12.3125 12.625 12.3125 C12.4375 14.625 12.4375 14.625 11.625 17.3125 C6.82407696 20.97659245 2.51524772 20.8611702 -3.328125 20.7421875 C-6.32117034 20.32009136 -7.52380515 20.02633488 -9.625 17.9375 C-12.2130624 14.05540639 -12.74359787 12.0121228 -12.375 7.3125 C-9.49369314 1.2754761 -6.52183932 0.02238618 0 0 Z " fill="#134F99" transform="translate(120.375,198.6875)"/>
<path d="M0 0 C2.31 0 4.62 0 7 0 C7.33 1.65 7.66 3.3 8 5 C8.639375 4.175 9.27875 3.35 9.9375 2.5 C14.02384465 -0.83579155 16.92872936 -0.4971834 22 0 C20.86695008 3.39914975 19.87481525 4.05254451 17 6 C17.58913002 9.38563328 18.73567522 11.12765142 21.0625 13.625 C24 16.79058824 24 16.79058824 24 19 C20.60015156 19.35036606 17.38473858 19.54283543 14 19 C11.5 16 11.5 16 10 13 C9.34 13 8.68 13 8 13 C7.67 14.65 7.34 16.3 7 18 C4.69 18 2.38 18 0 18 C0 12.06 0 6.12 0 0 Z " fill="#0E4B97" transform="translate(202,200)"/>
<path d="M0 0 C2.31 0 4.62 0 7 0 C7.33 4.62 7.66 9.24 8 14 C9.98 14 11.96 14 14 14 C14.33 9.71 14.66 5.42 15 1 C17.31 1 19.62 1 22 1 C22.13494246 3.6058889 22.23402299 6.20482111 22.3125 8.8125 C22.35439453 9.55048828 22.39628906 10.28847656 22.43945312 11.04882812 C22.48828125 13.20703125 22.48828125 13.20703125 22 17 C18.51635407 20.27720765 15.09118398 20.43210755 10.4375 20.4375 C8.76494141 20.46650391 8.76494141 20.46650391 7.05859375 20.49609375 C4 20 4 20 1.61328125 18.48828125 C-0.65873981 14.98397758 -0.4348634 11.77433395 -0.25 7.75 C-0.23195312 7.00492188 -0.21390625 6.25984375 -0.1953125 5.4921875 C-0.14835649 3.66090299 -0.07661652 1.83028351 0 0 Z " fill="#104C97" transform="translate(227,199)"/>
<path d="M0 0 C4.62 0 9.24 0 14 0 C14 6.6 14 13.2 14 20 C11.23547967 21.38226016 8.9538637 21.09525387 5.875 21.0625 C2.966875 21.0315625 2.966875 21.0315625 0 21 C0 14.07 0 7.14 0 0 Z " fill="#034694" transform="translate(3,199)"/>
<path d="M0 0 C6.6 0 13.2 0 20 0 C20 1.32 20 2.64 20 4 C15.71 4 11.42 4 7 4 C7 4.99 7 5.98 7 7 C10.96 7 14.92 7 19 7 C19 8.32 19 9.64 19 11 C15.04 11 11.08 11 7 11 C7 11.99 7 12.98 7 14 C11.29 14 15.58 14 20 14 C20 15.32 20 16.64 20 18 C13.4 18 6.8 18 0 18 C0 12.06 0 6.12 0 0 Z " fill="#094694" transform="translate(87,200)"/>
<path d="M0 0 C6.93 0 13.86 0 21 0 C21 1.32 21 2.64 21 4 C18.69 4 16.38 4 14 4 C14 8.62 14 13.24 14 18 C11.69 18 9.38 18 7 18 C7 13.38 7 8.76 7 4 C4.69 4 2.38 4 0 4 C0 2.68 0 1.36 0 0 Z " fill="#074694" transform="translate(64,200)"/>
<path d="M0 0 C2.64 0 5.28 0 8 0 C8 6.6 8 13.2 8 20 C5.36 20 2.72 20 0 20 C0 13.4 0 6.8 0 0 Z " fill="#24599F" transform="translate(190,199)"/>
<path d="M0 0 C0.33 0 0.66 0 1 0 C1 5.61 1 11.22 1 17 C0.01 16.01 -0.98 15.02 -2 14 C-2 13.01 -2 12.02 -2 11 C-4.64 11 -7.28 11 -10 11 C-10.33 11.99 -10.66 12.98 -11 14 C-12.99954746 14.04254356 -15.00041636 14.04080783 -17 14 C-18 13 -18 13 -18.1328125 11.1875 C-18.13023438 10.465625 -18.12765625 9.74375 -18.125 9 C-18.12757812 8.278125 -18.13015625 7.55625 -18.1328125 6.8125 C-18 5 -18 5 -17 4 C-15.00041636 3.95919217 -12.99954746 3.95745644 -11 4 C-10.67 4.99 -10.34 5.98 -10 7 C-7.36 7 -4.72 7 -2 7 C-2.33 5.68 -2.66 4.36 -3 3 C-2.34 3.33 -1.68 3.66 -1 4 C-0.67 2.68 -0.34 1.36 0 0 Z " fill="#EBF0F6" transform="translate(135,200)"/>
<path d="M0 0 C1.81242052 -0.02687279 3.62495233 -0.04633715 5.4375 -0.0625 C6.44683594 -0.07410156 7.45617187 -0.08570313 8.49609375 -0.09765625 C11 0 11 0 12 1 C12.23693296 4.15158451 12.39590076 7.29544912 12.51757812 10.453125 C12.7065998 14.11943226 12.91643958 15.87465937 15 19 C13.68 19.33 12.36 19.66 11 20 C9.84604289 18.58994275 8.70212534 17.17166542 7.5625 15.75 C6.92441406 14.96109375 6.28632813 14.1721875 5.62890625 13.359375 C4.09494695 11.13752508 3.42869754 9.63256518 3 7 C3.804375 6.38125 4.60875 5.7625 5.4375 5.125 C8.03874519 3.25835959 8.03874519 3.25835959 9 1 C6.03 1 3.06 1 0 1 C0 0.67 0 0.34 0 0 Z " fill="#E5EBF3" transform="translate(215,199)"/>
<path d="M0 0 C0.66 0 1.32 0 2 0 C2 5.94 2 11.88 2 18 C8.6 18 15.2 18 22 18 C22 16.68 22 15.36 22 14 C17.71 14 13.42 14 9 14 C9 13.01 9 12.02 9 11 C12.96 11 16.92 11 21 11 C21.33 9.68 21.66 8.36 22 7 C23.6040687 11.81220611 24.02622323 13.86888386 23 19 C15.74 19 8.48 19 1 19 C0.67 12.73 0.34 6.46 0 0 Z " fill="#B5C7DF" transform="translate(85,200)"/>
<path d="M0 0 C2.475 0.495 2.475 0.495 5 1 C5 3.64 5 6.28 5 9 C3.35 9.33 1.7 9.66 0 10 C0 6.7 0 3.4 0 0 Z " fill="#90B3DC" transform="translate(8,204)"/>
<path d="M0 0 C2.97 0 5.94 0 9 0 C9 1.32 9 2.64 9 4 C6.03 4 3.06 4 0 4 C0 2.68 0 1.36 0 0 Z " fill="#4A75AF" transform="translate(59,210)"/>
<path d="M0 0 C0.33 0 0.66 0 1 0 C1 2.31 1 4.62 1 7 C-0.65 7.66 -2.3 8.32 -4 9 C-2.94124926 5.59687262 -1.99097846 2.98646769 0 0 Z " fill="#25599F" transform="translate(248,62)"/>
<path d="M0 0 C0.33 0 0.66 0 1 0 C1 3.3 1 6.6 1 10 C0.01 9.67 -0.98 9.34 -2 9 C-1.34 6.03 -0.68 3.06 0 0 Z " fill="#E4EAF3" transform="translate(272,209)"/>
</svg>
