<?xml version="1.0" encoding="UTF-8"?>
<svg version="1.1" xmlns="http://www.w3.org/2000/svg" width="282" height="212">
<path d="M0 0 C2.11703853 0.01493674 4.23410487 0.02631699 6.35118103 0.03430176 C11.9003143 0.06472271 17.44774954 0.1431997 22.99621582 0.23193359 C28.66716546 0.31404174 34.33839181 0.35036653 40.00976562 0.390625 C51.12053423 0.47620321 62.23004733 0.61258873 73.33984375 0.78125 C73.34570999 1.89323257 73.35157623 3.00521515 73.35762024 4.15089417 C73.41488743 14.64146624 73.48767013 25.13183182 73.57555866 35.62219334 C73.6202444 41.01512209 73.65950464 46.40797561 73.6862793 51.80102539 C73.71232997 57.00774963 73.75274524 62.21418408 73.80303001 67.42072868 C73.81968673 69.40495124 73.83120844 71.38922391 73.83745766 73.37350655 C73.84711164 76.1575963 73.87518668 78.94094667 73.9074707 81.72485352 C73.90603561 82.54125305 73.90460052 83.35765259 73.90312195 84.1987915 C73.99918796 90.0746747 75.02491982 94.86243288 78.77734375 99.59375 C81.86907438 101.94346528 84.49513668 103.02908789 88.38273621 103.05299377 C89.17772018 103.0627121 89.97270416 103.07243042 90.79177856 103.08244324 C91.65479584 103.08303238 92.51781311 103.08362152 93.40698242 103.08422852 C94.32279587 103.09266785 95.23860931 103.10110718 96.18217468 103.10980225 C99.20739256 103.13558104 102.23251295 103.14771859 105.2578125 103.16015625 C107.35721107 103.17632722 109.45660209 103.19350679 111.5559845 103.21165466 C117.08096846 103.25734962 122.60596239 103.29215592 128.13104248 103.32385254 C136.98598172 103.3757298 145.84081058 103.44069051 154.69561195 103.51206779 C157.79618467 103.53497797 160.89674315 103.55119702 163.99736023 103.56678772 C165.88520466 103.58018773 167.77304759 103.59380195 169.66088867 103.60766602 C170.52997864 103.61027939 171.3990686 103.61289276 172.29449463 103.61558533 C178.2262053 103.66761155 178.2262053 103.66761155 179.33984375 104.78125 C179.45107421 107.63546425 179.49724381 110.46570257 179.50097656 113.32080078 C179.50594147 114.21678482 179.51090637 115.11276886 179.51602173 116.03590393 C179.53068988 119.01613114 179.53745472 121.99630504 179.54296875 124.9765625 C179.54871847 127.04344688 179.55447622 129.11033124 179.5602417 131.17721558 C179.57076634 135.52016448 179.57659873 139.86309481 179.58007812 144.20605469 C179.58555153 149.76449749 179.60954871 155.32269393 179.63805008 160.88105965 C179.6567029 165.15508736 179.66188358 169.42905621 179.663414 173.70312119 C179.66643747 175.7515891 179.67445568 177.80005606 179.68759918 179.84848404 C179.70470703 182.72095486 179.70276725 185.59283053 179.69628906 188.46533203 C179.70550385 189.30821274 179.71471863 190.15109344 179.72421265 191.01951599 C179.67903878 197.43318367 178.65886049 201.95861727 174.55383778 206.95511913 C166.81499665 214.46634317 158.25955171 213.91048455 148.18139648 213.80053711 C146.35216327 213.80975273 144.52294458 213.82238304 142.6937561 213.83815002 C137.74922034 213.87022003 132.80605541 213.85216701 127.86154819 213.82292247 C122.67542183 213.79885904 117.48938991 213.81481235 112.30323792 213.82460022 C103.59687813 213.83456438 94.89106692 213.81157725 86.18481445 213.76928711 C76.13244209 213.72089685 66.08117243 213.72622392 56.02876514 213.7599811 C46.33983738 213.79114267 36.65131929 213.78272168 26.96238899 213.75689888 C22.84726275 213.74670882 18.73250727 213.75055371 14.61739922 213.76588249 C9.76841406 213.78226048 4.9207446 213.76395738 0.07194901 213.71935081 C-1.70289737 213.70853651 -3.47786225 213.70949369 -5.25268745 213.72335434 C-21.36968715 213.83606802 -21.36968715 213.83606802 -27.93461514 207.96369267 C-32.38106681 202.3398766 -34.26120264 198.18191057 -34.16136169 190.99449158 C-34.16689609 190.24137036 -34.17243049 189.48824915 -34.17813259 188.71230608 C-34.19167613 186.20491585 -34.17680501 183.69853197 -34.16186523 181.19116211 C-34.16565068 179.38707559 -34.17115259 177.58299198 -34.17823792 175.77891541 C-34.19217932 170.89052917 -34.18103238 166.00249542 -34.1645267 161.11412883 C-34.15065933 155.99466737 -34.15713813 150.87522603 -34.16065979 145.75575256 C-34.16336033 137.16027151 -34.14989887 128.56493022 -34.12670898 119.96948242 C-34.1000918 110.03498257 -34.09835544 100.10071625 -34.11009735 90.16619295 C-34.12087938 80.60390929 -34.11468525 71.04171002 -34.10054207 61.47943306 C-34.09478682 57.41217616 -34.09486131 53.34498111 -34.09960747 49.27772331 C-34.10438258 44.48828352 -34.09425338 39.69909923 -34.07265282 34.90970802 C-34.06709238 33.15293108 -34.06661283 31.39612954 -34.07160568 29.63935089 C-34.07757014 27.23962612 -34.06503175 24.84067951 -34.0478363 22.44102478 C-34.05384635 21.74734218 -34.05985639 21.05365958 -34.06604856 20.3389563 C-33.98335794 13.98452713 -31.55735131 9.11104001 -27.32641602 4.45507812 C-19.78270793 -1.90385394 -9.28466683 -0.192522 0 0 Z " fill="#48B5A1" transform="translate(67.66015625,-0.78125)"/>
<path d="M0 0 C7.54498233 -0.02312851 15.08996101 -0.04091769 22.63497066 -0.05181217 C26.13808885 -0.05703989 29.64118285 -0.0641355 33.14428711 -0.07543945 C37.16780841 -0.08834206 41.19130414 -0.09322912 45.21484375 -0.09765625 C46.47836166 -0.10281754 47.74187958 -0.10797882 49.04368591 -0.11329651 C50.204814 -0.11337204 51.36594208 -0.11344757 52.56225586 -0.11352539 C54.1044706 -0.11685631 54.1044706 -0.11685631 55.67784119 -0.12025452 C58 0 58 0 59 1 C59.11123046 3.85421425 59.15740006 6.68445257 59.16113281 9.53955078 C59.16609772 10.43553482 59.17106262 11.33151886 59.17617798 12.25465393 C59.19084613 15.23488114 59.19761097 18.21505504 59.203125 21.1953125 C59.20887472 23.26219688 59.21463247 25.32908124 59.22039795 27.39596558 C59.23092259 31.73891448 59.23675498 36.08184481 59.24023438 40.42480469 C59.24570778 45.98324749 59.26970496 51.54144393 59.29820633 57.09980965 C59.31685915 61.37383736 59.32203983 65.64780621 59.32357025 69.92187119 C59.32659372 71.9703391 59.33461193 74.01880606 59.34775543 76.06723404 C59.36486328 78.93970486 59.3629235 81.81158053 59.35644531 84.68408203 C59.37026749 85.94840309 59.37026749 85.94840309 59.3843689 87.23826599 C59.33902773 93.67568621 58.13749115 98.13471346 54.21057129 103.39871216 C45.90673085 110.9647008 36.94304972 110.13279199 26.34375 109.9921875 C24.43143494 109.99249798 22.51911863 109.99548419 20.60681152 110.00100708 C16.61214084 110.00376572 12.61891454 109.97882346 8.62451172 109.93310547 C3.52672359 109.87633337 -1.56866806 109.8818206 -6.66663361 109.90728569 C-10.61155351 109.92125466 -14.555928 109.90555968 -18.5007782 109.88077164 C-20.37926638 109.87179594 -22.25781367 109.87102205 -24.13630676 109.87890244 C-42.7107479 109.92035883 -42.7107479 109.92035883 -51 103 C-51.98613281 102.28714844 -52.97226563 101.57429688 -53.98828125 100.83984375 C-58.20155421 97.39133294 -62.26349907 93.96295553 -66 90 C-66.598125 89.443125 -67.19625 88.88625 -67.8125 88.3125 C-69 87 -69 87 -69 85 C-70.485 84.505 -70.485 84.505 -72 84 C-73.1875 81.4375 -73.1875 81.4375 -74 79 C-74.66 79 -75.32 79 -76 79 C-78.35119399 75.47320901 -78.21443452 73.97120515 -78.125 69.8125 C-78.10695313 68.72582031 -78.08890625 67.63914062 -78.0703125 66.51953125 C-78.04710938 65.68808594 -78.02390625 64.85664063 -78 64 C-79.9490625 64.2165625 -79.9490625 64.2165625 -81.9375 64.4375 C-82.66839844 64.51871094 -83.39929688 64.59992188 -84.15234375 64.68359375 C-86.01140229 64.81886614 -86.01140229 64.81886614 -87 66 C-87.23363881 67.84891946 -87.41303635 69.70488031 -87.5625 71.5625 C-87.68818359 73.08037109 -87.68818359 73.08037109 -87.81640625 74.62890625 C-87.87699219 75.41136719 -87.93757813 76.19382812 -88 77 C-89.65 77 -91.3 77 -93 77 C-93 71.06 -93 65.12 -93 59 C-88.38 59 -83.76 59 -79 59 C-78.67 57.68 -78.34 56.36 -78 55 C-77 54 -77 54 -74.4375 53.9375 C-73.633125 53.958125 -72.82875 53.97875 -72 54 C-72 55.65 -72 57.3 -72 59 C-65.83726662 58.53176998 -61.37909214 57.12121836 -55.9375 54.25 C-55.26912109 53.91484375 -54.60074219 53.5796875 -53.91210938 53.234375 C-50.45046681 51.45813858 -47.26748019 49.53734931 -44.12890625 47.234375 C-41 45 -41 45 -39 45 C-39 44.01 -39 43.02 -39 42 C-39.99 42 -40.98 42 -42 42 C-42 37.05 -42 32.1 -42 27 C-43.32 27.33 -44.64 27.66 -46 28 C-46.33 32.29 -46.66 36.58 -47 41 C-48.65 41 -50.3 41 -52 41 C-52 35.39 -52 29.78 -52 24 C-48.3803125 23.8453125 -48.3803125 23.8453125 -44.6875 23.6875 C-43.93170654 23.64197998 -43.17591309 23.59645996 -42.3972168 23.54956055 C-40.57421875 23.51171875 -40.57421875 23.51171875 -37 24 C-35.08203125 26.39453125 -35.08203125 26.39453125 -34 29 C-33.505 29.99 -33.505 29.99 -33 31 C-32.9175 30.236875 -32.835 29.47375 -32.75 28.6875 C-32 26 -32 26 -30.375 24.1875 C-27.16936005 22.58468003 -24.5581828 22.93865202 -21 23 C-15.09264917 21.8121088 -12.78046003 18.93488289 -9.375 14.3125 C-8.67890625 13.41241211 -8.67890625 13.41241211 -7.96875 12.49414062 C-4.93293419 8.50212859 -2.45663999 4.37007872 0 0 Z " fill="#7DC964" transform="translate(188,103)"/>
<path d="M0 0 C28.71 0 57.42 0 87 0 C87 20.13 87 40.26 87 61 C58.29 61 29.58 61 0 61 C0 40.87 0 20.74 0 0 Z " fill="#90D033" transform="translate(160,0)"/>
<path d="M0 0 C0.99 0 1.98 0 3 0 C3 0.66 3 1.32 3 2 C4.32064453 2.18175781 4.32064453 2.18175781 5.66796875 2.3671875 C7.41013672 2.61855469 7.41013672 2.61855469 9.1875 2.875 C10.33605469 3.03742188 11.48460937 3.19984375 12.66796875 3.3671875 C16 4 16 4 21 6 C21 11.61 21 17.22 21 23 C22.98 23 24.96 23 27 23 C27 20.03 27 17.06 27 14 C27.66 14.33 28.32 14.66 29 15 C34.5395843 15.48445696 34.5395843 15.48445696 39.5 13.5 C39.995 13.005 40.49 12.51 41 12 C41.66 12.66 42.32 13.32 43 14 C45.27189433 14.20542085 45.27189433 14.20542085 47.8125 14.0625 C51.37300185 13.9852098 54.53181428 14.07515047 58 15 C58 12.03 58 9.06 58 6 C58.99 6 59.98 6 61 6 C61 8.97 61 11.94 61 15 C62.65 15 64.3 15 66 15 C65.97679688 14.22914063 65.95359375 13.45828125 65.9296875 12.6640625 C65.91164063 11.66117188 65.89359375 10.65828125 65.875 9.625 C65.85179688 8.62726563 65.82859375 7.62953125 65.8046875 6.6015625 C66 4 66 4 68 2 C70.68839385 1.73008094 73.29141936 1.91262643 76 2 C76.06058594 2.83144531 76.12117188 3.66289062 76.18359375 4.51953125 C76.26738281 5.60621094 76.35117188 6.69289062 76.4375 7.8125 C76.51871094 8.89144531 76.59992188 9.97039062 76.68359375 11.08203125 C76.90212461 14.05989905 76.90212461 14.05989905 78 17 C78.66 17 79.32 17 80 17 C81.5 19.5 81.5 19.5 83 22 C83.845625 22.845625 84.69125 23.69125 85.5625 24.5625 C88 27 88 27 89.0625 29.1875 C89.84011157 31.12910212 89.84011157 31.12910212 91.6953125 31.83984375 C94.69440168 33.34955474 97.15683279 35.32273856 99.8125 37.375 C104.04989562 40.61517103 108.26861901 43.52677812 113 46 C113 46.33 113 46.66 113 47 C100.11724619 47.16243474 87.23473735 47.28669396 74.35116673 47.3626852 C68.36826378 47.39916386 62.3860632 47.44861767 56.40356445 47.52807617 C50.62633839 47.60432509 44.84978642 47.64603064 39.07209587 47.6641407 C36.87167694 47.67704076 34.6712935 47.70223232 32.4711628 47.7401104 C13.06853531 48.06076297 13.06853531 48.06076297 7.32788086 43.89477539 C5.46806335 41.96853638 5.46806335 41.96853638 4 40 C3.31409538 39.13723953 3.31409538 39.13723953 2.61433411 38.25704956 C-0.21392494 34.08332188 -0.53739556 29.97247925 -0.390625 25.09765625 C-0.38496521 24.3750914 -0.37930542 23.65252655 -0.37347412 22.9080658 C-0.35128257 20.62550414 -0.30112549 18.34457802 -0.25 16.0625 C-0.22991244 14.50458014 -0.21166564 12.9466354 -0.1953125 11.38867188 C-0.1514753 7.5918285 -0.08257421 3.79619043 0 0 Z " fill="#3FB06E" transform="translate(34,165)"/>
<path d="M0 0 C12.51316559 -0.41252194 12.51316559 -0.41252194 17 3 C18.8125 6.1875 18.8125 6.1875 20 9 C20.99 6.03 21.98 3.06 23 0 C25.64 0 28.28 0 31 0 C31.33 0.66 31.66 1.32 32 2 C32.33 1.34 32.66 0.68 33 0 C45.87 0 58.74 0 72 0 C75 9 75 9 75 12 C75.66 12 76.32 12 77 12 C77.33 10.02 77.66 8.04 78 6 C77.01 6 76.02 6 75 6 C75 4.02 75 2.04 75 0 C78.96 0 82.92 0 87 0 C86.46261823 5.22603767 85.16986725 9.57468046 83 14.375 C82.72671875 15.00277344 82.4534375 15.63054687 82.171875 16.27734375 C80.16276544 20.83723456 80.16276544 20.83723456 79 22 C77.00041636 22.04080783 74.99954746 22.04254356 73 22 C71.9955866 19.7101766 70.99632388 17.4183401 70 15.125 C69.71382813 14.47402344 69.42765625 13.82304688 69.1328125 13.15234375 C67 8.2265625 67 8.2265625 67 6 C66.34 6.33 65.68 6.66 65 7 C65.495 7.495 65.495 7.495 66 8 C66.125 10.5 66.125 10.5 66 13 C65 14 65 14 61.4375 14.0625 C60.303125 14.041875 59.16875 14.02125 58 14 C58 14.99 58 15.98 58 17 C60.97 17 63.94 17 67 17 C67 18.65 67 20.3 67 22 C61.72 22 56.44 22 51 22 C51 16.72 51 11.44 51 6 C49.35 6 47.7 6 46 6 C46 11.28 46 16.56 46 22 C43.69 22 41.38 22 39 22 C39 16.72 39 11.44 39 6 C37.35 6.33 35.7 6.66 34 7 C34.28875 7.74765625 34.5775 8.4953125 34.875 9.265625 C35.24625 10.25046875 35.6175 11.2353125 36 12.25 C36.37125 13.22453125 36.7425 14.1990625 37.125 15.203125 C38 18 38 18 38 22 C33.71 22 29.42 22 25 22 C25 20.35 25 18.7 25 17 C26.32 16.67 27.64 16.34 29 16 C28.67 14.35 28.34 12.7 28 11 C27.34 11 26.68 11 26 11 C25.79503906 11.71027344 25.59007812 12.42054687 25.37890625 13.15234375 C25.10949219 14.07144531 24.84007812 14.99054688 24.5625 15.9375 C24.29566406 16.85402344 24.02882812 17.77054688 23.75390625 18.71484375 C23 21 23 21 22 22 C20.00041636 22.04080783 17.99954746 22.04254356 16 22 C15.67 21.34 15.34 20.68 15 20 C14.01 20.66 13.02 21.32 12 22 C7.98500069 22.26874159 4.02862593 22.08663712 0 22 C0 14.74 0 7.48 0 0 Z M6 6 C6 9.3 6 12.6 6 16 C7.98 15.67 9.96 15.34 12 15 C12.76716851 12.14921909 12.76716851 12.14921909 13 9 C11.93654948 7.01970318 11.93654948 7.01970318 10 6 C8.68 6 7.36 6 6 6 Z " fill="#029999" transform="translate(160,63)"/>
<path d="M0 0 C2.248125 -0.04125 4.49625 -0.0825 6.8125 -0.125 C8.07707031 -0.14820312 9.34164062 -0.17140625 10.64453125 -0.1953125 C14 0 14 0 17 2 C17.1875 5.625 17.1875 5.625 17 9 C16.01 9.33 15.02 9.66 14 10 C14 10.66 14 11.32 14 12 C15.32 12.66 16.64 13.32 18 14 C18.25 16.8125 18.25 16.8125 18 20 C15.56331062 22.63162453 14.1529467 22.98702375 10.546875 23.29296875 C7.03125 23.1953125 3.515625 23.09765625 0 23 C0 15.41 0 7.82 0 0 Z " fill="#EFF7F5" transform="translate(56,121)"/>
<path d="M0 0 C2.31 0.33 4.62 0.66 7 1 C7.33 0.67 7.66 0.34 8 0 C10.31 0 12.62 0 15 0 C15 8.58 15 17.16 15 26 C9 26 9 26 7 25 C4.69 25 2.38 25 0 25 C0 16.75 0 8.5 0 0 Z " fill="#81C9B1" transform="translate(77,119)"/>
<path d="M0 0 C0.99 0.33 1.98 0.66 3 1 C4.66621616 1.03874921 6.33394172 1.0450286 8 1 C8.08120751 3.89640118 8.14059421 6.79050912 8.1875 9.6875 C8.21263672 10.50412109 8.23777344 11.32074219 8.26367188 12.16210938 C8.32173421 16.9425753 8.16104605 20.14632382 5 24 C1.68629 26.20914 0.6553979 26.22481553 -3.1875 26.125 C-4.08855469 26.10695312 -4.98960937 26.08890625 -5.91796875 26.0703125 C-6.60503906 26.04710937 -7.29210937 26.02390625 -8 26 C-8 24.68 -8 23.36 -8 22 C-5.03 21.67 -2.06 21.34 1 21 C1.33 20.01 1.66 19.02 2 18 C0.7625 18.103125 -0.475 18.20625 -1.75 18.3125 C-5.04626073 18.28912226 -5.78068715 18.16996746 -8.5 16.0625 C-10.51160627 11.95547053 -10.97164048 8.48964911 -10 4 C-6.96380374 0.44331296 -4.62823907 -0.60897882 0 0 Z " fill="#E7F4E9" transform="translate(165,126)"/>
<path d="M0 0 C1.98 0 3.96 0 6 0 C6 8.58 6 17.16 6 26 C3.586875 26.103125 1.17375 26.20625 -1.3125 26.3125 C-2.44619019 26.38078003 -2.44619019 26.38078003 -3.6027832 26.45043945 C-5.42578125 26.48828125 -5.42578125 26.48828125 -9 26 C-12.06818356 22.44188693 -12.46306712 19.45197395 -12.30078125 14.93359375 C-11.7998267 11.71317165 -10.28310529 9.28310529 -8 7 C-5.32941149 6.85884839 -2.67567762 6.95752893 0 7 C0 4.69 0 2.38 0 0 Z " fill="#E2F2EB" transform="translate(106,119)"/>
<path d="M0 0 C3.1875 0.3125 3.1875 0.3125 5.5625 1.6875 C8.01994866 5.65722475 7.99721291 9.76060038 7.1875 14.3125 C5.921875 16.609375 5.921875 16.609375 4.1875 18.3125 C1.42607697 18.84049676 -0.97615545 18.49848981 -3.8125 18.3125 C-4.1425 20.9525 -4.4725 23.5925 -4.8125 26.3125 C-6.4625 26.3125 -8.1125 26.3125 -9.8125 26.3125 C-9.8125 18.0625 -9.8125 9.8125 -9.8125 1.3125 C-7.8325 1.3125 -5.8525 1.3125 -3.8125 1.3125 C-2.8125 0.3125 -2.8125 0.3125 0 0 Z " fill="#EAF5F0" transform="translate(65.8125,161.6875)"/>
<path d="M0 0 C0 1.65 0 3.3 0 5 C0.99 5 1.98 5 3 5 C3 5.99 3 6.98 3 8 C2.01 8 1.02 8 0 8 C0 11.63 0 15.26 0 19 C1.32 19 2.64 19 4 19 C4 19.99 4 20.98 4 22 C-2.15234375 22.09765625 -2.15234375 22.09765625 -4 22 C-5 21 -5 21 -5.09765625 18.27734375 C-5.08605469 17.17519531 -5.07445313 16.07304687 -5.0625 14.9375 C-5.05347656 13.83277344 -5.04445313 12.72804687 -5.03515625 11.58984375 C-5.02355469 10.73519531 -5.01195313 9.88054687 -5 9 C-6.299375 9.144375 -7.59875 9.28875 -8.9375 9.4375 C-9.66839844 9.51871094 -10.39929688 9.59992188 -11.15234375 9.68359375 C-13.01140229 9.81886614 -13.01140229 9.81886614 -14 11 C-14.23363881 12.84891946 -14.41303635 14.70488031 -14.5625 16.5625 C-14.64628906 17.57441406 -14.73007813 18.58632812 -14.81640625 19.62890625 C-14.87699219 20.41136719 -14.93757813 21.19382813 -15 22 C-16.65 22 -18.3 22 -20 22 C-20 16.06 -20 10.12 -20 4 C-15.38 4 -10.76 4 -6 4 C-6 3.01 -6 2.02 -6 1 C-3 0 -3 0 0 0 Z " fill="#F4F9F5" transform="translate(115,158)"/>
<path d="M0 0 C1.43739513 -0.02712066 2.87493863 -0.04645067 4.3125 -0.0625 C5.51326172 -0.07990234 5.51326172 -0.07990234 6.73828125 -0.09765625 C9 0 9 0 12 1 C13.53266582 4.06533164 13.10276471 7.26754272 13.0625 10.625 C13.05798828 11.33140625 13.05347656 12.0378125 13.04882812 12.765625 C13.03703875 14.51045275 13.01910324 16.255237 13 18 C10.70858714 18.05384521 8.41681812 18.09272087 6.125 18.125 C4.84882812 18.14820313 3.57265625 18.17140625 2.2578125 18.1953125 C-1 18 -1 18 -3 16 C-3.125 12.875 -3.125 12.875 -3 10 C0.85756507 7.84694043 3.55129785 6.60746746 8 7 C7.67 6.34 7.34 5.68 7 5 C5.10466658 4.53476937 5.10466658 4.53476937 2.9375 4.375 C1.638125 4.25125 0.33875 4.1275 -1 4 C-0.67 2.68 -0.34 1.36 0 0 Z " fill="#F7FBF8" transform="translate(78,162)"/>
<path d="M0 0 C2.4375 1.5625 2.4375 1.5625 4 4 C4.25 7.75 4.25 7.75 4 11 C0.37 11 -3.26 11 -7 11 C-5.39519216 14.12606964 -5.39519216 14.12606964 -3.0546875 14.51171875 C-1.97574219 14.59873047 -1.97574219 14.59873047 -0.875 14.6875 C0.40375 14.790625 1.6825 14.89375 3 15 C3 15.99 3 16.98 3 18 C-6.96145401 18.77287143 -6.96145401 18.77287143 -10.6875 16 C-12.3699783 12.15433532 -12.94776539 9.1236108 -12 5 C-8.63554266 0.10624387 -5.8387112 -0.95542547 0 0 Z " fill="#ECF6EC" transform="translate(153,162)"/>
<path d="M0 0 C3.4375 0.25 3.4375 0.25 7 1 C9.49118953 4.7367843 9.2065226 6.74451819 9.125 11.1875 C9.10695312 12.45980469 9.08890625 13.73210937 9.0703125 15.04296875 C9.04710937 16.01878906 9.02390625 16.99460938 9 18 C7.02 18 5.04 18 3 18 C3 13.38 3 8.76 3 4 C1.68 4.33 0.36 4.66 -1 5 C-1.33 9.29 -1.66 13.58 -2 18 C-3.65 18 -5.3 18 -7 18 C-7 12.39 -7 6.78 -7 1 C-5.02 1 -3.04 1 -1 1 C-0.67 0.67 -0.34 0.34 0 0 Z " fill="#E6F3E8" transform="translate(129,162)"/>
<path d="M0 0 C1.65 0 3.3 0 5 0 C5.33 4.29 5.66 8.58 6 13 C7.32 13.33 8.64 13.66 10 14 C10.33 9.38 10.66 4.76 11 0 C12.65 0 14.3 0 16 0 C16 5.61 16 11.22 16 17 C14.68 17 13.36 17 12 17 C12 16.34 12 15.68 12 15 C11.46375 15.495 10.9275 15.99 10.375 16.5 C7.34860502 18.41140736 5.51843231 18.45892595 2 18 C-0.45391569 14.31912647 -0.22802759 11.55644412 -0.125 7.3125 C-0.11597656 6.61060547 -0.10695313 5.90871094 -0.09765625 5.18554688 C-0.07413704 3.45688475 -0.03826713 1.72839855 0 0 Z " fill="#EDF6F1" transform="translate(116,127)"/>
<path d="M0 0 C2.26875 -0.061875 4.5375 -0.12375 6.875 -0.1875 C8.78925781 -0.23970703 8.78925781 -0.23970703 10.7421875 -0.29296875 C11.81726563 -0.19628906 12.89234375 -0.09960938 14 0 C16.49118953 3.7367843 16.2065226 5.74451819 16.125 10.1875 C16.10695312 11.45980469 16.08890625 12.73210937 16.0703125 14.04296875 C16.04710937 15.01878906 16.02390625 15.99460938 16 17 C14.35 17 12.7 17 11 17 C10.67 12.71 10.34 8.42 10 4 C8.68 4 7.36 4 6 4 C5.67 8.29 5.34 12.58 5 17 C3.35 17 1.7 17 0 17 C0 11.39 0 5.78 0 0 Z " fill="#F4F9F5" transform="translate(136,127)"/>
<path d="M0 0 C1.65 0 3.3 0 5 0 C5.08120751 2.89640118 5.14059421 5.79050912 5.1875 8.6875 C5.21263672 9.50412109 5.23777344 10.32074219 5.26367188 11.16210938 C5.32173421 15.9425753 5.16104605 19.14632382 2 23 C-1.31371 25.20914 -2.3446021 25.22481553 -6.1875 25.125 C-7.08855469 25.10695312 -7.98960937 25.08890625 -8.91796875 25.0703125 C-9.60503906 25.04710937 -10.29210937 25.02390625 -11 25 C-11 23.68 -11 22.36 -11 21 C-8.03 20.67 -5.06 20.34 -2 20 C-0.99948405 13.99690429 -0.03993777 7.88018669 -2 2 C-1.34 2 -0.68 2 0 2 C0 1.34 0 0.68 0 0 Z " fill="#F3F9F3" transform="translate(168,127)"/>
<path d="M0 0 C0.33 1.32 0.66 2.64 1 4 C-1.31 4 -3.62 4 -6 4 C-6 4.99 -6 5.98 -6 7 C-5.236875 7.103125 -4.47375 7.20625 -3.6875 7.3125 C-0.750546 8.06381381 0.40238809 8.42606971 2 11 C1.8125 14.125 1.8125 14.125 1 17 C-1.52475462 18.26237731 -3.31200466 18.09856404 -6.125 18.0625 C-7.03507813 18.05347656 -7.94515625 18.04445312 -8.8828125 18.03515625 C-9.93082031 18.01775391 -9.93082031 18.01775391 -11 18 C-11 16.68 -11 15.36 -11 14 C-8.36 14.33 -5.72 14.66 -3 15 C-3 14.01 -3 13.02 -3 12 C-3.94875 11.71125 -4.8975 11.4225 -5.875 11.125 C-9 10 -9 10 -11 8 C-11.375 5.5625 -11.375 5.5625 -11 3 C-7.85004477 -0.65394807 -4.57703263 -0.26405958 0 0 Z " fill="#ECF6EC" transform="translate(187,126)"/>
<path d="M0 0 C3.66666667 0 7.33333333 0 11 0 C11 1.65 11 3.3 11 5 C9.35 5.66 7.7 6.32 6 7 C5.67 10.63 5.34 14.26 5 18 C3.35 18 1.7 18 0 18 C0 12.06 0 6.12 0 0 Z " fill="#EBF6EB" transform="translate(160,162)"/>
<path d="M0 0 C1.11772247 3.35316742 0.85096806 5.59612776 0 9 C-0.185625 9.763125 -0.37125 10.52625 -0.5625 11.3125 C-0.7790625 12.1478125 -0.7790625 12.1478125 -1 13 C-7.0546875 13.1953125 -7.0546875 13.1953125 -9 13 C-11 11 -11 11 -11.125 7.875 C-11.08375 6.92625 -11.0425 5.9775 -11 5 C-7.14243493 2.84694043 -4.44870215 1.60746746 0 2 C0 1.34 0 0.68 0 0 Z " fill="#E6F3EC" transform="translate(86,167)"/>
<path d="M0 0 C2.64 0 5.28 0 8 0 C7.01 0.66 6.02 1.32 5 2 C4.42251197 3.96361864 4.42251197 3.96361864 4.3125 6.125 C4.1578125 8.043125 4.1578125 8.043125 4 10 C4.99 10.33 5.98 10.66 7 11 C6.01 11 5.02 11 4 11 C4 13.64 4 16.28 4 19 C5.65 19 7.3 19 9 19 C8.67 19.66 8.34 20.32 8 21 C5.36 21 2.72 21 0 21 C0 14.07 0 7.14 0 0 Z " fill="#FDFDFD" transform="translate(57,122)"/>
<path d="M0 0 C1.32 0 2.64 0 4 0 C4 8.25 4 16.5 4 25 C2.68 25 1.36 25 0 25 C0 16.75 0 8.5 0 0 Z " fill="#FAFCFB" transform="translate(87,119)"/>
<path d="M0 0 C0.99 0 1.98 0 3 0 C3 7.92 3 15.84 3 24 C2.01 24 1.02 24 0 24 C0 23.34 0 22.68 0 22 C-0.99 22.33 -1.98 22.66 -3 23 C-2.835 22.484375 -2.67 21.96875 -2.5 21.4375 C-1.61495559 17.12290849 -1.60708716 13.17873852 -3 9 C-2.01 9 -1.02 9 0 9 C0 6.03 0 3.06 0 0 Z " fill="#FAFCFB" transform="translate(108,120)"/>
<path d="M0 0 C6 1 6 1 9 3 C8.01 3.33 7.02 3.66 6 4 C5.67 8.29 5.34 12.58 5 17 C3.35 17 1.7 17 0 17 C0 11.39 0 5.78 0 0 Z " fill="#EFF7F1" transform="translate(122,163)"/>
<path d="M0 0 C1.65 0 3.3 0 5 0 C5 5.94 5 11.88 5 18 C3.35 18 1.7 18 0 18 C0 12.06 0 6.12 0 0 Z " fill="#ECF6F2" transform="translate(77,126)"/>
<path d="M0 0 C1.65 0 3.3 0 5 0 C5 5.61 5 11.22 5 17 C3.68 17 2.36 17 1 17 C1 16.34 1 15.68 1 15 C0.01 15.33 -0.98 15.66 -2 16 C-1.34 10.72 -0.68 5.44 0 0 Z " fill="#F6FAF8" transform="translate(127,127)"/>
<path d="M0 0 C0.33 0.99 0.66 1.98 1 3 C1.66 3 2.32 3 3 3 C3.20625 3.928125 3.4125 4.85625 3.625 5.8125 C4.74446192 9.26004095 4.74446192 9.26004095 8.125 10.875 C9.07375 11.24625 10.0225 11.6175 11 12 C11 12.99 11 13.98 11 15 C5.25 15.125 5.25 15.125 3 14 C2.87625 14.804375 2.7525 15.60875 2.625 16.4375 C2.315625 17.7059375 2.315625 17.7059375 2 19 C1.34 19.33 0.68 19.66 0 20 C0 13.4 0 6.8 0 0 Z " fill="#6AC06E" transform="translate(173,126)"/>
<path d="M0 0 C0.92280958 2.76842873 1.08370673 4.28943441 1 7.125 C1 8.40375 1 9.6825 1 11 C2.49743119 12.49743119 3.98824239 12.33202693 6.0625 12.5625 C7.361875 12.706875 8.66125 12.85125 10 13 C10 13.99 10 14.98 10 16 C8.22992286 16.08114106 6.45877902 16.13925505 4.6875 16.1875 C3.70136719 16.22230469 2.71523437 16.25710937 1.69921875 16.29296875 C-1 16 -1 16 -2.828125 14.765625 C-5.01462205 11.47130278 -4.64938879 7.78696201 -4 4 C-2 1.4375 -2 1.4375 0 0 Z " fill="#F4FAF5" transform="translate(146,164)"/>
<path d="M0 0 C0.99 0 1.98 0 3 0 C3 0.66 3 1.32 3 2 C3.99 1.34 4.98 0.68 6 0 C6.99 0 7.98 0 9 0 C9 0.99 9 1.98 9 3 C8.35546875 3.43957031 7.7109375 3.87914062 7.046875 4.33203125 C4.73939157 5.8620709 4.73939157 5.8620709 4.390625 8.69921875 C4.34421875 9.68535156 4.2978125 10.67148438 4.25 11.6875 C4.19328125 12.68136719 4.1365625 13.67523438 4.078125 14.69921875 C4.05234375 15.45847656 4.0265625 16.21773437 4 17 C2.68 17 1.36 17 0 17 C0 11.39 0 5.78 0 0 Z " fill="#F8FBF9" transform="translate(96,163)"/>
<path d="M0 0 C0.99 0 1.98 0 3 0 C6.13765519 6.27531037 3.82256258 16.22854734 3 23 C2.01 23 1.02 23 0 23 C0 15.41 0 7.82 0 0 Z " fill="#FAFCFB" transform="translate(57,164)"/>
<path d="M0 0 C3.67405814 2.4493721 3.86099285 3.85963012 5.125 8 C6.34456641 12.08773539 6.34456641 12.08773539 8 16 C5.0534615 17.80066242 2.11198065 19.50163895 -1 21 C-1 20.01 -1 19.02 -1 18 C-1.99 18 -2.98 18 -4 18 C-4 13.38 -4 8.76 -4 4 C-3.67 4 -3.34 4 -3 4 C-3 8.29 -3 12.58 -3 17 C-1.35 17 0.3 17 2 17 C1.85899143 14.72886197 1.71203245 12.45809275 1.5625 10.1875 C1.48128906 8.92292969 1.40007812 7.65835938 1.31640625 6.35546875 C1.12815453 3.00818107 1.12815453 3.00818107 0 0 Z " fill="#85CC96" transform="translate(150,127)"/>
<path d="M0 0 C4.70588235 0.70588235 4.70588235 0.70588235 6 2 C6.1875 5.4375 6.1875 5.4375 6 9 C5.34 9.66 4.68 10.32 4 11 C1.375 10.625 1.375 10.625 -1 10 C-1.02689216 8.52093108 -1.04634621 7.04172517 -1.0625 5.5625 C-1.07410156 4.73878906 -1.08570313 3.91507813 -1.09765625 3.06640625 C-1 1 -1 1 0 0 Z " fill="#6DC3A2" transform="translate(62,166)"/>
<path d="M0 0 C2.01822917 0.06510417 4.03645833 0.13020833 6.0546875 0.1953125 C6.0546875 3.8253125 6.0546875 7.4553125 6.0546875 11.1953125 C5.3946875 11.1953125 4.7346875 11.1953125 4.0546875 11.1953125 C0.0546875 5.78354779 0.0546875 5.78354779 0.0546875 3.1953125 C-0.9353125 3.1953125 -1.9253125 3.1953125 -2.9453125 3.1953125 C-2.9453125 6.4953125 -2.9453125 9.7953125 -2.9453125 13.1953125 C-3.2753125 13.1953125 -3.6053125 13.1953125 -3.9453125 13.1953125 C-3.99923243 11.40397272 -4.03806821 9.61217351 -4.0703125 7.8203125 C-4.09351562 6.82257813 -4.11671875 5.82484375 -4.140625 4.796875 C-3.90471041 1.65449267 -3.28403811 0.3297227 0 0 Z " fill="#6CC28C" transform="translate(103.9453125,166.8046875)"/>
<path d="M0 0 C4.70588235 0.70588235 4.70588235 0.70588235 6 2 C6.1875 5.4375 6.1875 5.4375 6 9 C5.34 9.66 4.68 10.32 4 11 C0.46428571 10.46428571 0.46428571 10.46428571 -1 9 C-1.1328125 7.1875 -1.1328125 7.1875 -1.125 5 C-1.12757812 4.278125 -1.13015625 3.55625 -1.1328125 2.8125 C-1 1 -1 1 0 0 Z " fill="#79C8A5" transform="translate(101,130)"/>
<path d="M0 0 C4.875 0.875 4.875 0.875 6 2 C6.1875 4.9375 6.1875 4.9375 6 8 C5.34 8.66 4.68 9.32 4 10 C1.375 9.625 1.375 9.625 -1 9 C-0.67 6.03 -0.34 3.06 0 0 Z " fill="#84CB90" transform="translate(162,130)"/>
<path d="M0 0 C-1.98 0.99 -1.98 0.99 -4 2 C-3.34 2.433125 -2.68 2.86625 -2 3.3125 C-1.34 3.869375 -0.68 4.42625 0 5 C0 5.99 0 6.98 0 8 C-2.31 8 -4.62 8 -7 8 C-7 6.35 -7 4.7 -7 3 C-9.7972908 5.06756277 -10.02692273 6.14440371 -10.6875 9.6875 C-10.790625 10.780625 -10.89375 11.87375 -11 13 C-11.33 13 -11.66 13 -12 13 C-12.60356653 5.87791495 -12.60356653 5.87791495 -9.9375 2 C-6.35342568 -0.44022082 -4.25018379 -0.41668469 0 0 Z " fill="#D6ECD8" transform="translate(153,162)"/>
<path d="M0 0 C0.33 0 0.66 0 1 0 C1 5.28 1 10.56 1 16 C0.34 15.01 -0.32 14.02 -1 13 C-1.99 12.67 -2.98 12.34 -4 12 C-4 9.03 -4 6.06 -4 3 C-2.68 3 -1.36 3 0 3 C0 2.01 0 1.02 0 0 Z " fill="#5CBC77" transform="translate(120,164)"/>
<path d="M0 0 C0.33 1.32 0.66 2.64 1 4 C0.01 4 -0.98 4 -2 4 C-2 4.99 -2 5.98 -2 7 C-1.01 7.33 -0.02 7.66 1 8 C-1.31 8 -3.62 8 -6 8 C-5.34 7.67 -4.68 7.34 -4 7 C-4 6.01 -4 5.02 -4 4 C-5.98 4.66 -7.96 5.32 -10 6 C-10 5.34 -10 4.68 -10 4 C-10.99 4 -11.98 4 -13 4 C-13 9.61 -13 15.22 -13 21 C-13.33 21 -13.66 21 -14 21 C-14 15.06 -14 9.12 -14 3 C-9.38 3 -4.76 3 0 3 C0 2.01 0 1.02 0 0 Z " fill="#BCE2CB" transform="translate(109,159)"/>
<path d="M0 0 C2.31 0 4.62 0 7 0 C7.33 1.65 7.66 3.3 8 5 C4.77208445 7.1519437 3.71599191 7.20086443 0 7 C0 4.69 0 2.38 0 0 Z " fill="#8BCDBC" transform="translate(61,134)"/>
<path d="M0 0 C3 3 3 3 3.29296875 6.13671875 C3.25816406 7.30847656 3.22335938 8.48023438 3.1875 9.6875 C3.16042969 10.86699219 3.13335937 12.04648438 3.10546875 13.26171875 C3.07066406 14.16535156 3.03585938 15.06898438 3 16 C2.01 16.33 1.02 16.66 0 17 C0 11.39 0 5.78 0 0 Z " fill="#71C3A7" transform="translate(82,127)"/>
<path d="M0 0 C2.31 0.33 4.62 0.66 7 1 C6.125 5.875 6.125 5.875 5 7 C3.33382885 7.04063832 1.66611905 7.042721 0 7 C0 4.69 0 2.38 0 0 Z " fill="#6DC2B0" transform="translate(61,124)"/>
<path d="M0 0 C1.43739513 -0.02712066 2.87493863 -0.04645067 4.3125 -0.0625 C5.51326172 -0.07990234 5.51326172 -0.07990234 6.73828125 -0.09765625 C9 0 9 0 12 1 C11.67 1.66 11.34 2.32 11 3 C10.01 3 9.02 3 8 3 C7.67 3.66 7.34 4.32 7 5 C4.36 4.67 1.72 4.34 -1 4 C-0.67 2.68 -0.34 1.36 0 0 Z " fill="#D5ECE1" transform="translate(78,162)"/>
<path d="M0 0 C2.64 0 5.28 0 8 0 C8.33 0.99 8.66 1.98 9 3 C6.03 3.66 3.06 4.32 0 5 C0 3.35 0 1.7 0 0 Z " fill="#74C59F" transform="translate(77,166)"/>
<path d="M0 0 C-0.875 3.875 -0.875 3.875 -2 5 C-3.66617115 5.04063832 -5.33388095 5.042721 -7 5 C-7 3.68 -7 2.36 -7 1 C-4 0 -4 0 0 0 Z " fill="#60BC8C" transform="translate(87,172)"/>
<path d="M0 0 C1.65 0 3.3 0 5 0 C5.33 1.65 5.66 3.3 6 5 C4.02 5 2.04 5 0 5 C0 3.35 0 1.7 0 0 Z " fill="#CCE8E0" transform="translate(77,119)"/>
<path d="M0 0 C0.66 0 1.32 0 2 0 C2 1.98 2 3.96 2 6 C0.35 6.33 -1.3 6.66 -3 7 C-2.25 2.25 -2.25 2.25 0 0 Z " fill="#5BBB6A" transform="translate(165,133)"/>
<path d="M0 0 C2.64 0 5.28 0 8 0 C7.01 0.66 6.02 1.32 5 2 C6.65 2.33 8.3 2.66 10 3 C10 3.33 10 3.66 10 4 C6.7 4 3.4 4 0 4 C0 2.68 0 1.36 0 0 Z " fill="#DAEEDC" transform="translate(157,148)"/>
<path d="M0 0 C2.0625 0.4375 2.0625 0.4375 4 1 C3.01 1.66 2.02 2.32 1 3 C0.41518879 5.88595946 0.41518879 5.88595946 0.3125 9.125 C0.24675781 10.22070312 0.18101562 11.31640625 0.11328125 12.4453125 C0.07589844 13.28835937 0.03851563 14.13140625 0 15 C-1.98 15 -3.96 15 -6 15 C-6 14.67 -6 14.34 -6 14 C-4.35 14 -2.7 14 -1 14 C-1.01160156 13.07316406 -1.02320313 12.14632812 -1.03515625 11.19140625 C-1.04417969 9.99386719 -1.05320313 8.79632813 -1.0625 7.5625 C-1.07410156 6.36753906 -1.08570313 5.17257813 -1.09765625 3.94140625 C-1 1 -1 1 0 0 Z " fill="#98D3AA" transform="translate(142,130)"/>
<path d="M0 0 C0.66 0.33 1.32 0.66 2 1 C-0.09677419 8.25806452 -0.09677419 8.25806452 -3 10 C-5.71827521 10.24222254 -8.25984115 10.13476191 -11 10 C-11 9.67 -11 9.34 -11 9 C-9.9275 9 -8.855 9 -7.75 9 C-4.01358689 8.42313825 -4.01358689 8.42313825 -2.64453125 6.15234375 C-1.65559657 4.12806229 -0.7755243 2.11462836 0 0 Z " fill="#5FBB8F" transform="translate(74,171)"/>
<path d="M0 0 C1.65 0 3.3 0 5 0 C5.33 1.32 5.66 2.64 6 4 C3.69 4 1.38 4 -1 4 C-0.67 2.68 -0.34 1.36 0 0 Z " fill="#83CB88" transform="translate(147,166)"/>
<path d="M0 0 C1.65 0 3.3 0 5 0 C5 1.65 5 3.3 5 5 C3.35 5 1.7 5 0 5 C0 3.35 0 1.7 0 0 Z " fill="#50B79D" transform="translate(62,135)"/>
<path d="M0 0 C1.65 0 3.3 0 5 0 C4.67 1.65 4.34 3.3 4 5 C2.68 5 1.36 5 0 5 C0 3.35 0 1.7 0 0 Z " fill="#43B184" transform="translate(62,172)"/>
<path d="M0 0 C2.64 0 5.28 0 8 0 C8 0.99 8 1.98 8 3 C5.36 3 2.72 3 0 3 C0 2.01 0 1.02 0 0 Z " fill="#F6FAF5" transform="translate(192,132)"/>
<path d="M0 0 C0.99 0.495 0.99 0.495 2 1 C5.67329964 1.13357453 8.49852959 1.1671568 12 0 C12 0.66 12 1.32 12 2 C13.32 2.33 14.64 2.66 16 3 C11.05 3 6.1 3 1 3 C0.67 2.01 0.34 1.02 0 0 Z " fill="#A1D7BC" transform="translate(96,142)"/>
<path d="M0 0 C0 1.65 0 3.3 0 5 C-1.32 5 -2.64 5 -4 5 C-4.33 3.68 -4.66 2.36 -5 1 C-3 0 -3 0 0 0 Z " fill="#E1F1E1" transform="translate(171,162)"/>
</svg>
