<?xml version="1.0" encoding="UTF-8"?>
<svg version="1.1" xmlns="http://www.w3.org/2000/svg" width="282" height="174">
<path d="M0 0 C93.06 0 186.12 0 282 0 C282 57.42 282 114.84 282 174 C188.94 174 95.88 174 0 174 C0 116.58 0 59.16 0 0 Z " fill="#FBFCFD" transform="translate(0,0)"/>
<path d="M0 0 C27.72 0 55.44 0 84 0 C84 32.01 84 64.02 84 97 C76.41 97 68.82 97 61 97 C61 84.13 61 71.26 61 58 C48.79 58 36.58 58 24 58 C24 70.87 24 83.74 24 97 C16.08 97 8.16 97 0 97 C0 64.99 0 32.98 0 0 Z " fill="#084D88" transform="translate(198,0)"/>
<path d="M0 0 C27.72 0 55.44 0 84 0 C84 32.01 84 64.02 84 97 C76.08 97 68.16 97 60 97 C60 84.13 60 71.26 60 58 C47.79 58 35.58 58 23 58 C23 70.87 23 83.74 23 97 C15.41 97 7.82 97 0 97 C0 64.99 0 32.98 0 0 Z " fill="#094D89" transform="translate(0,0)"/>
<path d="M0 0 C20.46 0 40.92 0 62 0 C62 5.94 62 11.88 62 18 C49.13 18 36.26 18 23 18 C23 24.93 23 31.86 23 39 C32.24 39 41.48 39 51 39 C51 45.27 51 51.54 51 58 C41.76 58 32.52 58 23 58 C23 70.87 23 83.74 23 97 C15.41 97 7.82 97 0 97 C0 64.99 0 32.98 0 0 Z " fill="#084C88" transform="translate(113,0)"/>
<path d="M0 0 C12.54 0 25.08 0 38 0 C38 12.87 38 25.74 38 39 C25.46 39 12.92 39 0 39 C0 26.13 0 13.26 0 0 Z " fill="#FBFCFD" transform="translate(221,0)"/>
<path d="M0 0 C12.54 0 25.08 0 38 0 C38 12.87 38 25.74 38 39 C25.46 39 12.92 39 0 39 C0 26.13 0 13.26 0 0 Z " fill="#FBFCFD" transform="translate(23,0)"/>
<path d="M0 0 C3.0625 2 3.0625 2 5 5 C5.83878424 9.03919402 5.38711831 12.10962788 3.75 15.875 C1.07046205 19.12872466 -0.7833228 19.84467951 -4.9375 20.375 C-8.75758307 19.90723473 -10.30522616 18.69477384 -13 16 C-14.53784153 11.3864754 -14.74741859 7.56278431 -12.625 3.125 C-9.42180562 -1.06379265 -4.90563797 -0.7273877 0 0 Z " fill="#16558E" transform="translate(122,154)"/>
<path d="M0 0 C1.32 0 2.64 0 4 0 C4 2.64 4 5.28 4 8 C6.97 8 9.94 8 13 8 C13 5.36 13 2.72 13 0 C14.32 0 15.64 0 17 0 C17 6.6 17 13.2 17 20 C13.0709375 20.0309375 13.0709375 20.0309375 9.0625 20.0625 C8.2362915 20.071604 7.41008301 20.08070801 6.55883789 20.09008789 C4.70566241 20.09723945 2.85250692 20.0502852 1 20 C0 19 0 19 -0.11352539 17.14233398 C-0.10828857 16.35157471 -0.10305176 15.56081543 -0.09765625 14.74609375 C-0.09443359 13.89208984 -0.09121094 13.03808594 -0.08789062 12.15820312 C-0.07951172 11.26037109 -0.07113281 10.36253906 -0.0625 9.4375 C-0.05798828 8.53580078 -0.05347656 7.63410156 -0.04882812 6.70507812 C-0.03700225 4.46998686 -0.0205222 2.23502563 0 0 Z " fill="#225F94" transform="translate(87,154)"/>
<path d="M0 0 C1.65 0 3.3 0 5 0 C6.65 3.96 8.3 7.92 10 12 C11.71017726 9.4347341 12.90417811 7.12039035 14.125 4.3125 C14.47820313 3.50425781 14.83140625 2.69601563 15.1953125 1.86328125 C15.46085937 1.24839844 15.72640625 0.63351563 16 0 C17.98 0 19.96 0 22 0 C22 6.6 22 13.2 22 20 C20.68 20 19.36 20 18 20 C17.67 16.04 17.34 12.08 17 8 C15.35 11.96 13.7 15.92 12 20 C11.01 20 10.02 20 9 20 C8.34760842 18.60721983 7.70339448 17.21060788 7.0625 15.8125 C6.70285156 15.03519531 6.34320313 14.25789062 5.97265625 13.45703125 C5 11 5 11 4 6 C3.67 10.62 3.34 15.24 3 20 C2.01 20 1.02 20 0 20 C0 13.4 0 6.8 0 0 Z " fill="#215C93" transform="translate(43,120)"/>
<path d="M0 0 C1.32 0 2.64 0 4 0 C4 2.64 4 5.28 4 8 C6.64 8 9.28 8 12 8 C12 5.36 12 2.72 12 0 C13.32 0 14.64 0 16 0 C16 6.6 16 13.2 16 20 C10.72 20 5.44 20 0 20 C0 13.4 0 6.8 0 0 Z " fill="#266196" transform="translate(149,154)"/>
<path d="M0 0 C0.99 0 1.98 0 3 0 C3 2.64 3 5.28 3 8 C5.97 8 8.94 8 12 8 C12 5.36 12 2.72 12 0 C13.32 0 14.64 0 16 0 C16 6.6 16 13.2 16 20 C10.72 20 5.44 20 0 20 C0 13.4 0 6.8 0 0 Z " fill="#205D93" transform="translate(206,154)"/>
<path d="M0 0 C10.50053248 -0.37060703 10.50053248 -0.37060703 12.83203125 1.359375 C14.50969809 3.71596387 14.41439731 5.16828505 14 8 C12.5 10.3125 12.5 10.3125 11 12 C11.66 12.94875 12.32 13.8975 13 14.875 C15 18 15 18 15 20 C12.6875 19.8125 12.6875 19.8125 10 19 C7 14.96551724 7 14.96551724 7 12 C6.01 12 5.02 12 4 12 C4 14.64 4 17.28 4 20 C2.68 20 1.36 20 0 20 C0 13.4 0 6.8 0 0 Z " fill="#1C5A91" transform="translate(170,120)"/>
<path d="M0 0 C10.50053248 -0.37060703 10.50053248 -0.37060703 12.83203125 1.359375 C14.50969809 3.71596387 14.41439731 5.16828505 14 8 C12.5 10.3125 12.5 10.3125 11 12 C11.66 12.94875 12.32 13.8975 13 14.875 C15 18 15 18 15 20 C12.75 19.875 12.75 19.875 10 19 C8.61061923 17.03852126 7.2739589 15.03833424 6 13 C5.01 12.67 4.02 12.34 3 12 C3 14.31 3 16.62 3 19 C2.01 19 1.02 19 0 19 C0 12.73 0 6.46 0 0 Z " fill="#266095" transform="translate(112,120)"/>
<path d="M0 0 C1.2065625 0.0309375 1.2065625 0.0309375 2.4375 0.0625 C8.4375 13.49107143 8.4375 13.49107143 8.4375 19.0625 C7.1175 19.0625 5.7975 19.0625 4.4375 19.0625 C4.1075 18.0725 3.7775 17.0825 3.4375 16.0625 C0.7975 16.0625 -1.8425 16.0625 -4.5625 16.0625 C-4.8925 17.0525 -5.2225 18.0425 -5.5625 19.0625 C-6.8825 18.7325 -8.2025 18.4025 -9.5625 18.0625 C-8.58679039 15.24875639 -7.60711694 12.4365064 -6.625 9.625 C-6.34720703 8.82255859 -6.06941406 8.02011719 -5.78320312 7.19335938 C-5.51572266 6.42958984 -5.24824219 5.66582031 -4.97265625 4.87890625 C-4.72652588 4.17193604 -4.48039551 3.46496582 -4.22680664 2.73657227 C-3.16908684 0.07108727 -2.99879785 0.07314141 0 0 Z " fill="#245F95" transform="translate(29.5625,119.9375)"/>
<path d="M0 0 C1.32 0 2.64 0 4 0 C4 2.64 4 5.28 4 8 C6.64 8 9.28 8 12 8 C12 5.36 12 2.72 12 0 C13.32 0 14.64 0 16 0 C16 6.6 16 13.2 16 20 C14.68 20 13.36 20 12 20 C12 17.03 12 14.06 12 11 C9.36 11 6.72 11 4 11 C4 13.97 4 16.94 4 20 C2.68 20 1.36 20 0 20 C0 13.4 0 6.8 0 0 Z " fill="#246095" transform="translate(0,120)"/>
<path d="M0 0 C1.32 0 2.64 0 4 0 C4.06058594 0.98742187 4.12117187 1.97484375 4.18359375 2.9921875 C4.26738281 4.27351562 4.35117188 5.55484375 4.4375 6.875 C4.51871094 8.15117187 4.59992188 9.42734375 4.68359375 10.7421875 C4.79206027 13.88300152 4.79206027 13.88300152 6 16 C7.66611905 16.042721 9.33382885 16.04063832 11 16 C12.99616554 14.00383446 12.40983427 10.18298037 12.5625 7.4375 C12.60568359 6.72658203 12.64886719 6.01566406 12.69335938 5.28320312 C12.79971777 3.52238088 12.90038846 1.7612168 13 0 C14.32 0 15.64 0 17 0 C17.13572155 2.39774745 17.23436868 4.78775245 17.3125 7.1875 C17.35439453 7.86103516 17.39628906 8.53457031 17.43945312 9.22851562 C17.53527567 13.15723998 17.14206269 14.81789927 14.69921875 17.94921875 C12 20 12 20 8.5 20.625 C4.02558073 19.82599656 2.77652803 18.55904696 0 15 C-0.36771245 12.1612599 -0.48630804 9.98179849 -0.3125 7.1875 C-0.28994141 6.49462891 -0.26738281 5.80175781 -0.24414062 5.08789062 C-0.18562661 3.39098427 -0.0959548 1.69520139 0 0 Z " fill="#276196" transform="translate(227,154)"/>
<path d="M0 0 C5 1 5 1 6.80078125 3.50390625 C7.29964844 4.51324219 7.79851563 5.52257812 8.3125 6.5625 C8.82425781 7.57441406 9.33601563 8.58632812 9.86328125 9.62890625 C10.23839844 10.41136719 10.61351562 11.19382813 11 12 C11.33 8.04 11.66 4.08 12 0 C12.99 0 13.98 0 15 0 C15 6.27 15 12.54 15 19 C10 18 10 18 8.19921875 15.49609375 C7.70035156 14.48675781 7.20148437 13.47742188 6.6875 12.4375 C6.17574219 11.42558594 5.66398437 10.41367188 5.13671875 9.37109375 C4.57404297 8.19740234 4.57404297 8.19740234 4 7 C3.67 10.96 3.34 14.92 3 19 C2.01 19 1.02 19 0 19 C0 12.73 0 6.46 0 0 Z " fill="#0C4D89" transform="translate(53,154)"/>
<path d="M0 0 C0 0.99 0 1.98 0 3 C-0.71027344 3.04898438 -1.42054688 3.09796875 -2.15234375 3.1484375 C-3.53099609 3.26058594 -3.53099609 3.26058594 -4.9375 3.375 C-5.85402344 3.44460937 -6.77054688 3.51421875 -7.71484375 3.5859375 C-8.46894531 3.72257812 -9.22304687 3.85921875 -10 4 C-11.50934217 7.01868434 -11.17510672 9.67297229 -11 13 C-9.29107501 16.31460705 -9.29107501 16.31460705 -5.875 16.6875 C-4.92625 16.790625 -3.9775 16.89375 -3 17 C-3 14.36 -3 11.72 -3 9 C-1.68 9 -0.36 9 1 9 C1 12.3 1 15.6 1 19 C-2.50545379 20.7527269 -6.17501488 20.53818886 -10 20 C-13.12603632 18.75719449 -13.79695509 17.82441655 -16 15 C-17.12699666 10.01834808 -16.75008437 6.29324891 -14.1875 1.875 C-9.52877663 -0.86542551 -5.27778232 -0.41593731 0 0 Z " fill="#195790" transform="translate(146,120)"/>
<path d="M0 0 C1.32 0 2.64 0 4 0 C4.06058594 1.14339844 4.12117188 2.28679687 4.18359375 3.46484375 C4.26798428 4.95574305 4.35263302 6.44662775 4.4375 7.9375 C4.47681641 8.69224609 4.51613281 9.44699219 4.55664062 10.22460938 C4.44038024 13.91944187 4.44038024 13.91944187 6 17 C7.66617115 17.04063832 9.33388095 17.042721 11 17 C12.4807848 14.0384304 12.35314037 11.16493705 12.5625 7.875 C12.64628906 6.59367187 12.73007813 5.31234375 12.81640625 3.9921875 C12.87699219 3.00476563 12.93757813 2.01734375 13 1 C13.99 1 14.98 1 16 1 C16.0809313 3.60478883 16.14045434 6.20706653 16.1875 8.8125 C16.21263672 9.55048828 16.23777344 10.28847656 16.26367188 11.04882812 C16.33800749 16.52488524 16.33800749 16.52488524 14.61328125 18.94921875 C10.98896801 21.30984893 8.3226144 21.37263917 4 21 C1.7890625 19.52734375 1.7890625 19.52734375 0 17 C-0.48209856 14.06605397 -0.37775715 11.2129831 -0.25 8.25 C-0.23195313 7.45722656 -0.21390625 6.66445312 -0.1953125 5.84765625 C-0.14833082 3.89791652 -0.07659044 1.94880122 0 0 Z " fill="#044986" transform="translate(90,119)"/>
<path d="M0 0 C10.50053248 -0.37060703 10.50053248 -0.37060703 12.83203125 1.359375 C14.50969809 3.71596387 14.41439731 5.16828505 14 8 C12.5 10.3125 12.5 10.3125 11 12 C11.66 12.94875 12.32 13.8975 13 14.875 C15 18 15 18 15 20 C12.6875 19.8125 12.6875 19.8125 10 19 C7 14.96551724 7 14.96551724 7 12 C6.01 11.67 5.02 11.34 4 11 C4 10.34 4 9.68 4 9 C5.65 8.67 7.3 8.34 9 8 C9 6.68 9 5.36 9 4 C6.03 3.505 6.03 3.505 3 3 C2.22678118 5.98241547 1.58803797 8.97580475 1 12 C1.66 12 2.32 12 3 12 C3 14.31 3 16.62 3 19 C2.01 19 1.02 19 0 19 C0 12.73 0 6.46 0 0 Z " fill="#195890" transform="translate(33,154)"/>
<path d="M0 0 C3.96 0 7.92 0 12 0 C12 0.99 12 1.98 12 3 C9.36 3 6.72 3 4 3 C4 4.65 4 6.3 4 8 C6.31 8 8.62 8 11 8 C11 8.99 11 9.98 11 11 C8.69 11 6.38 11 4 11 C4 12.65 4 14.3 4 16 C6.64 16 9.28 16 12 16 C12 16.99 12 17.98 12 19 C8.04 19 4.08 19 0 19 C0 12.73 0 6.46 0 0 Z " fill="#1D5A91" transform="translate(153,120)"/>
<path d="M0 0 C10 0 10 0 12 1 C11.67 2.32 11.34 3.64 11 5 C10.01 4.34 9.02 3.68 8 3 C6.34450469 2.61500109 4.6777567 2.27206865 3 2 C3 4.31 3 6.62 3 9 C4.65 9 6.3 9 8 9 C6.68 9.33 5.36 9.66 4 10 C4 12.31 4 14.62 4 17 C7.465 16.505 7.465 16.505 11 16 C11.33 14.35 11.66 12.7 12 11 C12.66 11 13.32 11 14 11 C14.3125 13.8125 14.3125 13.8125 14 17 C9.63009122 21.22894398 6.55150241 20 0 20 C0 13.4 0 6.8 0 0 Z " fill="#024583" transform="translate(71,120)"/>
<path d="M0 0 C3.96 0 7.92 0 12 0 C12 0.99 12 1.98 12 3 C9.36 3 6.72 3 4 3 C4 4.65 4 6.3 4 8 C6.31 8 8.62 8 11 8 C11 8.99 11 9.98 11 11 C8.69 11 6.38 11 4 11 C4 12.98 4 14.96 4 17 C6.64 17 9.28 17 12 17 C12 17.66 12 18.32 12 19 C8.04 19 4.08 19 0 19 C0 12.73 0 6.46 0 0 Z " fill="#16558E" transform="translate(16,154)"/>
<path d="M0 0 C0 0.99 0 1.98 0 3 C-2.05078125 3.22786458 -4.1015625 3.45572917 -6.15234375 3.68359375 C-8.01140229 3.81886614 -8.01140229 3.81886614 -9 5 C-9.0979057 6.49738124 -9.12974864 7.99942892 -9.125 9.5 C-9.12757813 10.3146875 -9.13015625 11.129375 -9.1328125 11.96875 C-9.2245178 13.99530377 -9.2245178 13.99530377 -8 15 C-6.48530552 15.23192865 -4.96245438 15.41215238 -3.4375 15.5625 C-2.61121094 15.64628906 -1.78492188 15.73007813 -0.93359375 15.81640625 C0.02353516 15.90728516 0.02353516 15.90728516 1 16 C1 16.99 1 17.98 1 19 C-2.10048928 20.55024464 -4.57894218 20.28992015 -8 20 C-10.75329021 18.20437595 -12.52627461 16.94745078 -14 14 C-14.41268601 10.6159747 -14.50181754 7.37635931 -14 4 C-9.38945275 -0.97453782 -6.46204023 -1.07700671 0 0 Z " fill="#32699B" transform="translate(201,154)"/>
<path d="M0 0 C0.90492188 0.02320313 1.80984375 0.04640625 2.7421875 0.0703125 C4.10730469 0.09738281 4.10730469 0.09738281 5.5 0.125 C6.19867188 0.14820313 6.89734375 0.17140625 7.6171875 0.1953125 C7.6171875 1.1853125 7.6171875 2.1753125 7.6171875 3.1953125 C4.9771875 3.1953125 2.3371875 3.1953125 -0.3828125 3.1953125 C0.8097163 6.7728989 1.47709944 6.88711807 4.6796875 8.5703125 C8.51278167 10.86603257 8.51278167 10.86603257 9.4296875 13.7578125 C8.25920488 17.26926035 6.81185019 18.36008074 3.6171875 20.1953125 C-0.1953125 20.4453125 -0.1953125 20.4453125 -3.3828125 20.1953125 C-3.7128125 19.2053125 -4.0428125 18.2153125 -4.3828125 17.1953125 C-0.4228125 16.7003125 -0.4228125 16.7003125 3.6171875 16.1953125 C3.9471875 14.8753125 4.2771875 13.5553125 4.6171875 12.1953125 C3.5034375 11.9065625 2.3896875 11.6178125 1.2421875 11.3203125 C-2.3828125 10.1953125 -2.3828125 10.1953125 -4.3828125 8.1953125 C-4.6328125 5.1953125 -4.6328125 5.1953125 -4.3828125 2.1953125 C-2.3828125 0.1953125 -2.3828125 0.1953125 0 0 Z " fill="#19578F" transform="translate(174.3828125,153.8046875)"/>
<path d="M0 0 C1.7325 0.1546875 1.7325 0.1546875 3.5 0.3125 C5.97342266 4.02263399 5.88503486 5.92310262 5.5 10.3125 C4.3125 12.75 4.3125 12.75 2.5 14.3125 C0 14.75 0 14.75 -2.5 14.3125 C-4.6532085 12.67832266 -5.41641617 11.81669922 -5.86328125 9.12109375 C-5.84652344 8.33863281 -5.82976562 7.55617187 -5.8125 6.75 C-5.80863281 5.96496094 -5.80476563 5.17992187 -5.80078125 4.37109375 C-5.23824047 0.52097695 -3.68153445 0.32870843 0 0 Z " fill="#EDF2F6" transform="translate(117.5,156.6875)"/>
<path d="M0 0 C3.96 0 7.92 0 12 0 C12 0.99 12 1.98 12 3 C9.36 3 6.72 3 4 3 C4 4.65 4 6.3 4 8 C6.31 8 8.62 8 11 8 C11 8.99 11 9.98 11 11 C8.36 11 5.72 11 3 11 C3 12.98 3 14.96 3 17 C5.97 17 8.94 17 12 17 C12 17.66 12 18.32 12 19 C8.04 19 4.08 19 0 19 C0 12.73 0 6.46 0 0 Z " fill="#034483" transform="translate(265,154)"/>
<path d="M0 0 C1.65 0 3.3 0 5 0 C9.59225513 10.37357631 9.59225513 10.37357631 9 16 C9.45375 15.54625 9.9075 15.0925 10.375 14.625 C11.58333333 13.41666667 12.79166667 12.20833333 14 11 C13.67 13.64 13.34 16.28 13 19 C11.68 19.33 10.36 19.66 9 20 C8.34760842 18.60721983 7.70339448 17.21060788 7.0625 15.8125 C6.70285156 15.03519531 6.34320313 14.25789062 5.97265625 13.45703125 C5 11 5 11 4 6 C3.67 10.62 3.34 15.24 3 20 C2.01 20 1.02 20 0 20 C0 13.4 0 6.8 0 0 Z " fill="#16568E" transform="translate(43,120)"/>
<path d="M0 0 C0 0.99 0 1.98 0 3 C-0.95712891 3.07347656 -0.95712891 3.07347656 -1.93359375 3.1484375 C-2.75988281 3.22320312 -3.58617187 3.29796875 -4.4375 3.375 C-5.67306641 3.47941406 -5.67306641 3.47941406 -6.93359375 3.5859375 C-7.61550781 3.72257813 -8.29742187 3.85921875 -9 4 C-10.49297212 6.98594424 -10.11755228 9.70853624 -10 13 C-9.67 13.66 -9.34 14.32 -9 15 C-6.87423218 15.46651207 -6.87423218 15.46651207 -4.4375 15.625 C-3.61121094 15.69976562 -2.78492188 15.77453125 -1.93359375 15.8515625 C-1.29550781 15.90054688 -0.65742188 15.94953125 0 16 C0 16.99 0 17.98 0 19 C-2.86608129 20.43304064 -4.81300783 20.30644155 -8 20 C-13.70769231 16.87692308 -13.70769231 16.87692308 -15 13 C-15.67039106 6.0726257 -15.67039106 6.0726257 -13.125 2 C-8.7480865 -0.80122464 -5.05801512 -0.44196249 0 0 Z " fill="#2D6699" transform="translate(145,154)"/>
<path d="M0 0 C3.96 0 7.92 0 12 0 C12 0.99 12 1.98 12 3 C9.36 3 6.72 3 4 3 C4 4.98 4 6.96 4 9 C6.31 9 8.62 9 11 9 C11 9.66 11 10.32 11 11 C8.69 11 6.38 11 4 11 C4 13.97 4 16.94 4 20 C2.68 20 1.36 20 0 20 C0 13.4 0 6.8 0 0 Z " fill="#246095" transform="translate(0,154)"/>
<path d="M0 0 C3.71599191 -0.20086443 4.77208445 -0.1519437 8 2 C8.66 1.34 9.32 0.68 10 0 C10 1.98 10 3.96 10 6 C9.34 6 8.68 6 8 6 C8 6.66 8 7.32 8 8 C8.66 8.33 9.32 8.66 10 9 C9.34 10.65 8.68 12.3 8 14 C5.69 14.33 3.38 14.66 1 15 C1.020625 13.865625 1.04125 12.73125 1.0625 11.5625 C1.41577477 8.18424326 1.41577477 8.18424326 0 7 C-0.04092937 4.66702567 -0.04241723 2.33294775 0 0 Z " fill="#366D9E" transform="translate(74,122)"/>
<path d="M0 0 C2.64 0 5.28 0 8 0 C8.6875 2.3125 8.6875 2.3125 9 5 C8.01 5.99 7.02 6.98 6 8 C7.32 10.97 8.64 13.94 10 17 C6.37 17 2.74 17 -1 17 C-0.01 16.67 0.98 16.34 2 16 C2 13.69 2 11.38 2 9 C1.34 9 0.68 9 0 9 C0 6.03 0 3.06 0 0 Z " fill="#2C6699" transform="translate(34,157)"/>
<path d="M0 0 C1.43655854 -0.08131463 2.8744483 -0.13933559 4.3125 -0.1875 C5.51326172 -0.23970703 5.51326172 -0.23970703 6.73828125 -0.29296875 C9 0 9 0 10.76953125 1.359375 C12 3 12 3 12.375 5.4375 C11.93956032 8.41300448 10.97538528 9.77769156 9 12 C9.66 12.94875 10.32 13.8975 11 14.875 C13 18 13 18 13 20 C10.6875 19.8125 10.6875 19.8125 8 19 C5 14.96551724 5 14.96551724 5 12 C4.01 11.67 3.02 11.34 2 11 C2 10.34 2 9.68 2 9 C3.98 8.67 5.96 8.34 8 8 C7.67 6.68 7.34 5.36 7 4 C6.21625 3.896875 5.4325 3.79375 4.625 3.6875 C2 3 2 3 0 0 Z " fill="#195790" transform="translate(172,120)"/>
<path d="M0 0 C1.32 0 2.64 0 4 0 C4 5.61 4 11.22 4 17 C6.31 17 8.62 17 11 17 C11 17.66 11 18.32 11 19 C7.37 19 3.74 19 0 19 C0 12.73 0 6.46 0 0 Z " fill="#13538D" transform="translate(249,154)"/>
<path d="M0 0 C0.66 0 1.32 0 2 0 C2 0.99 2 1.98 2 3 C2.99 3 3.98 3 5 3 C5.33 2.34 5.66 1.68 6 1 C6.67260351 2.76858691 7.33788395 4.53996016 8 6.3125 C8.37125 7.29863281 8.7425 8.28476563 9.125 9.30078125 C10 12 10 12 10 15 C8.68 15 7.36 15 6 15 C5.67 14.01 5.34 13.02 5 12 C2.36 11.67 -0.28 11.34 -3 11 C-3 10.67 -3 10.34 -3 10 C-1.02 9.67 0.96 9.34 3 9 C1.68 8.67 0.36 8.34 -1 8 C-0.67 5.36 -0.34 2.72 0 0 Z " fill="#31699C" transform="translate(28,124)"/>
<path d="M0 0 C2.97 0 5.94 0 9 0 C9 2.97 9 5.94 9 9 C6.03 9 3.06 9 0 9 C0 6.03 0 3.06 0 0 Z " fill="#EFF4F7" transform="translate(209,165)"/>
<path d="M0 0 C2.97 0 5.94 0 9 0 C9 2.97 9 5.94 9 9 C6.03 9 3.06 9 0 9 C0 6.03 0 3.06 0 0 Z " fill="#EEF3F6" transform="translate(153,165)"/>
<path d="M0 0 C2.97 0 5.94 0 9 0 C9 2.97 9 5.94 9 9 C6.03 9 3.06 9 0 9 C0 6.03 0 3.06 0 0 Z " fill="#EEF2F6" transform="translate(91,165)"/>
<path d="M0 0 C1.32 0 2.64 0 4 0 C4.16781295 2.60409745 4.33429651 5.2082682 4.5 7.8125 C4.54769531 8.55048828 4.59539062 9.28847656 4.64453125 10.04882812 C4.83390613 13.03824588 5 16.00374574 5 19 C4.34 19.33 3.68 19.66 3 20 C1.13437358 18.42702086 0.09761557 17.54489783 -0.34057617 15.09887695 C-0.32486572 14.40238037 -0.30915527 13.70588379 -0.29296875 12.98828125 C-0.28330078 12.23095703 -0.27363281 11.47363281 -0.26367188 10.69335938 C-0.23853516 9.90767578 -0.21339844 9.12199219 -0.1875 8.3125 C-0.17396484 7.51521484 -0.16042969 6.71792969 -0.14648438 5.89648438 C-0.11117089 3.93070033 -0.05736447 1.96526418 0 0 Z " fill="#3A70A0" transform="translate(90,119)"/>
<path d="M0 0 C3.19860957 3.99826196 4.94842282 6.73225507 6.875 11.23046875 C8.0873108 13.47270811 8.0873108 13.47270811 12 15 C7.05 15 2.1 15 -3 15 C-2.01 14.67 -1.02 14.34 0 14 C0 9.38 0 4.76 0 0 Z " fill="#E3EBF1" transform="translate(56,159)"/>
<path d="M0 0 C2.64 0.33 5.28 0.66 8 1 C8 1.33 8 1.66 8 2 C6.35 2 4.7 2 3 2 C3 4.31 3 6.62 3 9 C4.65 9 6.3 9 8 9 C8 9.66 8 10.32 8 11 C6.68 11.33 5.36 11.66 4 12 C3.67 14.31 3.34 16.62 3 19 C2.01 19 1.02 19 0 19 C0 12.73 0 6.46 0 0 Z " fill="#054986" transform="translate(112,120)"/>
<path d="M0 0 C0.33 0 0.66 0 1 0 C1.08636719 0.60328125 1.17273438 1.2065625 1.26171875 1.828125 C1.40222656 2.62734375 1.54273438 3.4265625 1.6875 4.25 C1.81511719 5.03890625 1.94273437 5.8278125 2.07421875 6.640625 C3.05995966 9.72956385 3.05995966 9.72956385 8 13 C2.39 13 -3.22 13 -9 13 C-4 8 -4 8 -2.25 6.5 C-0.55604291 4.4672515 -0.34892641 2.58205543 0 0 Z " fill="#EDF2F6" transform="translate(129,161)"/>
<path d="M0 0 C0.99 0 1.98 0 3 0 C3 2.97 3 5.94 3 9 C5.97 9 8.94 9 12 9 C12 9.33 12 9.66 12 10 C9.03 10 6.06 10 3 10 C3 13.3 3 16.6 3 20 C2.01 20 1.02 20 0 20 C0 13.4 0 6.8 0 0 Z " fill="#084885" transform="translate(206,154)"/>
<path d="M0 0 C0.99 0 1.98 0 3 0 C3 6.6 3 13.2 3 20 C2.01 20 1.02 20 0 20 C0 16.7 0 13.4 0 10 C-2.97 10 -5.94 10 -9 10 C-9 9.67 -9 9.34 -9 9 C-6.03 9 -3.06 9 0 9 C0 6.03 0 3.06 0 0 Z " fill="#084986" transform="translate(162,154)"/>
<path d="M0 0 C1.32 0 2.64 0 4 0 C4 3.3 4 6.6 4 10 C1.59454362 11.20272819 0.05003047 11.10071472 -2.625 11.0625 C-3.85089844 11.04896484 -3.85089844 11.04896484 -5.1015625 11.03515625 C-6.04128906 11.01775391 -6.04128906 11.01775391 -7 11 C-7 9.68 -7 8.36 -7 7 C-4.69 7.33 -2.38 7.66 0 8 C0 5.36 0 2.72 0 0 Z " fill="#346B9C" transform="translate(143,129)"/>
<path d="M0 0 C0.33 0 0.66 0 1 0 C1 1.65 1 3.3 1 5 C3.64 5 6.28 5 9 5 C9 5.99 9 6.98 9 8 C6.69 8 4.38 8 2 8 C2 9.65 2 11.3 2 13 C4.64 13 7.28 13 10 13 C10 13.33 10 13.66 10 14 C7.03 14 4.06 14 1 14 C-0.75417412 9.50492881 -1.28362108 5.8215583 -1 1 C-0.67 0.67 -0.34 0.34 0 0 Z " fill="#266095" transform="translate(155,123)"/>
<path d="M0 0 C0 0.99 0 1.98 0 3 C-1.27875 3.12375 -2.5575 3.2475 -3.875 3.375 C-7.34790936 3.69042399 -7.34790936 3.69042399 -10 6 C-10.40047444 8.32275177 -10.7397104 10.65739357 -11 13 C-11.33 13 -11.66 13 -12 13 C-12.33 9.7 -12.66 6.4 -13 3 C-8.30609874 -0.77801809 -5.8692391 -1.40861738 0 0 Z " fill="#215C93" transform="translate(201,154)"/>
<path d="M0 0 C0.33 0.99 0.66 1.98 1 3 C-1.64 3 -4.28 3 -7 3 C-7 4.65 -7 6.3 -7 8 C-4.69 8 -2.38 8 0 8 C0 8.99 0 9.98 0 11 C-2.64 11 -5.28 11 -8 11 C-8 12.65 -8 14.3 -8 16 C-8.33 16 -8.66 16 -9 16 C-9.02685938 13.85423363 -9.04633088 11.70837355 -9.0625 9.5625 C-9.07410156 8.36753906 -9.08570313 7.17257813 -9.09765625 5.94140625 C-9 3 -9 3 -8 2 C-5.32941149 1.85884839 -2.67567762 1.95752893 0 2 C0 1.34 0 0.68 0 0 Z " fill="#2F679A" transform="translate(276,154)"/>
<path d="M0 0 C0.33 0.66 0.66 1.32 1 2 C3.12576782 2.46651207 3.12576782 2.46651207 5.5625 2.625 C6.38878906 2.69976562 7.21507812 2.77453125 8.06640625 2.8515625 C8.70449219 2.90054688 9.34257812 2.94953125 10 3 C10 3.99 10 4.98 10 6 C7.13391871 7.43304064 5.18699217 7.30644155 2 7 C-1.375 5.125 -1.375 5.125 -4 3 C-4 2.34 -4 1.68 -4 1 C-2 0 -2 0 0 0 Z " fill="#2B6498" transform="translate(135,167)"/>
<path d="M0 0 C2.64 0.33 5.28 0.66 8 1 C7.06414063 1.35191406 7.06414063 1.35191406 6.109375 1.7109375 C3.39744059 3.36823075 3.11024003 4.6141599 2.25 7.625 C2.00765625 8.44226563 1.7653125 9.25953125 1.515625 10.1015625 C1.34546875 10.72804687 1.1753125 11.35453125 1 12 C1.66 12 2.32 12 3 12 C3 14.31 3 16.62 3 19 C2.01 19 1.02 19 0 19 C0 12.73 0 6.46 0 0 Z " fill="#0A4C89" transform="translate(33,154)"/>
<path d="M0 0 C0.33 0 0.66 0 1 0 C1 1.98 1 3.96 1 6 C4.465 5.505 4.465 5.505 8 5 C8.33 3.35 8.66 1.7 9 0 C9.66 0 10.32 0 11 0 C11.3125 2.8125 11.3125 2.8125 11 6 C7.95701645 8.94482279 5.2504502 9.16827468 1.1875 9.1875 C-0.20891272 9.13966204 -1.60517921 9.08204828 -3 9 C-2.01 8.34 -1.02 7.68 0 7 C0.25015873 3.41642759 0.25015873 3.41642759 0 0 Z " fill="#30699B" transform="translate(74,131)"/>
<path d="M0 0 C0.33 0.99 0.66 1.98 1 3 C2.65 3 4.3 3 6 3 C6.33 3.66 6.66 4.32 7 5 C4.69 5 2.38 5 0 5 C-0.33 6.65 -0.66 8.3 -1 10 C-2.32 9.67 -3.64 9.34 -5 9 C-2.25 2.25 -2.25 2.25 0 0 Z " fill="#024785" transform="translate(25,129)"/>
<path d="M0 0 C0.66 0 1.32 0 2 0 C2.125 7.625 2.125 7.625 1 11 C1.66 11 2.32 11 3 11 C3 13.64 3 16.28 3 19 C2.01 19 1.02 19 0 19 C0 12.73 0 6.46 0 0 Z " fill="#0A4C88" transform="translate(0,120)"/>
<path d="M0 0 C0.33 0 0.66 0 1 0 C1 1.98 1 3.96 1 6 C3.64 6 6.28 6 9 6 C9 6.66 9 7.32 9 8 C6.36 8 3.72 8 1 8 C1 10.64 1 13.28 1 16 C0.34 16 -0.32 16 -1 16 C-1.09688221 10.55306686 -1.12862175 5.36095333 0 0 Z " fill="#024483" transform="translate(2,157)"/>
<path d="M0 0 C0.90492188 0.02320313 1.80984375 0.04640625 2.7421875 0.0703125 C4.10730469 0.09738281 4.10730469 0.09738281 5.5 0.125 C6.19867188 0.14820313 6.89734375 0.17140625 7.6171875 0.1953125 C7.6171875 1.1853125 7.6171875 2.1753125 7.6171875 3.1953125 C4.9771875 3.1953125 2.3371875 3.1953125 -0.3828125 3.1953125 C-0.7128125 4.1853125 -1.0428125 5.1753125 -1.3828125 6.1953125 C-1.3828125 5.2053125 -1.3828125 4.2153125 -1.3828125 3.1953125 C-2.0428125 3.1953125 -2.7028125 3.1953125 -3.3828125 3.1953125 C-3.3828125 4.8453125 -3.3828125 6.4953125 -3.3828125 8.1953125 C-3.7128125 8.1953125 -4.0428125 8.1953125 -4.3828125 8.1953125 C-4.5078125 5.3203125 -4.5078125 5.3203125 -4.3828125 2.1953125 C-2.3828125 0.1953125 -2.3828125 0.1953125 0 0 Z " fill="#286296" transform="translate(174.3828125,153.8046875)"/>
<path d="M0 0 C0.99 0 1.98 0 3 0 C3 4.62 3 9.24 3 14 C2.01 14 1.02 14 0 14 C0 9.38 0 4.76 0 0 Z " fill="#044583" transform="translate(228,154)"/>
<path d="M0 0 C0.99 0 1.98 0 3 0 C4.32 2.64 5.64 5.28 7 8 C4.69 8 2.38 8 0 8 C0 5.36 0 2.72 0 0 Z " fill="#F3F6F9" transform="translate(37,166)"/>
<path d="M0 0 C0.66 0 1.32 0 2 0 C2 0.99 2 1.98 2 3 C3.423125 3.433125 3.423125 3.433125 4.875 3.875 C8 5 8 5 10 7 C9.67 7.33 9.34 7.66 9 8 C7.1875 7.9140625 7.1875 7.9140625 5 7.625 C4.278125 7.53476563 3.55625 7.44453125 2.8125 7.3515625 C1 7 1 7 0 6 C-0.04080783 4.00041636 -0.04254356 1.99954746 0 0 Z " fill="#0C4D89" transform="translate(171,157)"/>
<path d="M0 0 C1.125 1.5 1.125 1.5 2 4 C1.57598348 6.7773082 0.81108065 9.29639783 0 12 C-0.66 11.67 -1.32 11.34 -2 11 C-2.99 12.485 -2.99 12.485 -4 14 C-4.66 14 -5.32 14 -6 14 C-5.38722388 11.03824877 -4.74627478 9.61941217 -3 7 C-2.43182698 5.78285872 -1.88996248 4.55309144 -1.375 3.3125 C-0.92125 2.219375 -0.4675 1.12625 0 0 Z " fill="#2F689B" transform="translate(58,122)"/>
<path d="M0 0 C1.98 0 3.96 0 6 0 C6.625 1.875 6.625 1.875 7 4 C5 6 5 6 2.375 6.125 C1.59125 6.08375 0.8075 6.0425 0 6 C0 4.02 0 2.04 0 0 Z " fill="#DCE5EE" transform="translate(115,123)"/>
<path d="M0 0 C0.99 0 1.98 0 3 0 C3 4.62 3 9.24 3 14 C2.01 13.67 1.02 13.34 0 13 C0 8.71 0 4.42 0 0 Z " fill="#024584" transform="translate(90,120)"/>
<path d="M0 0 C1.62418745 -0.08090971 3.24951745 -0.13914995 4.875 -0.1875 C5.77992187 -0.22230469 6.68484375 -0.25710937 7.6171875 -0.29296875 C8.79667969 -0.14794922 8.79667969 -0.14794922 10 0 C10.66 0.99 11.32 1.98 12 3 C11.3125 6.125 11.3125 6.125 10 9 C9.01 9.33 8.02 9.66 7 10 C7.33 8.02 7.66 6.04 8 4 C7.05125 3.896875 6.1025 3.79375 5.125 3.6875 C2 3 2 3 0 0 Z " fill="#17578F" transform="translate(113,120)"/>
<path d="M0 0 C1.98 0 3.96 0 6 0 C6.042721 1.66611905 6.04063832 3.33382885 6 5 C5 6 5 6 2.4375 6.0625 C1.2309375 6.0315625 1.2309375 6.0315625 0 6 C0 4.02 0 2.04 0 0 Z " fill="#E8EEF3" transform="translate(75,131)"/>
<path d="M0 0 C1.65 0 3.3 0 5 0 C5.38218767 1.65614657 5.71395102 3.32457024 6 5 C5 6 5 6 2.4375 6.0625 C1.2309375 6.0315625 1.2309375 6.0315625 0 6 C0 4.02 0 2.04 0 0 Z " fill="#E9EFF4" transform="translate(37,157)"/>
<path d="M0 0 C0.99 0.495 0.99 0.495 2 1 C2 2.32 2 3.64 2 5 C2.45375 4.54625 2.9075 4.0925 3.375 3.625 C4.58333333 2.41666667 5.79166667 1.20833333 7 0 C6.67 2.64 6.34 5.28 6 8 C4.68 8.33 3.36 8.66 2 9 C0.50178941 5.62902617 0 3.79557881 0 0 Z " fill="#14538C" transform="translate(50,131)"/>
<path d="M0 0 C1.65 0 3.3 0 5 0 C5.33 1.65 5.66 3.3 6 5 C4.02 5.33 2.04 5.66 0 6 C0 4.02 0 2.04 0 0 Z " fill="#ECF1F5" transform="translate(174,123)"/>
<path d="M0 0 C0.99 0.99 1.98 1.98 3 3 C0.28817788 5.60334924 -0.89133813 5.99456691 -4.75 6.1875 C-5.8225 6.125625 -6.895 6.06375 -8 6 C-7.67 5.01 -7.34 4.02 -7 3 C-5.5459375 2.814375 -5.5459375 2.814375 -4.0625 2.625 C-2.5465625 2.315625 -2.5465625 2.315625 -1 2 C-0.67 1.34 -0.34 0.68 0 0 Z " fill="#1C5991" transform="translate(102,134)"/>
<path d="M0 0 C0.33 0 0.66 0 1 0 C1.38909985 1.45463481 1.76088029 2.91391207 2.125 4.375 C2.43824219 5.59316406 2.43824219 5.59316406 2.7578125 6.8359375 C2.83773437 7.55007812 2.91765625 8.26421875 3 9 C2.34 9.66 1.68 10.32 1 11 C-1.25424122 9.21539237 -1.94902388 8.40780894 -2.3125 5.5 C-2 3 -2 3 0 0 Z " fill="#12528C" transform="translate(133,128)"/>
<path d="M0 0 C2.1640625 -0.29296875 2.1640625 -0.29296875 4.625 -0.1875 C5.44226563 -0.16042969 6.25953125 -0.13335937 7.1015625 -0.10546875 C8.04128906 -0.05326172 8.04128906 -0.05326172 9 0 C9 0.99 9 1.98 9 3 C5.37 3 1.74 3 -2 3 C-1.34 2.01 -0.68 1.02 0 0 Z " fill="#235E94" transform="translate(137,120)"/>
<path d="M0 0 C0.33 0 0.66 0 1 0 C1.33 1.65 1.66 3.3 2 5 C4.97 5.33 7.94 5.66 11 6 C11 6.66 11 7.32 11 8 C7.37 8 3.74 8 0 8 C0 5.36 0 2.72 0 0 Z " fill="#014281" transform="translate(154,131)"/>
<path d="M0 0 C1.65 0 3.3 0 5 0 C5.5625 1.9375 5.5625 1.9375 6 4 C5 5 5 5 2.4375 5.0625 C1.2309375 5.0315625 1.2309375 5.0315625 0 5 C0 3.35 0 1.7 0 0 Z " fill="#EAEFF4" transform="translate(75,123)"/>
<path d="M0 0 C2.97 0 5.94 0 9 0 C9 0.99 9 1.98 9 3 C6.03 3 3.06 3 0 3 C0 2.01 0 1.02 0 0 Z " fill="#205D93" transform="translate(74,162)"/>
<path d="M0 0 C1.32 0 2.64 0 4 0 C4.33 2.31 4.66 4.62 5 7 C4.01 7 3.02 7 2 7 C2 6.01 2 5.02 2 4 C1.34 4 0.68 4 0 4 C0 2.68 0 1.36 0 0 Z " fill="#11528C" transform="translate(28,120)"/>
<path d="M0 0 C0.99 0 1.98 0 3 0 C3 2.64 3 5.28 3 8 C2.01 8 1.02 8 0 8 C0 5.36 0 2.72 0 0 Z " fill="#0D4E8A" transform="translate(143,130)"/>
<path d="M0 0 C0.66 0 1.32 0 2 0 C2.125 2.375 2.125 2.375 2 5 C1.34 5.66 0.68 6.32 0 7 C-2.125 6.625 -2.125 6.625 -4 6 C-2.7260411 3.96166576 -1.38938077 1.96147874 0 0 Z " fill="#11518B" transform="translate(45,157)"/>
<path d="M0 0 C0 2.64 0 5.28 0 8 C-0.99 8.33 -1.98 8.66 -3 9 C-3 6.36 -3 3.72 -3 1 C-1 0 -1 0 0 0 Z " fill="#034784" transform="translate(134,159)"/>
<path d="M0 0 C0.66 0 1.32 0 2 0 C2.33 2.64 2.66 5.28 3 8 C1.68 8 0.36 8 -1 8 C-0.67 5.36 -0.34 2.72 0 0 Z " fill="#D5E0EB" transform="translate(28,124)"/>
<path d="M0 0 C1.32 0 2.64 0 4 0 C4.66 1.65 5.32 3.3 6 5 C4.35 4.67 2.7 4.34 1 4 C0.67 2.68 0.34 1.36 0 0 Z " fill="#266095" transform="translate(179,135)"/>
<path d="M0 0 C1.62490954 -0.02698189 3.24994633 -0.04638757 4.875 -0.0625 C5.77992187 -0.07410156 6.68484375 -0.08570312 7.6171875 -0.09765625 C10 0 10 0 12 1 C11.67 2.32 11.34 3.64 11 5 C10.67 4.525625 10.34 4.05125 10 3.5625 C6.90186733 1.14208385 3.87973208 1.31801083 0 1 C0 0.67 0 0.34 0 0 Z " fill="#0E508B" transform="translate(71,120)"/>
<path d="M0 0 C1.37562854 1.28965176 2.70766393 2.62689293 4 4 C4 4.66 4 5.32 4 6 C2.35 5.67 0.7 5.34 -1 5 C-0.67 3.35 -0.34 1.7 0 0 Z " fill="#246095" transform="translate(44,168)"/>
<path d="M0 0 C0.66 0 1.32 0 2 0 C2.33 1.98 2.66 3.96 3 6 C1.68 6 0.36 6 -1 6 C-0.67 4.02 -0.34 2.04 0 0 Z " fill="#1D5890" transform="translate(35,133)"/>
<path d="M0 0 C2.64 0 5.28 0 8 0 C8 0.99 8 1.98 8 3 C5.36 2.67 2.72 2.34 0 2 C0 1.34 0 0.68 0 0 Z " fill="#0F4F8A" transform="translate(137,154)"/>
<path d="M0 0 C0.99 0.99 1.98 1.98 3 3 C2.67 3.99 2.34 4.98 2 6 C0.68 5.67 -0.64 5.34 -2 5 C-1.34 3.35 -0.68 1.7 0 0 Z " fill="#1C5890" transform="translate(22,133)"/>
<path d="M0 0 C0.66 0 1.32 0 2 0 C2 1.98 2 3.96 2 6 C1.01 6 0.02 6 -1 6 C-1.042721 4.33388095 -1.04063832 2.66617115 -1 1 C-0.67 0.67 -0.34 0.34 0 0 Z " fill="#0D4F8A" transform="translate(83,131)"/>
<path d="M0 0 C2.31 0.33 4.62 0.66 7 1 C6.38125 1.2475 5.7625 1.495 5.125 1.75 C2.64931313 3.20628639 2.04874998 4.37812506 1 7 C0.67 4.69 0.34 2.38 0 0 Z " fill="#024584" transform="translate(34,154)"/>
</svg>
