<?xml version="1.0" encoding="UTF-8"?>
<svg version="1.1" xmlns="http://www.w3.org/2000/svg" width="282" height="72">
<path d="M0 0 C32.34 0 64.68 0 98 0 C98 0.66 98 1.32 98 2 C96.42578125 3.515625 96.42578125 3.515625 94.3125 5.25 C90.74663606 8.275962 87.92488753 11.36365334 85 15 C82.3125 17.875 82.3125 17.875 80 20 C79.34 20 78.68 20 78 20 C77.505 21.485 77.505 21.485 77 23 C76.34 23 75.68 23 75 23 C74.77183594 23.55341064 74.54367188 24.10682129 74.30859375 24.67700195 C72.62310099 27.66906606 70.49649347 29.74510635 68.0625 32.16796875 C67.58176025 32.64825027 67.10102051 33.1285318 66.60571289 33.62336731 C65.59269849 34.6333707 64.5772648 35.64095273 63.55957031 36.64624023 C62.00004002 38.18746045 60.4487143 39.73658712 58.8984375 41.28710938 C50.21163743 49.93064112 50.21163743 49.93064112 46.89926147 50.12025452 C46.03322296 50.11803391 45.16718445 50.11581329 44.27490234 50.11352539 C43.28031006 50.11340454 42.28571777 50.11328369 41.26098633 50.11315918 C39.68933716 50.10548523 39.68933716 50.10548523 38.0859375 50.09765625 C37.12469971 50.09664917 36.16346191 50.09564209 35.1730957 50.09460449 C31.57371838 50.08936254 27.97435802 50.07540133 24.375 50.0625 C12.309375 50.0315625 12.309375 50.0315625 0 50 C0 33.5 0 17 0 0 Z " fill="#148ED7" transform="translate(0,0)"/>
<path d="M0 0 C0.70125 0.32226562 1.4025 0.64453125 2.125 0.9765625 C1.465 2.9565625 0.805 4.9365625 0.125 6.9765625 C-0.390625 6.8115625 -0.90625 6.6465625 -1.4375 6.4765625 C-4.60863876 5.8260725 -7.64718334 5.9144891 -10.875 5.9765625 C-11.205 6.9665625 -11.535 7.9565625 -11.875 8.9765625 C-11.21113281 9.15832031 -10.54726562 9.34007812 -9.86328125 9.52734375 C-8.98027344 9.77871094 -8.09726563 10.03007812 -7.1875 10.2890625 C-6.31738281 10.53269531 -5.44726562 10.77632812 -4.55078125 11.02734375 C-1.875 11.9765625 -1.875 11.9765625 3.125 14.9765625 C5.105 9.6965625 7.085 4.4165625 9.125 -1.0234375 C12.095 -1.0234375 15.065 -1.0234375 18.125 -1.0234375 C21.05004933 5.23011623 23.25287149 11.33050628 25.125 17.9765625 C25.455 11.7065625 25.785 5.4365625 26.125 -1.0234375 C28.64125 -1.1059375 31.1575 -1.1884375 33.75 -1.2734375 C34.92103271 -1.32806152 34.92103271 -1.32806152 36.11572266 -1.38378906 C41.2257707 -1.4642214 44.076248 -0.38701609 48.125 2.9765625 C49.86265543 6.45187337 49.72085352 10.1853626 49.125 13.9765625 C46.59531526 17.25831568 45.04768669 18.66900027 41.125 19.9765625 C38.79200175 20.01610484 36.45791811 20.02057982 34.125 19.9765625 C34.125 22.9465625 34.125 25.9165625 34.125 28.9765625 C29.505 28.9765625 24.885 28.9765625 20.125 28.9765625 C19.63 27.4915625 19.63 27.4915625 19.125 25.9765625 C15.495 25.6465625 11.865 25.3165625 8.125 24.9765625 C7.795 26.2965625 7.465 27.6165625 7.125 28.9765625 C3.79166667 28.9765625 0.45833333 28.9765625 -2.875 28.9765625 C-3.91527344 28.99976562 -4.95554687 29.02296875 -6.02734375 29.046875 C-7.27644531 29.06492187 -8.52554687 29.08296875 -9.8125 29.1015625 C-11.68228516 29.13636719 -11.68228516 29.13636719 -13.58984375 29.171875 C-16.875 28.9765625 -16.875 28.9765625 -19.875 26.9765625 C-19.545 25.3265625 -19.215 23.6765625 -18.875 21.9765625 C-14.875 21.9765625 -10.875 21.9765625 -6.875 21.9765625 C-6.545 20.9865625 -6.215 19.9965625 -5.875 18.9765625 C-7.669375 18.63625 -7.669375 18.63625 -9.5 18.2890625 C-14.19048775 17.07053721 -16.70098269 15.70603284 -19.875 11.9765625 C-20.66373112 8.79894073 -20.62881596 6.158022 -19.875 2.9765625 C-15.73422547 -3.08671449 -6.30277553 -2.24365107 0 0 Z " fill="#F2F8FC" transform="translate(21.875,10.0234375)"/>
<path d="M0 0 C3.58875 -0.0928125 3.58875 -0.0928125 7.25 -0.1875 C8.37003418 -0.22846802 8.37003418 -0.22846802 9.51269531 -0.27026367 C12.72890947 -0.31048797 14.71220619 -0.17511982 17.484375 1.51171875 C17.98453125 2.00285156 18.4846875 2.49398437 19 3 C19.33 2.01 19.66 1.02 20 0 C27.26 0 34.52 0 42 0 C42 1.98 42 3.96 42 6 C39.69 6 37.38 6 35 6 C35 12.27 35 18.54 35 25 C32.36 25 29.72 25 27 25 C27 19.06 27 13.12 27 7 C24.69 6.67 22.38 6.34 20 6 C20.04125 6.928125 20.0825 7.85625 20.125 8.8125 C20 12 20 12 18 15 C17.34 15 16.68 15 16 15 C16.99 16.6396875 16.99 16.6396875 18 18.3125 C19.58464929 20.93707538 20 21.8256378 20 25 C16.75 25.375 16.75 25.375 13 25 C9 20.28205128 9 20.28205128 9 17 C8.34 17 7.68 17 7 17 C7 19.64 7 22.28 7 25 C4.69 25 2.38 25 0 25 C0 16.75 0 8.5 0 0 Z M7 6 C7 7.65 7 9.3 7 11 C8.98 10.67 10.96 10.34 13 10 C12.67 8.68 12.34 7.36 12 6 C10.35 6 8.7 6 7 6 Z " fill="#666666" transform="translate(146,47)"/>
<path d="M0 0 C3.875 0.75 3.875 0.75 5.89453125 3.203125 C7.65903468 6.00620581 9.31479302 8.82876141 10.875 11.75 C11.205 8.12 11.535 4.49 11.875 0.75 C14.185 0.75 16.495 0.75 18.875 0.75 C18.875 9.33 18.875 17.91 18.875 26.75 C11.875 26.75 11.875 26.75 9.66015625 24.5625 C9.09167969 23.634375 8.52320313 22.70625 7.9375 21.75 C7.35097656 20.821875 6.76445312 19.89375 6.16015625 18.9375 C5.73605469 18.215625 5.31195313 17.49375 4.875 16.75 C4.81441406 17.38808594 4.75382813 18.02617187 4.69140625 18.68359375 C4.60761719 19.50988281 4.52382812 20.33617188 4.4375 21.1875 C4.35628906 22.01121094 4.27507812 22.83492187 4.19140625 23.68359375 C3.875 25.75 3.875 25.75 2.875 26.75 C-0.125 26.875 -0.125 26.875 -3.125 26.75 C-4.84067792 25.03432208 -4.25515825 22.77627265 -4.2578125 20.4375 C-4.25910156 19.36242187 -4.26039063 18.28734375 -4.26171875 17.1796875 C-4.25591797 15.48199219 -4.25591797 15.48199219 -4.25 13.75 C-4.25386719 12.61820313 -4.25773438 11.48640625 -4.26171875 10.3203125 C-4.26042969 9.24523437 -4.25914062 8.17015625 -4.2578125 7.0625 C-4.25668457 6.06863281 -4.25555664 5.07476562 -4.25439453 4.05078125 C-4.05571113 0.51796548 -3.5550914 0.85322194 0 0 Z " fill="#666666" transform="translate(206.125,7.25)"/>
<path d="M0 0 C2.5575 -0.061875 5.115 -0.12375 7.75 -0.1875 C8.94834473 -0.22846802 8.94834473 -0.22846802 10.17089844 -0.27026367 C13.40190571 -0.30810796 15.62646357 -0.21226356 18.4609375 1.3984375 C20.34476761 3.35876832 20.84452043 4.27910747 21 7 C20.0625 10.25 20.0625 10.25 19 13 C19.66 13.66 20.32 14.32 21 15 C21.36599043 18.36711191 21.37424895 20.34060899 19.6875 23.3125 C17.07387926 25.92612074 15.07386687 25.99798178 11.42578125 26.09765625 C10.05464924 26.09196386 8.68354437 26.07901509 7.3125 26.0625 C3.6928125 26.0315625 3.6928125 26.0315625 0 26 C0 17.42 0 8.84 0 0 Z M7 6 C7 7.32 7 8.64 7 10 C8.65 10 10.3 10 12 10 C12.33 8.68 12.66 7.36 13 6 C11.02 6 9.04 6 7 6 Z M7 16 C7 17.32 7 18.64 7 20 C10.465 19.505 10.465 19.505 14 19 C14 18.01 14 17.02 14 16 C11.69 16 9.38 16 7 16 Z " fill="#666666" transform="translate(104,8)"/>
<path d="M0 0 C7 0 7 0 9.21484375 2.1875 C9.78332031 3.115625 10.35179687 4.04375 10.9375 5 C11.52402344 5.928125 12.11054688 6.85625 12.71484375 7.8125 C13.13894531 8.534375 13.56304687 9.25625 14 10 C14.33 6.7 14.66 3.4 15 0 C17.31 0 19.62 0 22 0 C22 8.25 22 16.5 22 25 C15 25 15 25 12.78515625 22.8125 C12.21667969 21.884375 11.64820313 20.95625 11.0625 20 C10.47597656 19.071875 9.88945312 18.14375 9.28515625 17.1875 C8.86105469 16.465625 8.43695313 15.74375 8 15 C7.67 18.3 7.34 21.6 7 25 C4.69 25 2.38 25 0 25 C0 16.75 0 8.5 0 0 Z " fill="#666666" transform="translate(189,47)"/>
<path d="M0 0 C2.86697023 2.71994611 4.41820949 5.07291408 5 9 C2.69 9.33 0.38 9.66 -2 10 C-2.66 9.01 -3.32 8.02 -4 7 C-5.65 7.33 -7.3 7.66 -9 8 C-10.01687046 12.77762638 -10.01687046 12.77762638 -9.0625 17.4375 C-8.711875 17.953125 -8.36125 18.46875 -8 19 C-6.68 19 -5.36 19 -4 19 C-4.66 18.67 -5.32 18.34 -6 18 C-6 16.02 -6 14.04 -6 12 C-2.37 12 1.26 12 5 12 C5 16.62 5 21.24 5 26 C2.69 26 0.38 26 -2 26 C-3.5159375 26.3403125 -3.5159375 26.3403125 -5.0625 26.6875 C-9.00811889 27.10724669 -10.73030105 26.20349277 -14 24 C-17.26331306 20.47905697 -18.28814732 17.69606784 -18.5 13 C-18.27594762 7.27804687 -15.99521319 3.99521319 -12 0 C-8.19162055 -1.61123746 -3.88551632 -1.17283552 0 0 Z " fill="#666666" transform="translate(244,8)"/>
<path d="M0 0 C14.19642857 -0.53571429 14.19642857 -0.53571429 17.75 1.75 C21.04480417 5.04480417 22.28797064 7.7144223 22.3125 12.375 C22.19447123 16.59626426 21.50504217 19.49294097 19 23 C13.01885525 27.72195638 8.29441183 26 0 26 C0 17.42 0 8.84 0 0 Z M7 6 C7 10.62 7 15.24 7 20 C9.31 19.34 11.62 18.68 14 18 C14.92814565 13.31337245 14.92814565 13.31337245 14.4375 8.625 C12.68496174 6.3001178 12.68496174 6.3001178 7 6 Z " fill="#666666" transform="translate(156,8)"/>
<path d="M0 0 C3.5578125 -0.12375 3.5578125 -0.12375 7.1875 -0.25 C7.92508545 -0.28641602 8.6626709 -0.32283203 9.42260742 -0.36035156 C12.94682505 -0.41936615 14.91926184 -0.04803814 17.9609375 1.76171875 C20 4 20 4 20.55859375 6.03515625 C20.33381412 9.79840226 20.1272776 11.8090836 18 15 C17.34 15 16.68 15 16 15 C16.99 16.6396875 16.99 16.6396875 18 18.3125 C19.58464929 20.93707538 20 21.8256378 20 25 C16.75 25.375 16.75 25.375 13 25 C9 20.28205128 9 20.28205128 9 17 C8.34 17 7.68 17 7 17 C7 19.64 7 22.28 7 25 C4.69 25 2.38 25 0 25 C0 16.75 0 8.5 0 0 Z M7 6 C7 7.65 7 9.3 7 11 C8.65 11 10.3 11 12 11 C12.59070014 9.05396726 12.59070014 9.05396726 13 7 C11.93354885 5.70366379 11.93354885 5.70366379 9.4375 5.9375 C8.633125 5.958125 7.82875 5.97875 7 6 Z " fill="#666666" transform="translate(234,47)"/>
<path d="M0 0 C2.5625 1.875 2.5625 1.875 4 4 C4 4.99 4 5.98 4 7 C2.35 7.66 0.7 8.32 -1 9 C-1.66 8.34 -2.32 7.68 -3 7 C-4.98821313 6.60235737 -6.98944339 6.26224651 -9 6 C-8.19660691 8.17694938 -8.19660691 8.17694938 -6.07421875 8.7109375 C-5.28660156 8.93007813 -4.49898438 9.14921875 -3.6875 9.375 C0.12119801 10.59402596 2.7233199 11.5354868 5 15 C5.5625 17.9375 5.5625 17.9375 5 21 C2.46169382 24.46132661 0.74932433 25.77797798 -3.375 27 C-8.3994766 27 -12.13252293 25.62651229 -15.9375 22.3125 C-16.4634375 21.6628125 -16.4634375 21.6628125 -17 21 C-16.25 19.0625 -16.25 19.0625 -15 17 C-12.875 16.25 -12.875 16.25 -11 16 C-10.67 16.99 -10.34 17.98 -10 19 C-7.69 19 -5.38 19 -3 19 C-2.67 18.34 -2.34 17.68 -2 17 C-2.59167969 16.91363281 -3.18335938 16.82726562 -3.79296875 16.73828125 C-7.92455517 16.00362722 -10.63797457 15.2534178 -14.125 12.8125 C-16 10 -16 10 -16 6.375 C-14.65591398 1.83870968 -14.65591398 1.83870968 -12 0 C-7.83425207 -1.38858264 -4.2488164 -1.00468402 0 0 Z " fill="#666666" transform="translate(267,8)"/>
<path d="M0 0 C2.31 0 4.62 0 7 0 C7.06058594 1.12019531 7.12117187 2.24039062 7.18359375 3.39453125 C7.26801424 4.86719984 7.35266149 6.33985544 7.4375 7.8125 C7.47681641 8.55048828 7.51613281 9.28847656 7.55664062 10.04882812 C7.74381035 13.23071342 7.98720793 15.96162378 9 19 C10.32 19 11.64 19 13 19 C13.33 12.73 13.66 6.46 14 0 C16.31 0 18.62 0 21 0 C21.14575327 3.39537852 21.23421542 6.78994902 21.3125 10.1875 C21.35439453 11.14720703 21.39628906 12.10691406 21.43945312 13.09570312 C21.52058697 17.78523925 21.5498822 20.21751276 18.79296875 24.140625 C14.50054883 26.99823603 10.98059129 26.89961419 6 26 C2.44319828 23.89495409 1.30531064 22.91593192 0 19 C-0.0806622 17.51876453 -0.10761193 16.03417796 -0.09765625 14.55078125 C-0.09443359 13.70322266 -0.09121094 12.85566406 -0.08789062 11.98242188 C-0.07951172 11.10134766 -0.07113281 10.22027344 -0.0625 9.3125 C-0.05798828 8.41982422 -0.05347656 7.52714844 -0.04882812 6.60742188 C-0.03704983 4.40488013 -0.02060164 2.20247401 0 0 Z " fill="#666666" transform="translate(179,8)"/>
<path d="M0 0 C3.5578125 -0.0928125 3.5578125 -0.0928125 7.1875 -0.1875 C8.29387817 -0.22846802 8.29387817 -0.22846802 9.42260742 -0.27026367 C13.80532083 -0.32530653 16.6148867 0.16416924 20 3 C21.38438095 6.38790715 21.32092018 9.89136667 20.3125 13.375 C17.10802919 17.34244005 12.84289281 17.44120468 8 18 C8 20.31 8 22.62 8 25 C5.36 25 2.72 25 0 25 C0 16.75 0 8.5 0 0 Z M7 6 C7.33 7.65 7.66 9.3 8 11 C9.65 11 11.3 11 13 11 C12.67 9.35 12.34 7.7 12 6 C10.35 6 8.7 6 7 6 Z " fill="#666666" transform="translate(104,47)"/>
<path d="M0 0 C5.94 0 11.88 0 18 0 C18 1.98 18 3.96 18 6 C14.37 6 10.74 6 7 6 C7 6.99 7 7.98 7 9 C9.64 9 12.28 9 15 9 C15 11.31 15 13.62 15 16 C12.36 16 9.72 16 7 16 C7 17.32 7 18.64 7 20 C10.96 20 14.92 20 19 20 C19 21.65 19 23.3 19 25 C12.73 25 6.46 25 0 25 C0 16.75 0 8.5 0 0 Z " fill="#666666" transform="translate(214,47)"/>
<path d="M0 0 C2.64 0 5.28 0 8 0 C9.33834986 3.78991493 10.66982663 7.58220836 12 11.375 C12.3815625 12.45523438 12.763125 13.53546875 13.15625 14.6484375 C13.5171875 15.6796875 13.878125 16.7109375 14.25 17.7734375 C14.58515625 18.72653809 14.9203125 19.67963867 15.265625 20.66162109 C16 23 16 23 16 25 C13.36 25 10.72 25 8 25 C8 23.68 8 22.36 8 21 C5.36 21 2.72 21 0 21 C-0.33 22.32 -0.66 23.64 -1 25 C-3.31 25 -5.62 25 -8 25 C-5.45962748 16.62217574 -2.80874917 8.29178612 0 0 Z M3 12 C3 12.99 3 13.98 3 15 C3.99 14.67 4.98 14.34 6 14 C5.67 13.34 5.34 12.68 5 12 C4.34 12 3.68 12 3 12 Z " fill="#666666" transform="translate(129,47)"/>
<path d="M0 0 C2.31 0 4.62 0 7 0 C7 6.27 7 12.54 7 19 C8.629375 18.979375 10.25875 18.95875 11.9375 18.9375 C13.62499341 18.91613932 15.31391034 18.92794489 17 19 C18 20 18 20 18 26 C12.06 26 6.12 26 0 26 C0 17.42 0 8.84 0 0 Z " fill="#666666" transform="translate(137,8)"/>
<path d="M0 0 C2.31 0 4.62 0 7 0 C8.71567792 1.71567792 8.13015825 3.97372735 8.1328125 6.3125 C8.13474609 7.92511719 8.13474609 7.92511719 8.13671875 9.5703125 C8.13285156 10.70210937 8.12898437 11.83390625 8.125 13 C8.12886719 14.13179687 8.13273438 15.26359375 8.13671875 16.4296875 C8.13542969 17.50476563 8.13414062 18.57984375 8.1328125 19.6875 C8.13168457 20.68136719 8.13055664 21.67523437 8.12939453 22.69921875 C8 25 8 25 7 26 C4.69 26 2.38 26 0 26 C0 17.42 0 8.84 0 0 Z " fill="#666666" transform="translate(127,8)"/>
<path d="M0 0 C4 1 4 1 6.875 2.9375 C9.90173773 4.9351469 12.53308314 6.00945233 16 7 C15.67 8.32 15.34 9.64 15 11 C13.741875 11.020625 12.48375 11.04125 11.1875 11.0625 C10.47980469 11.07410156 9.77210937 11.08570313 9.04296875 11.09765625 C7 11 7 11 4 10 C2.99782936 13.58327753 2.99782936 13.58327753 4 17 C2.68 16.67 1.36 16.34 0 16 C0 10.72 0 5.44 0 0 Z " fill="#247BCA" transform="translate(0,22)"/>
<path d="M0 0 C2.00720923 0.28674418 4.0085944 0.61866701 6 1 C6 2.98 6 4.96 6 7 C4.02 7.99 4.02 7.99 2 9 C0.68 8.01 -0.64 7.02 -2 6 C-1.125 1.125 -1.125 1.125 0 0 Z " fill="#1E5FBB" transform="translate(61,41)"/>
<path d="M0 0 C2.97 0 5.94 0 9 0 C9 1.98 9 3.96 9 6 C6.03 6 3.06 6 0 6 C0 4.02 0 2.04 0 0 Z " fill="#666666" transform="translate(273,20)"/>
<path d="M0 0 C1.66611905 -0.042721 3.33382885 -0.04063832 5 0 C6 1 6 1 6.125 3.5 C6 6 6 6 5 7 C3.33382885 7.04063832 1.66611905 7.042721 0 7 C0 4.69 0 2.38 0 0 Z " fill="#188AD4" transform="translate(57,16)"/>
<path d="M0 0 C0.66 0.33 1.32 0.66 2 1 C2.59355614 3.64860427 2.74209269 6.29197322 3 9 C1.35 9 -0.3 9 -2 9 C-1.51421457 5.87709365 -1.0013988 3.00419641 0 0 Z " fill="#3B90D4" transform="translate(35,20)"/>
</svg>
