<?xml version="1.0" encoding="UTF-8"?>
<svg version="1.1" xmlns="http://www.w3.org/2000/svg" width="282" height="212">
<path d="M0 0 C93.06 0 186.12 0 282 0 C282 69.96 282 139.92 282 212 C188.94 212 95.88 212 0 212 C0 142.04 0 72.08 0 0 Z " fill="#FDFDFC" transform="translate(0,0)"/>
<path d="M0 0 C93.06 0 186.12 0 282 0 C282 69.96 282 139.92 282 212 C188.94 212 95.88 212 0 212 C0 142.04 0 72.08 0 0 Z M116.7388916 7.10002136 C113.30478951 8.87737109 109.51998254 8.45977579 105.7421875 8.36328125 C103.96354155 8.36314673 102.18489539 8.36382394 100.40625 8.36523438 C97.64834712 8.34448174 94.89134895 8.31278685 92.13378906 8.2644043 C78.05396097 8.05838886 67.1159946 9.46224331 56 19 C56 19.66 56 20.32 56 21 C55.13375 21.309375 55.13375 21.309375 54.25 21.625 C51.19540291 23.49169822 49.90583572 26.0141907 48 29 C47.34 29.33 46.68 29.66 46 30 C41.0275913 40.07635827 40.29603524 49.69446433 40.43237305 60.73583984 C40.43378718 62.36349951 40.43298443 63.99116236 40.43016052 65.61882019 C40.42873919 69.99210582 40.45791826 74.36469103 40.49303031 78.73781538 C40.52451032 83.32481707 40.52724147 87.91183883 40.53315735 92.49893188 C40.54863269 101.16490594 40.58957478 109.83056065 40.6399048 118.49639475 C40.69599587 128.37073052 40.72333423 138.24508238 40.74838197 148.11953807 C40.80049698 168.41320289 40.88831517 188.70658124 41 209 C62.15838164 209.09362926 83.31672889 209.16407009 104.47527599 209.20724869 C114.30056388 209.22783419 124.12572271 209.25587773 133.95092773 209.30175781 C142.51910106 209.3417488 151.08718086 209.36746194 159.65544492 209.37635398 C164.1882071 209.38154805 168.72070183 209.39367146 173.25337791 209.42292023 C177.5289383 209.45028358 181.80412377 209.45840324 186.07976341 209.45243073 C187.64011683 209.45352169 189.20048417 209.46135018 190.76076126 209.4768219 C201.52342024 209.57821455 212.06802368 208.947589 221.28125 202.81640625 C222.0134375 202.07261719 222.745625 201.32882813 223.5 200.5625 C224.30050781 199.76585937 225.10101563 198.96921875 225.92578125 198.1484375 C226.61027344 197.43945312 227.29476562 196.73046875 228 196 C229.3303125 194.8553125 229.3303125 194.8553125 230.6875 193.6875 C238.84700207 184.20483543 241.11023335 175.41924196 241.17578125 163.25 C241.19896743 161.57290395 241.22308427 159.89582055 241.24804688 158.21875 C241.28317017 155.60538047 241.31253851 152.99248346 241.32592773 150.37890625 C241.34146622 147.83537577 241.38168638 145.29317537 241.42578125 142.75 C241.42291862 141.59032715 241.42291862 141.59032715 241.41999817 140.40722656 C241.43648911 139.66956055 241.45298004 138.93189453 241.4699707 138.171875 C241.47583694 137.5334668 241.48170319 136.89505859 241.48774719 136.23730469 C242 134 242 134 243.99978638 130.72177124 C246.23129394 126.9766561 246.57470363 123.58314848 246.53344727 119.27978516 C246.54206284 118.54219467 246.55067841 117.80460419 246.55955505 117.04466248 C246.58210881 114.62576387 246.57549533 112.20803412 246.56640625 109.7890625 C246.57164731 108.09426534 246.57792555 106.3994711 246.58518982 104.7046814 C246.59557504 101.15910074 246.59106094 97.61392188 246.57641602 94.06835938 C246.55924826 89.54348725 246.58270762 85.01988742 246.61790562 80.49515724 C246.63995846 76.99646728 246.63841891 73.49807791 246.6301403 69.99934006 C246.62932476 68.33211244 246.63611179 66.66486187 246.65091133 64.99769974 C246.718585 55.99364296 246.72937155 48.44940437 241 41 C240.34 40.01 239.68 39.02 239 38 C237.67899584 37.30922491 236.34402687 36.64483642 235 36 C231.15932643 33.02197772 227.69570263 29.88373036 224.6875 26.0625 C224.130625 25.381875 223.57375 24.70125 223 24 C222.01 24 221.02 24 220 24 C219.59007812 23.11006348 219.59007812 23.11006348 219.171875 22.20214844 C217.32658027 18.7345321 214.66386048 16.10862386 212 13.25 C211.18015625 12.34701172 211.18015625 12.34701172 210.34375 11.42578125 C208.93997089 9.90846118 207.47416237 8.4490346 206 7 C205.34 7 204.68 7 204 7 C204 6.34 204 5.68 204 5 C200.23830426 3.80396888 196.51054171 3.83815262 192.60449219 3.82299805 C191.86573349 3.81642685 191.12697479 3.80985565 190.36582947 3.80308533 C187.92617684 3.78341007 185.48658562 3.77170227 183.046875 3.76171875 C181.79309429 3.75560546 181.79309429 3.75560546 180.51398468 3.74936867 C176.08924102 3.72853191 171.66452815 3.7142202 167.23974609 3.70483398 C162.68243079 3.6937782 158.1256049 3.65938125 153.56846237 3.61966228 C150.05272548 3.5934495 146.53710439 3.585138 143.02127838 3.58155251 C141.34204048 3.57669811 139.66280735 3.56511697 137.98366547 3.54651451 C126.89146198 3.19845013 126.89146198 3.19845013 116.7388916 7.10002136 Z " fill="#FEFEFE" transform="translate(0,0)"/>
<path d="M0 0 C0.7453299 -0.00189835 1.49065979 -0.00379669 2.25857544 -0.00575256 C4.7121242 -0.00944484 7.16537421 0.00122138 9.61889648 0.01245117 C11.32852646 0.01364393 13.0381571 0.01409593 14.74778748 0.01383972 C18.32620359 0.01540189 21.90451929 0.02367165 25.48291016 0.03710938 C30.06842273 0.05411161 34.65382517 0.05792316 39.23936558 0.05716419 C42.76780752 0.05743616 46.29622541 0.06292151 49.82465935 0.07016563 C51.51554113 0.07334607 53.20642564 0.07531825 54.89731026 0.07605934 C57.25971235 0.0782288 59.62199797 0.0869858 61.984375 0.09765625 C62.68214554 0.09720306 63.37991608 0.09674988 64.09883118 0.09628296 C67.35319865 0.11776335 70.3142642 0.2471271 73.42749023 1.24291992 C73.42749023 1.90291992 73.42749023 2.56291992 73.42749023 3.24291992 C74.02529297 3.51168945 74.6230957 3.78045898 75.23901367 4.05737305 C77.43746856 5.24832541 78.7569598 6.38678732 80.44311523 8.21166992 C81.23588867 9.06825195 81.23588867 9.06825195 82.04467773 9.94213867 C82.58350586 10.53639648 83.12233398 11.1306543 83.67749023 11.74291992 C84.23178711 12.33717773 84.78608398 12.93143555 85.35717773 13.54370117 C89.42749023 17.98495348 89.42749023 17.98495348 89.42749023 20.24291992 C90.01788086 20.33057617 90.60827148 20.41823242 91.21655273 20.50854492 C94.02161072 21.44026029 94.96674624 22.70039456 96.80249023 24.99291992 C99.78576885 28.55236823 102.66687589 31.50792767 106.42749023 34.24291992 C107.41749023 34.24291992 108.40749023 34.24291992 109.42749023 34.24291992 C110.11108398 35.90307617 110.79467773 37.56323242 111.47827148 39.22338867 C112.39928198 41.33908252 112.39928198 41.33908252 113.96255493 43.39784241 C115.77594616 46.91966251 115.84957217 49.9175096 115.81567383 53.78369141 C115.82355927 54.89686737 115.82355927 54.89686737 115.831604 56.03253174 C115.84476719 58.47657555 115.83607841 60.91996365 115.82592773 63.36401367 C115.82794975 65.06885401 115.83086225 66.7736935 115.83462524 68.47853088 C115.83904378 72.04859669 115.83263356 75.61843701 115.81860352 79.18847656 C115.80152482 83.7560115 115.8113473 88.32301704 115.82932091 92.89053249 C115.8401826 96.41050678 115.83670126 99.93035642 115.82893753 103.45033455 C115.82694144 105.13398362 115.82937399 106.81764414 115.83637619 108.50127983 C115.84402866 110.85874086 115.83233366 113.2153556 115.81567383 115.57275391 C115.82174652 116.26333389 115.82781921 116.95391388 115.83407593 117.66542053 C115.77456016 122.23077553 114.72504603 125.31861176 112.42749023 129.24291992 C111.43749023 129.24291992 110.44749023 129.24291992 109.42749023 129.24291992 C109.42338135 128.50654297 109.41927246 127.77016602 109.41503906 127.01147461 C109.38212031 123.67114297 109.3114771 120.33263942 109.23999023 116.99291992 C109.23418945 115.83405273 109.22838867 114.67518555 109.22241211 113.48120117 C109.27708323 106.98427728 109.27708323 106.98427728 106.07592773 101.67651367 C105.20194336 101.20342773 104.32795898 100.7303418 103.42749023 100.24291992 C102.32928148 99.04555011 101.26195398 97.8184904 100.23999023 96.55541992 C98.1765628 93.98146178 98.1765628 93.98146178 95.42749023 92.24291992 C95.42749023 91.58291992 95.42749023 90.92291992 95.42749023 90.24291992 C94.76749023 90.24291992 94.10749023 90.24291992 93.42749023 90.24291992 C92.06572102 88.59940535 90.73786958 86.92769336 89.42749023 85.24291992 C86.71258126 82.38125911 83.88788468 79.7684578 80.86499023 77.24291992 C77.9852114 74.81096847 75.73091632 72.23737384 73.42749023 69.24291992 C71.7725396 67.56461901 70.10353314 65.9001573 68.42749023 64.24291992 C67.38600524 63.1919457 66.3456885 62.1398128 65.30639648 61.08666992 C64.20096017 59.97205442 63.09549096 58.85747154 61.98999023 57.74291992 C61.16917969 56.90954102 61.16917969 56.90954102 60.33178711 56.05932617 C57.65961607 53.37134347 54.97752799 50.83191038 52.01733398 48.46166992 C50.73536133 47.36338867 50.73536133 47.36338867 49.42749023 46.24291992 C49.42749023 45.58291992 49.42749023 44.92291992 49.42749023 44.24291992 C48.56510742 43.86586914 48.56510742 43.86586914 47.68530273 43.48120117 C45.13266136 42.08122312 43.36515901 40.48132443 41.30249023 38.43041992 C40.61928711 37.76397461 39.93608398 37.0975293 39.23217773 36.41088867 C37.30740279 34.09865903 36.48182483 32.03781552 35.42749023 29.24291992 C33.13494434 26.70905341 30.87418644 24.56888742 28.11499023 22.55541992 C27.55811523 22.12229492 27.00124023 21.68916992 26.42749023 21.24291992 C26.42749023 20.58291992 26.42749023 19.92291992 26.42749023 19.24291992 C25.71206055 19.00573242 24.99663086 18.76854492 24.25952148 18.52416992 C20.96728612 17.03471723 18.77998176 15.17497145 16.11499023 12.74291992 C14.79047852 11.55182617 14.79047852 11.55182617 13.43920898 10.33666992 C11.42749023 8.24291992 11.42749023 8.24291992 11.42749023 6.24291992 C3.50749023 5.91291992 -4.41250977 5.58291992 -12.57250977 5.24291992 C-12.57250977 4.25291992 -12.57250977 3.26291992 -12.57250977 2.24291992 C-8.36429228 0.19807404 -4.59235009 -0.03709217 0 0 Z " fill="#FDE76E" transform="translate(130.572509765625,3.757080078125)"/>
<path d="M0 0 C1.65 0.66 3.3 1.32 5 2 C5 5.3 5 8.6 5 12 C7.31 12 9.62 12 12 12 C12 11.01 12 10.02 12 9 C10.68 9 9.36 9 8 9 C8 7.02 8 5.04 8 3 C10.31 3 12.62 3 15 3 C13.68 3.33 12.36 3.66 11 4 C11 4.99 11 5.98 11 7 C11.61875 7.144375 12.2375 7.28875 12.875 7.4375 C15 8 15 8 17 9 C17 12 17 15 17 18 C16.34 18.33 15.68 18.66 15 19 C15.165 19.825 15.33 20.65 15.5 21.5 C16.05896045 25.41272317 16.06807187 29.05183173 16 33 C14.68 33 13.36 33 12 33 C12 33.66 12 34.32 12 35 C8.97580475 34.41196203 5.98241547 33.77321882 3 33 C3 30.69 3 28.38 3 26 C2.34 26.33 1.68 26.66 1 27 C0.34227572 30.02934491 0.34227572 30.02934491 0 33 C-1.33333333 33.33333333 -2.66666667 33.66666667 -4 34 C-4.5878125 34.18691406 -5.175625 34.37382812 -5.78125 34.56640625 C-8.57248906 35.11187726 -10.926961 34.82179719 -13.75 34.5 C-17.47958726 34.13158955 -20.79974579 33.95738324 -24.5 34.5625 C-27.95727665 34.99465958 -29.2116126 34.97510774 -32 33 C-32 32.01 -32 31.02 -32 30 C-32.66 30 -33.32 30 -34 30 C-34 30.99 -34 31.98 -34 33 C-34.99 33 -35.98 33 -37 33 C-37 30.03 -37 27.06 -37 24 C-37.33 24 -37.66 24 -38 24 C-38 26.97 -38 29.94 -38 33 C-40.64 33 -43.28 33 -46 33 C-46 30.69 -46 28.38 -46 26 C-46.66 26 -47.32 26 -48 26 C-48 28.31 -48 30.62 -48 33 C-51.3 33 -54.6 33 -58 33 C-58.28875 32.195625 -58.5775 31.39125 -58.875 30.5625 C-59.73262568 27.8673532 -59.73262568 27.8673532 -62 27 C-62 29.31 -62 31.62 -62 34 C-64.83994882 34.81141395 -66.42244783 35.24752236 -69.1875 34.0625 C-73.40198541 32.47036107 -77.54301351 32.84422183 -82 33 C-82 32.34 -82 31.68 -82 31 C-82.99 31 -83.98 31 -85 31 C-85 31.66 -85 32.32 -85 33 C-93.31333002 34.77013871 -102.66463501 36.68882742 -111 34 C-112.60725635 30.78548731 -112.05748185 27.56387464 -112 24 C-106.40693931 21.94540628 -103.59306069 21.94540628 -98 24 C-98 23.01 -98 22.02 -98 21 C-95.69 21 -93.38 21 -91 21 C-90.7834375 20.1028125 -90.7834375 20.1028125 -90.5625 19.1875 C-90.1127561 17.43849596 -89.57107659 15.71322977 -89 14 C-88.96079185 12.00038436 -88.95556653 9.99950636 -89 8 C-90.32 8 -91.64 8 -93 8 C-93 9.98 -93 11.96 -93 14 C-93.66 14 -94.32 14 -95 14 C-95 11.03 -95 8.06 -95 5 C-93.02 5 -91.04 5 -89 5 C-89 4.34 -89 3.68 -89 3 C-88.34 3 -87.68 3 -87 3 C-87 3.66 -87 4.32 -87 5 C-86.01 5 -85.02 5 -84 5 C-84 4.01 -84 3.02 -84 2 C-80.73086376 0.96884721 -78.13958652 1.0361016 -74.75 1.4375 C-73.85796875 1.53933594 -72.9659375 1.64117187 -72.046875 1.74609375 C-71.37140625 1.82988281 -70.6959375 1.91367188 -70 2 C-69.505 4.475 -69.505 4.475 -69 7 C-68.01 7 -67.02 7 -66 7 C-66.2784375 7.9590625 -66.2784375 7.9590625 -66.5625 8.9375 C-66.706875 9.618125 -66.85125 10.29875 -67 11 C-66.505 11.495 -66.505 11.495 -66 12 C-65.34 11.01 -64.68 10.02 -64 9 C-62.68 9 -61.36 9 -60 9 C-60 8.34 -60 7.68 -60 7 C-61.32 7 -62.64 7 -64 7 C-64 6.34 -64 5.68 -64 5 C-61.69 5 -59.38 5 -57 5 C-56.67 4.34 -56.34 3.68 -56 3 C-55.34 3 -54.68 3 -54 3 C-54 3.66 -54 4.32 -54 5 C-53.01 5 -52.02 5 -51 5 C-50.505 6.98 -50.505 6.98 -50 9 C-50.99 8.67 -51.98 8.34 -53 8 C-53 9.32 -53 10.64 -53 12 C-52.401875 11.814375 -51.80375 11.62875 -51.1875 11.4375 C-49 11 -49 11 -46 12 C-46.495 9.03 -46.495 9.03 -47 6 C-41.98367235 5.10820842 -37.97983973 4.82056427 -33 6 C-32.505 6.495 -32.505 6.495 -32 7 C-31.67 5.68 -31.34 4.36 -31 3 C-29.02 3 -27.04 3 -25 3 C-25 3.99 -25 4.98 -25 6 C-24.01 6.495 -24.01 6.495 -23 7 C-23.66 7 -24.32 7 -25 7 C-25 8.98 -25 10.96 -25 13 C-24.34 13 -23.68 13 -23 13 C-23 13.66 -23 14.32 -23 15 C-24.65 15 -26.3 15 -28 15 C-28.33 16.98 -28.66 18.96 -29 21 C-28.46375 20.690625 -27.9275 20.38125 -27.375 20.0625 C-24.60115271 18.82156832 -21.99403779 18.45561445 -19 18 C-18.01 17.505 -18.01 17.505 -17 17 C-16.67 17 -16.34 17 -16 17 C-16 16.34 -16 15.68 -16 15 C-16.66 15 -17.32 15 -18 15 C-16.92598892 12.08482708 -16.22189824 10.22189824 -14 8 C-13.3574765 5.93125966 -13.3574765 5.93125966 -13 4 C-14.32 3.67 -15.64 3.34 -17 3 C-14 3 -11 3 -8 3 C-7.0409375 2.7525 -7.0409375 2.7525 -6.0625 2.5 C-4 2 -4 2 -1 2 C-0.67 1.34 -0.34 0.68 0 0 Z " fill="#ECE4E3" transform="translate(189,144)"/>
<path d="M0 0 C16.5 0 33 0 50 0 C50 4.95 50 9.9 50 15 C38.78 15 27.56 15 16 15 C16 26.88 16 38.76 16 51 C10.72 51 5.44 51 0 51 C0 34.17 0 17.34 0 0 Z " fill="#872425" transform="translate(145,84)"/>
<path d="M0 0 C4.2329022 -0.09257866 8.46219877 -0.17197032 12.6953125 -0.21972656 C14.13065587 -0.23966189 15.56591997 -0.26682074 17.00097656 -0.30175781 C26.73542111 -0.53256054 35.41697429 -0.33937095 43.4375 5.89453125 C43.953125 6.52746094 44.46875 7.16039063 45 7.8125 C45.53625 8.43769531 46.0725 9.06289062 46.625 9.70703125 C49.78880176 14.9830302 50.2454034 20.42888991 50.1953125 26.46484375 C50.1924826 27.14301651 50.18965271 27.82118927 50.18673706 28.51991272 C50.17565416 30.65929766 50.1505736 32.7982443 50.125 34.9375 C50.11495476 36.39908244 50.10583163 37.86067153 50.09765625 39.32226562 C50.07746598 42.88180996 50.03829791 46.44042171 50 50 C44.72 50 39.44 50 34 50 C33.97421875 47.86917969 33.9484375 45.73835938 33.921875 43.54296875 C33.8834537 41.47764922 33.83829436 39.41257931 33.79248047 37.34741211 C33.76426818 35.91296317 33.74305476 34.47835871 33.72900391 33.04370117 C33.70757551 30.98014698 33.66093533 28.91846294 33.609375 26.85546875 C33.58842773 25.61434326 33.56748047 24.37321777 33.54589844 23.09448242 C33.31340701 19.90037815 33.31340701 19.90037815 30.96191406 18.1965332 C30.31448242 17.80167725 29.66705078 17.40682129 29 17 C29 16.34 29 15.68 29 15 C19.43 15 9.86 15 0 15 C0 10.05 0 5.1 0 0 Z " fill="#919191" transform="translate(87,84)"/>
<path d="M0 0 C0 3.96 0 7.92 0 12 C0.66 12 1.32 12 2 12 C2 11.34 2 10.68 2 10 C2.66 10 3.32 10 4 10 C4.495 10.99 4.495 10.99 5 12 C7.64797776 12.26065105 10.22074462 12.42152636 12.875 12.5 C20.59602116 12.73068077 20.59602116 12.73068077 24 15 C23.505 15.495 23.505 15.495 23 16 C23.66 16 24.32 16 25 16 C25 16.66 25 17.32 25 18 C25.66 18.33 26.32 18.66 27 19 C25.68 19.33 24.36 19.66 23 20 C22.34 23.63 21.68 27.26 21 31 C18.69 31 16.38 31 14 31 C13.71125 30.195625 13.4225 29.39125 13.125 28.5625 C12.26737432 25.8673532 12.26737432 25.8673532 10 25 C10 27.31 10 29.62 10 32 C7.16005118 32.81141395 5.57755217 33.24752236 2.8125 32.0625 C-1.40198541 30.47036107 -5.54301351 30.84422183 -10 31 C-10 30.34 -10 29.68 -10 29 C-10.99 29 -11.98 29 -13 29 C-13 29.66 -13 30.32 -13 31 C-21.31333002 32.77013871 -30.66463501 34.68882742 -39 32 C-40.60725635 28.78548731 -40.05748185 25.56387464 -40 22 C-34.40693931 19.94540628 -31.59306069 19.94540628 -26 22 C-26 21.01 -26 20.02 -26 19 C-23.69 19 -21.38 19 -19 19 C-18.7834375 18.1028125 -18.7834375 18.1028125 -18.5625 17.1875 C-18.1127561 15.43849596 -17.57107659 13.71322977 -17 12 C-16.96079185 10.00038436 -16.95556653 7.99950636 -17 6 C-18.32 6 -19.64 6 -21 6 C-21 7.98 -21 9.96 -21 12 C-21.66 12 -22.32 12 -23 12 C-23 9.03 -23 6.06 -23 3 C-21.02 3 -19.04 3 -17 3 C-17 2.34 -17 1.68 -17 1 C-16.34 1 -15.68 1 -15 1 C-15 1.66 -15 2.32 -15 3 C-14.01 3 -13.02 3 -12 3 C-12 2.01 -12 1.02 -12 0 C-8.34649162 -1.82675419 -3.94412788 -0.45509168 0 0 Z " fill="#F7F5F4" transform="translate(117,146)"/>
<path d="M0 0 C0.66 0 1.32 0 2 0 C2.33 1.65 2.66 3.3 3 5 C3.99 5 4.98 5 6 5 C5.814375 5.639375 5.62875 6.27875 5.4375 6.9375 C5.293125 7.618125 5.14875 8.29875 5 9 C5.33 9.33 5.66 9.66 6 10 C6.66 9.01 7.32 8.02 8 7 C9.32 7 10.64 7 12 7 C12 6.34 12 5.68 12 5 C10.68 5 9.36 5 8 5 C8 4.34 8 3.68 8 3 C10.31 3 12.62 3 15 3 C15.33 2.34 15.66 1.68 16 1 C16.66 1 17.32 1 18 1 C18 1.66 18 2.32 18 3 C18.99 3 19.98 3 21 3 C21.33 4.32 21.66 5.64 22 7 C21.01 6.67 20.02 6.34 19 6 C19 7.32 19 8.64 19 10 C19.598125 9.814375 20.19625 9.62875 20.8125 9.4375 C23 9 23 9 26 10 C25.67 8.02 25.34 6.04 25 4 C30.01632765 3.10820842 34.02016027 2.82056427 39 4 C39.495 4.495 39.495 4.495 40 5 C40.33 3.68 40.66 2.36 41 1 C42.98 1 44.96 1 47 1 C47 1.99 47 2.98 47 4 C47.66 4.33 48.32 4.66 49 5 C48.34 5 47.68 5 47 5 C47 6.98 47 8.96 47 11 C47.66 11 48.32 11 49 11 C49 11.66 49 12.32 49 13 C47.35 13 45.7 13 44 13 C42.9910966 17.23646767 42.9910966 17.23646767 43.9375 21.375 C44.288125 21.91125 44.63875 22.4475 45 23 C46.32 22.67 47.64 22.34 49 22 C49 21.01 49 20.02 49 19 C49.66 19 50.32 19 51 19 C51 22.96 51 26.92 51 31 C47.33333333 31 43.66666667 31 40 31 C40 30.01 40 29.02 40 28 C39.34 28 38.68 28 38 28 C38 28.99 38 29.98 38 31 C37.01 31 36.02 31 35 31 C35 28.03 35 25.06 35 22 C34.67 22 34.34 22 34 22 C34 24.97 34 27.94 34 31 C31.36 31 28.72 31 26 31 C26 28.69 26 26.38 26 24 C25.34 24 24.68 24 24 24 C24 26.31 24 28.62 24 31 C23.34 31 22.68 31 22 31 C21.91913853 29.20906809 21.86087298 27.41710372 21.8125 25.625 C21.76029297 24.12839844 21.76029297 24.12839844 21.70703125 22.6015625 C21.85205078 21.31378906 21.85205078 21.31378906 22 20 C22.99 19.34 23.98 18.68 25 18 C25 17.34 25 16.68 25 16 C24.01 16.33 23.02 16.66 22 17 C21.67 16.01 21.34 15.02 21 14 C15.72 13.67 10.44 13.34 5 13 C4.67 12.01 4.34 11.02 4 10 C3.34 10 2.68 10 2 10 C2 10.66 2 11.32 2 12 C1.34 12 0.68 12 0 12 C0 8.04 0 4.08 0 0 Z M45 17 C45.66 17 46.32 17 47 17 C47.33 18.32 47.66 19.64 48 21 C46.68 20.67 45.36 20.34 44 20 C44.33 19.01 44.66 18.02 45 17 Z " fill="#EFEAE9" transform="translate(117,146)"/>
<path d="M0 0 C0.495 0.99 0.495 0.99 1 2 C1.65597168 1.98952637 2.31194336 1.97905273 2.98779297 1.96826172 C5.95015658 1.92677497 8.91245916 1.90069738 11.875 1.875 C12.90753906 1.85824219 13.94007813 1.84148438 15.00390625 1.82421875 C15.99003906 1.81777344 16.97617188 1.81132812 17.9921875 1.8046875 C19.35899658 1.78897705 19.35899658 1.78897705 20.75341797 1.77294922 C23 2 23 2 25 4 C23.81515266 4.00546844 23.81515266 4.00546844 22.60636902 4.01104736 C15.11900851 4.04910085 7.63213609 4.10614757 0.14509106 4.18390274 C-3.70301189 4.22321337 -7.55089163 4.25548133 -11.39916992 4.27099609 C-15.12124985 4.2862722 -18.84271545 4.32090732 -22.56451988 4.36830902 C-23.97603669 4.3830111 -25.38764127 4.39103451 -26.79923439 4.39188385 C-40.42467186 4.40830918 -51.90905862 7.27755694 -61.97265625 16.8828125 C-73.00590426 28.82964155 -74.45096086 43.17688193 -74.43237305 58.86621094 C-74.44140971 60.42461921 -74.45174153 61.98302042 -74.46325684 63.54141235 C-74.49062969 67.73480215 -74.50008427 71.92805637 -74.50611091 76.12152386 C-74.51554638 80.51777618 -74.54175361 84.91392926 -74.56611633 89.31011963 C-74.60964354 97.61828606 -74.63827487 105.92643307 -74.66143972 114.23467851 C-74.68856561 123.70037236 -74.73247232 133.16596568 -74.77772844 142.63158751 C-74.87037718 162.08767179 -74.94214804 181.54378268 -75 201 C-54.38025963 200.98616105 -33.76075099 200.94377553 -13.14114189 200.86790943 C-3.56591142 200.83333621 6.00917622 200.807914 15.58447266 200.80444336 C23.93559558 200.80139276 32.28646366 200.78075576 40.63748825 200.73947543 C45.0545727 200.71824269 49.47129574 200.70549436 53.88843155 200.71384621 C58.05666211 200.72144851 62.22416409 200.70531627 66.39226151 200.67193985 C67.91183832 200.66378026 69.43148862 200.66386831 70.95105743 200.67340279 C85.85696445 200.757576 98.77540082 197.34995509 110 187 C119.90520015 176.207767 121.5961308 163.08072879 121.609375 148.94921875 C121.62440168 147.5553042 121.64113799 146.16140715 121.65948486 144.76753235 C121.70266884 141.14599671 121.7230467 137.52470089 121.73822021 133.9029541 C121.75797077 130.18841651 121.79991866 126.47413145 121.83984375 122.75976562 C121.91461337 115.50657916 121.96522416 108.25350041 122 101 C122.33 101 122.66 101 123 101 C123 109.25 123 117.5 123 126 C123.66 126.33 124.32 126.66 125 127 C124.88120831 132.28374756 124.75692644 137.56732776 124.62768555 142.85083008 C124.58453063 144.64604232 124.54284295 146.44129048 124.50268555 148.23657227 C124.44450887 150.82579343 124.38095429 153.41483701 124.31640625 156.00390625 C124.29969376 156.79898087 124.28298126 157.59405548 124.26576233 158.41322327 C123.96705974 169.79898775 121.2090788 178.13978634 113.5 186.8125 C112.675 187.534375 111.85 188.25625 111 189 C110.48953125 189.56203125 109.9790625 190.1240625 109.453125 190.703125 C102.95074641 197.80205209 94.2173332 201.55295213 84.57741642 202.24609566 C83.37447658 202.24425207 82.17153673 202.24240849 80.93214417 202.24050903 C80.2564606 202.24221788 79.58077704 202.24392673 78.88461822 202.24568737 C76.63984621 202.24895921 74.39537884 202.23801712 72.15063477 202.22705078 C70.53385932 202.22648617 68.91708337 202.22680421 67.30030823 202.22793579 C62.92478399 202.22850834 58.54936996 202.2167698 54.17387128 202.20278788 C49.59613943 202.19026429 45.01840491 202.18910873 40.44065857 202.18673706 C31.77812179 202.18052708 23.11563564 202.16412277 14.45312113 202.14403808 C4.58858285 202.12166409 -5.27595787 202.11068188 -15.14051521 202.10064721 C-35.42703837 202.07975613 -55.71351599 202.04458951 -76 202 C-76.11706753 180.72852954 -76.20510257 159.45711259 -76.25906086 138.18538475 C-76.2847863 128.30739921 -76.31982798 118.42961444 -76.37719727 108.55175781 C-76.42720621 99.9370626 -76.4593321 91.32251288 -76.47044247 82.70767653 C-76.47693176 78.1507837 -76.49206382 73.59430688 -76.52865028 69.03754807 C-76.56288702 64.73812752 -76.5729979 60.43928964 -76.56553841 56.13974571 C-76.56690071 54.57173801 -76.57666724 53.0037084 -76.59602737 51.43581963 C-76.71337602 41.43157676 -76.4609557 29.15078989 -69.41652393 21.21649742 C-68.71534459 20.6143312 -68.71534459 20.6143312 -68 20 C-67.13560856 18.94580154 -66.28104203 17.88345462 -65.4375 16.8125 C-64.633125 15.884375 -63.82875 14.95625 -63 14 C-62.34 14 -61.68 14 -61 14 C-61 13.34 -61 12.68 -61 12 C-58.96246024 10.56805405 -56.94713033 9.27110673 -54.8125 8 C-53.9452832 7.46632813 -53.9452832 7.46632813 -53.06054688 6.921875 C-46.27952665 2.81495202 -41.41475621 1.69700382 -33.61328125 1.62109375 C-32.26595161 1.59560204 -32.26595161 1.59560204 -30.8914032 1.56959534 C-28.03183955 1.51661196 -25.17228954 1.47622055 -22.3125 1.4375 C-19.44207054 1.39356853 -16.57175293 1.34690168 -13.70146179 1.29469299 C-11.91754076 1.2627389 -10.13352056 1.23584783 -8.34944153 1.21446228 C-4.03829216 1.26786817 -4.03829216 1.26786817 0 0 Z " fill="#D4D2CE" transform="translate(117,7)"/>
<path d="M0 0 C4.63985599 1.5102887 8.6426839 3.56269911 11 8 C12.79953325 13.98987497 13.02090853 19.92172193 10.25 25.5625 C8.05609944 27.9392256 7.17134992 28.77347501 4 29 C4 29.66 4 30.32 4 31 C-8.71983569 31.86074076 -8.71983569 31.86074076 -13.3125 28.625 C-14.199375 27.75875 -15.08625 26.8925 -16 26 C-16 25.34 -16 24.68 -16 24 C-16.66 24 -17.32 24 -18 24 C-19.66557886 19.00326341 -20.17104995 12.91929987 -18.17578125 7.9453125 C-17.125 6.3125 -17.125 6.3125 -15 4 C-14.34 4 -13.68 4 -13 4 C-13 3.34 -13 2.68 -13 2 C-8.71851993 -0.85432005 -5.02560003 -0.60961421 0 0 Z " fill="#CCCCCC" transform="translate(144,44)"/>
<path d="M0 0 C1.7325 0.43119141 1.7325 0.43119141 3.5 0.87109375 C4.325 1.09925781 5.15 1.32742188 6 1.5625 C6 2.2225 6 2.8825 6 3.5625 C6.66 3.5625 7.32 3.5625 8 3.5625 C8 4.2225 8 4.8825 8 5.5625 C18.89 5.5625 29.78 5.5625 41 5.5625 C41 16.4525 41 27.3425 41 38.5625 C30.83941606 31.78877737 30.83941606 31.78877737 27.5 28.3125 C26.8503125 27.64734375 26.200625 26.9821875 25.53125 26.296875 C24 24.5625 24 24.5625 23 22.5625 C21.515 22.0675 21.515 22.0675 20 21.5625 C18.421875 19.99609375 18.421875 19.99609375 16.75 18 C16.14285156 17.28585938 15.53570312 16.57171875 14.91015625 15.8359375 C14.27980469 15.08570312 13.64945312 14.33546875 13 13.5625 C11.73361158 12.07952604 10.46296611 10.60017375 9.1875 9.125 C8.34251953 8.13693359 8.34251953 8.13693359 7.48046875 7.12890625 C6.06530792 5.45230014 6.06530792 5.45230014 4 4.5625 C4 3.9025 4 3.2425 4 2.5625 C-22.07 2.2325 -48.14 1.9025 -75 1.5625 C-75 1.2325 -75 0.9025 -75 0.5625 C-74.3965979 0.55219254 -73.7931958 0.54188507 -73.17150879 0.53126526 C-66.81070915 0.42189374 -60.45001481 0.3074267 -54.08935547 0.19018555 C-51.72512037 0.14724916 -49.36086241 0.10555131 -46.99658203 0.06518555 C-43.57056553 0.00646626 -40.14465006 -0.05594327 -36.71875 -0.12109375 C-35.60636963 -0.14215683 -34.49398926 -0.16321991 -33.34790039 -0.18492126 C-27.16145432 -0.31835611 -21.01300566 -0.5906056 -14.84375 -1.0625 C-9.51681643 -1.43843212 -5.16234936 -1.34436181 0 0 Z " fill="#FCFDFA" transform="translate(200,2.4375)"/>
<path d="M0 0 C7 3 7 3 8 5 C8.10833545 7.40932213 8.15730271 9.7901833 8.16113281 12.20019531 C8.16609772 12.94187454 8.17106262 13.68355377 8.17617798 14.44770813 C8.1908135 16.90785646 8.19760486 19.36794024 8.203125 21.828125 C8.20887653 23.53725181 8.21463427 25.2463786 8.22039795 26.95550537 C8.23091273 30.5434194 8.23675186 34.131311 8.24023438 37.71923828 C8.24571169 42.31034784 8.26972127 46.90115971 8.29820633 51.49217606 C8.31686023 55.02499243 8.32203983 58.5577376 8.32357025 62.09059906 C8.3265925 63.78263725 8.33460659 65.47467432 8.34775543 67.16666412 C8.36486926 69.53874597 8.36292263 71.9101075 8.35644531 74.28222656 C8.3656601 74.97751968 8.37487488 75.67281281 8.3843689 76.38917542 C8.34527483 80.97481091 7.31227697 84.06050503 5 88 C4.01 88 3.02 88 2 88 C1.8559378 83.58924441 1.71358717 79.17843772 1.57275391 74.76757812 C1.52471037 73.27016749 1.47621662 71.77277123 1.42724609 70.27539062 C1.35653333 68.11071427 1.28749368 65.94598968 1.21875 63.78125 C1.17685547 62.48251953 1.13496094 61.18378906 1.09179688 59.84570312 C1.02663314 57.11575874 1.00401606 54.40655445 1.02539062 51.67773438 C1.13887171 48.14658221 1.13887171 48.14658221 0.375 45.375 C-0.13132105 42.16830003 0.82375034 39.97521973 2 37 C1.34 36.67 0.68 36.34 0 36 C0 24.12 0 12.24 0 0 Z " fill="#EEC658" transform="translate(238,45)"/>
<path d="M0 0 C0.7453299 -0.00671722 1.49065979 -0.01343445 2.25857544 -0.02035522 C4.71208431 -0.03928966 7.1653192 -0.04325645 9.61889648 -0.04541016 C11.32852795 -0.05183902 13.03815831 -0.05856745 14.74778748 -0.06558228 C18.32618767 -0.077542 21.90449139 -0.08126422 25.48291016 -0.08007812 C30.06864965 -0.0798745 34.65377247 -0.10722748 39.23936558 -0.14162254 C42.76782579 -0.16384966 46.29613628 -0.16791703 49.82465935 -0.16685867 C51.5155647 -0.169219 53.20647391 -0.17806679 54.89731026 -0.19352341 C57.26010721 -0.21310847 59.62155661 -0.207377 61.984375 -0.1953125 C62.68214554 -0.20655151 63.37991608 -0.21779053 64.09883118 -0.22937012 C67.57953314 -0.18418099 69.16455033 0.07396677 71.89268494 2.32089233 C72.65241356 3.29586166 72.65241356 3.29586166 73.42749023 4.29052734 C71.42749023 7.29052734 71.42749023 7.29052734 69.39335632 7.79634094 C68.57792862 7.8528331 67.76250092 7.90932526 66.92236328 7.9675293 C66.02343353 8.03179108 65.12450378 8.09605286 64.19833374 8.16226196 C59.96628186 8.35816828 55.74600563 8.45291769 51.50952148 8.45849609 C50.60803879 8.46182449 49.70655609 8.46515289 48.77775574 8.46858215 C46.88960271 8.47360376 45.00144095 8.47599197 43.11328125 8.47583008 C40.23675011 8.47802982 37.3605951 8.49627225 34.48413086 8.51513672 C32.63842903 8.51806909 30.7927254 8.52005493 28.94702148 8.52099609 C28.0958223 8.52818161 27.24462311 8.53536713 26.36763 8.54277039 C21.34668764 8.52365365 17.26332067 7.77745368 12.42749023 6.29052734 C9.34730283 5.93533885 9.34730283 5.93533885 6.27514648 5.87646484 C5.16977539 5.83779297 4.0644043 5.79912109 2.92553711 5.75927734 C1.22494141 5.71287109 1.22494141 5.71287109 -0.51000977 5.66552734 C-1.67081055 5.62685547 -2.83161133 5.58818359 -4.02758789 5.54833984 C-6.87574146 5.45457347 -9.72389715 5.36886817 -12.57250977 5.29052734 C-12.57250977 4.30052734 -12.57250977 3.31052734 -12.57250977 2.29052734 C-8.37107397 0.25514501 -4.58524524 -0.00597335 0 0 Z " fill="#F8CA51" transform="translate(130.572509765625,3.70947265625)"/>
<path d="M0 0 C2.475 0.99 2.475 0.99 5 2 C5 5.3 5 8.6 5 12 C7.31 12 9.62 12 12 12 C12 11.01 12 10.02 12 9 C10.68 9 9.36 9 8 9 C8 7.02 8 5.04 8 3 C10.31 3 12.62 3 15 3 C13.68 3.33 12.36 3.66 11 4 C11 4.99 11 5.98 11 7 C11.928125 7.2165625 11.928125 7.2165625 12.875 7.4375 C15 8 15 8 17 9 C17 12 17 15 17 18 C16.34 18.33 15.68 18.66 15 19 C15.2475 20.2375 15.2475 20.2375 15.5 21.5 C16.05896045 25.41272317 16.06807187 29.05183173 16 33 C14.68 33 13.36 33 12 33 C12 33.66 12 34.32 12 35 C10.35 34.67 8.7 34.34 7 34 C7.99 33.505 7.99 33.505 9 33 C9 29.04 9 25.08 9 21 C8.01 21 7.02 21 6 21 C5.67 21.66 5.34 22.32 5 23 C4.01 22.34 3.02 21.68 2 21 C1.01 20.67 0.02 20.34 -1 20 C-0.34 19.67 0.32 19.34 1 19 C0.34 18.34 -0.32 17.68 -1 17 C0.32 16.34 1.64 15.68 3 15 C2.01 14.67 1.02 14.34 0 14 C0.66 13.67 1.32 13.34 2 13 C2 10.69 2 8.38 2 6 C1.34 6 0.68 6 0 6 C0 4.02 0 2.04 0 0 Z " fill="#F6F4F3" transform="translate(189,144)"/>
<path d="M0 0 C1.7325 0.43119141 1.7325 0.43119141 3.5 0.87109375 C4.325 1.09925781 5.15 1.32742188 6 1.5625 C6 2.2225 6 2.8825 6 3.5625 C6.66 3.5625 7.32 3.5625 8 3.5625 C8 4.2225 8 4.8825 8 5.5625 C18.89 5.5625 29.78 5.5625 41 5.5625 C41 16.4525 41 27.3425 41 38.5625 C38.63991183 35.02236775 38.76536356 33.55128045 38.8046875 29.36328125 C38.81113281 28.15478516 38.81757813 26.94628906 38.82421875 25.70117188 C38.84935547 23.8072168 38.84935547 23.8072168 38.875 21.875 C38.88402344 20.60076172 38.89304687 19.32652344 38.90234375 18.01367188 C38.92594359 14.86309373 38.95886806 11.71289017 39 8.5625 C38.11739502 8.58344727 37.23479004 8.60439453 36.32543945 8.62597656 C33.03594431 8.69434095 29.74720906 8.74438949 26.45727539 8.78222656 C25.03625543 8.80228421 23.61531741 8.82953778 22.19458008 8.86425781 C20.14644105 8.91304011 18.09939725 8.93552539 16.05078125 8.953125 C14.20480347 8.9845459 14.20480347 8.9845459 12.3215332 9.01660156 C8.40255805 8.48082106 6.74429233 7.36177578 4 4.5625 C4 3.9025 4 3.2425 4 2.5625 C-22.07 2.2325 -48.14 1.9025 -75 1.5625 C-75 1.2325 -75 0.9025 -75 0.5625 C-74.3965979 0.55219254 -73.7931958 0.54188507 -73.17150879 0.53126526 C-66.81070915 0.42189374 -60.45001481 0.3074267 -54.08935547 0.19018555 C-51.72512037 0.14724916 -49.36086241 0.10555131 -46.99658203 0.06518555 C-43.57056553 0.00646626 -40.14465006 -0.05594327 -36.71875 -0.12109375 C-35.60636963 -0.14215683 -34.49398926 -0.16321991 -33.34790039 -0.18492126 C-27.16145432 -0.31835611 -21.01300566 -0.5906056 -14.84375 -1.0625 C-9.51681643 -1.43843212 -5.16234936 -1.34436181 0 0 Z " fill="#F3E3C1" transform="translate(200,2.4375)"/>
<path d="M0 0 C2.97 0 5.94 0 9 0 C9 0.66 9 1.32 9 2 C9.66 2 10.32 2 11 2 C11 2.99 11 3.98 11 5 C10.34 5 9.68 5 9 5 C9 6.98 9 8.96 9 11 C9.66 11.33 10.32 11.66 11 12 C3.34477191 14.07097958 -5.25864164 15.49721237 -13 13 C-14.60725635 9.78548731 -14.05748185 6.56387464 -14 3 C-8.40693931 0.94540628 -5.59306069 0.94540628 0 3 C0 2.01 0 1.02 0 0 Z " fill="#F2DDDC" transform="translate(91,165)"/>
<path d="M0 0 C0.66 0 1.32 0 2 0 C2.76128664 4.78087627 3.15243256 9.40997408 3.23706055 14.2487793 C3.25017273 14.93587982 3.26328491 15.62298035 3.27679443 16.3309021 C3.31822493 18.57862035 3.352952 20.82637314 3.38671875 23.07421875 C3.4124072 24.64647065 3.43819099 26.218721 3.46406555 27.79096985 C3.5168369 31.07487944 3.56579351 34.35882183 3.61254883 37.64282227 C3.67312886 41.84956514 3.74735851 46.05594893 3.82492352 50.26240826 C3.88250183 53.50422586 3.93080321 56.74613349 3.976511 59.9881382 C3.99989236 61.53952232 4.02663898 63.09085954 4.05682945 64.64212608 C4.09800129 66.80787212 4.12616967 68.97341897 4.15112305 71.1394043 C4.17031296 72.37071579 4.18950287 73.60202728 4.20927429 74.87065125 C4.00939034 77.85958313 3.57791599 79.49711806 2 82 C1.34 82 0.68 82 0 82 C0 54.94 0 27.88 0 0 Z " fill="#EDBA4C" transform="translate(242,49)"/>
<path d="M0 0 C0.33 0 0.66 0 1 0 C1 8.25 1 16.5 1 25 C1.66 25.33 2.32 25.66 3 26 C2.88120831 31.28374756 2.75692644 36.56732776 2.62768555 41.85083008 C2.58453063 43.64604232 2.54284295 45.44129048 2.50268555 47.23657227 C2.44450887 49.82579343 2.38095429 52.41483701 2.31640625 55.00390625 C2.29133751 56.19651817 2.29133751 56.19651817 2.26576233 57.41322327 C1.96705974 68.79898775 -0.7909212 77.13978634 -8.5 85.8125 C-9.7375 86.8953125 -9.7375 86.8953125 -11 88 C-11.51046875 88.56203125 -12.0209375 89.1240625 -12.546875 89.703125 C-16.81252067 94.36011431 -21.03303642 96.9485116 -27 99 C-27.68707031 99.23976563 -28.37414062 99.47953125 -29.08203125 99.7265625 C-31 100 -31 100 -34 98 C-33.33355469 97.8040625 -32.66710937 97.608125 -31.98046875 97.40625 C-20.11372551 93.55578226 -10.9828151 87.08499099 -5 76 C-1.21007701 66.68368295 -0.39997244 57.92289525 -0.390625 47.94921875 C-0.37559832 46.5553042 -0.35886201 45.16140715 -0.34051514 43.76753235 C-0.29733116 40.14599671 -0.2769533 36.52470089 -0.26177979 32.9029541 C-0.24202923 29.18841651 -0.20008134 25.47413145 -0.16015625 21.75976562 C-0.08538663 14.50657916 -0.03477584 7.25350041 0 0 Z " fill="#DAD8D5" transform="translate(239,108)"/>
<path d="M0 0 C0.99 0 1.98 0 3 0 C3 0.66 3 1.32 3 2 C5.31 2.66 7.62 3.32 10 4 C10.33 3.67 10.66 3.34 11 3 C12.83115883 2.90148829 14.66619933 2.87027371 16.5 2.875 C17.5003125 2.87242187 18.500625 2.86984375 19.53125 2.8671875 C22 3 22 3 23 4 C23.14115161 6.67058851 23.04247107 9.32432238 23 12 C22.34 12 21.68 12 21 12 C21 9.69 21 7.38 21 5 C20.01 5.495 20.01 5.495 19 6 C18.34227572 9.02934491 18.34227572 9.02934491 18 12 C16.66666667 12.33333333 15.33333333 12.66666667 14 13 C13.4121875 13.185625 12.824375 13.37125 12.21875 13.5625 C9.43935698 14.11054933 7.0624197 13.86383068 4.25 13.5625 C3.26515625 13.46066406 2.2803125 13.35882813 1.265625 13.25390625 C0.51796875 13.17011719 -0.2296875 13.08632812 -1 13 C-1.02686553 11.02090602 -1.04633375 9.04171029 -1.0625 7.0625 C-1.07410156 5.96035156 -1.08570313 4.85820312 -1.09765625 3.72265625 C-1 1 -1 1 0 0 Z " fill="#E9CECE" transform="translate(171,165)"/>
<path d="M0 0 C0.9311412 -0.00315216 1.86228241 -0.00630432 2.82164001 -0.009552 C3.82997391 -0.00752777 4.8383078 -0.00550354 5.87719727 -0.00341797 C7.42710106 -0.00485306 7.42710106 -0.00485306 9.00831604 -0.00631714 C11.19646261 -0.00699851 13.3846112 -0.0051472 15.57275391 -0.00097656 C18.92623431 0.00436686 22.27958045 -0.00092022 25.63305664 -0.00732422 C27.75610381 -0.00666332 29.8791509 -0.00538192 32.00219727 -0.00341797 C33.00850693 -0.0054422 34.01481659 -0.00746643 35.05162048 -0.009552 C35.98591385 -0.00639984 36.92020721 -0.00324768 37.8828125 0 C39.11619606 0.00119339 39.11619606 0.00119339 40.37449646 0.00241089 C42.50610352 0.12939453 42.50610352 0.12939453 45.50610352 1.12939453 C45.50610352 7.06939453 45.50610352 13.00939453 45.50610352 19.12939453 C33.95610352 19.12939453 22.40610352 19.12939453 10.50610352 19.12939453 C10.50610352 18.79939453 10.50610352 18.46939453 10.50610352 18.12939453 C21.72610352 18.12939453 32.94610352 18.12939453 44.50610352 18.12939453 C44.50610352 13.17939453 44.50610352 8.22939453 44.50610352 3.12939453 C28.00610352 3.12939453 11.50610352 3.12939453 -5.49389648 3.12939453 C-5.49389648 19.62939453 -5.49389648 36.12939453 -5.49389648 53.12939453 C-5.82389648 53.12939453 -6.15389648 53.12939453 -6.49389648 53.12939453 C-6.49389648 35.96939453 -6.49389648 18.80939453 -6.49389648 1.12939453 C-4.11314969 -0.06097887 -2.65613941 0.0025725 0 0 Z " fill="#DCB6B5" transform="translate(150.493896484375,80.87060546875)"/>
<path d="M0 0 C0.99 0 1.98 0 3 0 C3.04634725 10.73548394 3.0818814 21.47094406 3.10362434 32.20650768 C3.11406003 37.19150006 3.12821539 42.17642398 3.15087891 47.16137695 C3.17261483 51.97242722 3.18457025 56.78341164 3.18975449 61.59450722 C3.19344888 63.4297114 3.20066309 65.26491198 3.21146011 67.10008812 C3.22598494 69.67121536 3.22797752 72.24207073 3.22705078 74.81323242 C3.23424133 75.57136734 3.24143188 76.32950226 3.24884033 77.11061096 C3.23295503 81.18545209 2.81798266 84.3332219 1 88 C0.01 88 -0.98 88 -2 88 C-2.66 87.34 -3.32 86.68 -4 86 C-3.34936584 85.01096176 -2.69873169 84.02192352 -2.02838135 83.00291443 C0.22565317 79.03627072 0.54483278 75.4551435 0.45410156 70.95336914 C0.45468567 70.18181488 0.45526978 69.41026062 0.45587158 68.61532593 C0.45310503 66.08813038 0.42208282 63.56214339 0.390625 61.03515625 C0.38315748 59.27396794 0.37746696 57.51277127 0.37347412 55.75157166 C0.35825796 51.13346099 0.31901124 46.5158597 0.2746582 41.89794922 C0.23361842 37.17878102 0.21544457 32.45952989 0.1953125 27.74023438 C0.15251272 18.49326673 0.08431053 9.24667585 0 0 Z " fill="#FCF0CB" transform="translate(245,48)"/>
<path d="M0 0 C0.7453299 -0.00671722 1.49065979 -0.01343445 2.25857544 -0.02035522 C4.71208431 -0.03928966 7.1653192 -0.04325645 9.61889648 -0.04541016 C11.32852795 -0.05183902 13.03815831 -0.05856745 14.74778748 -0.06558228 C18.32618767 -0.077542 21.90449139 -0.08126422 25.48291016 -0.08007812 C30.06864965 -0.0798745 34.65377247 -0.10722748 39.23936558 -0.14162254 C42.76782579 -0.16384966 46.29613628 -0.16791703 49.82465935 -0.16685867 C51.5155647 -0.169219 53.20647391 -0.17806679 54.89731026 -0.19352341 C57.26010721 -0.21310847 59.62155661 -0.207377 61.984375 -0.1953125 C62.68214554 -0.20655151 63.37991608 -0.21779053 64.09883118 -0.22937012 C67.57953314 -0.18418099 69.16455033 0.07396677 71.89268494 2.32089233 C72.65241356 3.29586166 72.65241356 3.29586166 73.42749023 4.29052734 C72.76749023 4.62052734 72.10749023 4.95052734 71.42749023 5.29052734 C70.93249023 4.30052734 70.93249023 4.30052734 70.42749023 3.29052734 C63.35440133 2.1375288 56.32499851 2.15903883 49.17358398 2.19287109 C48.03212418 2.19428604 46.89066437 2.19570099 45.71461487 2.19715881 C42.09804574 2.20271983 38.48154039 2.21526503 34.86499023 2.22802734 C32.40079843 2.23304738 29.93660564 2.23760941 27.47241211 2.24169922 C21.45741669 2.25267648 15.44245802 2.26937541 9.42749023 2.29052734 C9.42749023 3.28052734 9.42749023 4.27052734 9.42749023 5.29052734 C2.16749023 5.29052734 -5.09250977 5.29052734 -12.57250977 5.29052734 C-12.57250977 4.30052734 -12.57250977 3.31052734 -12.57250977 2.29052734 C-8.37107397 0.25514501 -4.58524524 -0.00597335 0 0 Z " fill="#DAAF5B" transform="translate(130.572509765625,3.70947265625)"/>
<path d="M0 0 C7.24079635 -0.02546262 14.48158105 -0.04291406 21.72241211 -0.05493164 C24.18302848 -0.0599444 26.64364189 -0.06675631 29.10424805 -0.07543945 C32.65153739 -0.08763932 36.19878717 -0.09325903 39.74609375 -0.09765625 C40.8370787 -0.10281754 41.92806366 -0.10797882 43.05210876 -0.11329651 C49.11141413 -0.1137364 55.01134535 0.02377728 61 1 C61.495 1.99 61.495 1.99 62 3 C41.21 3 20.42 3 -1 3 C-0.67 2.01 -0.34 1.02 0 0 Z " fill="#ECB73D" transform="translate(140,5)"/>
<path d="M0 0 C1.27617188 0.02320313 2.55234375 0.04640625 3.8671875 0.0703125 C5.78917969 0.09738281 5.78917969 0.09738281 7.75 0.125 C9.23113281 0.15980469 9.23113281 0.15980469 10.7421875 0.1953125 C10.7421875 2.5053125 10.7421875 4.8153125 10.7421875 7.1953125 C11.7321875 7.1953125 12.7221875 7.1953125 13.7421875 7.1953125 C13.7421875 5.2153125 13.7421875 3.2353125 13.7421875 1.1953125 C14.4021875 0.8653125 15.0621875 0.5353125 15.7421875 0.1953125 C15.7421875 3.1653125 15.7421875 6.1353125 15.7421875 9.1953125 C13.7621875 9.1953125 11.7821875 9.1953125 9.7421875 9.1953125 C9.4534375 8.3909375 9.1646875 7.5865625 8.8671875 6.7578125 C8.00956182 4.0626657 8.00956182 4.0626657 5.7421875 3.1953125 C5.7421875 5.5053125 5.7421875 7.8153125 5.7421875 10.1953125 C1.68787058 11.35368876 -0.47593369 11.03222507 -4.2578125 9.1953125 C-4.8828125 5.8203125 -4.8828125 5.8203125 -5.2578125 2.1953125 C-3.2578125 0.1953125 -3.2578125 0.1953125 0 0 Z " fill="#CAAFB0" transform="translate(121.2578125,167.8046875)"/>
<path d="M0 0 C3.69230769 0.69230769 3.69230769 0.69230769 5 2 C5.16796875 3.99609375 5.16796875 3.99609375 5.1875 6.4375 C5.20167969 7.24058594 5.21585938 8.04367188 5.23046875 8.87109375 C5 11 5 11 3 13 C-0.53571429 12.46428571 -0.53571429 12.46428571 -2 11 C-2.33 11.66 -2.66 12.32 -3 13 C-5.64 13 -8.28 13 -11 13 C-9.92598892 10.08482708 -9.22189824 8.22189824 -7 6 C-6.3574765 3.93125966 -6.3574765 3.93125966 -6 2 C-7.32 1.67 -8.64 1.34 -10 1 C-7 1 -4 1 -1 1 C-0.67 0.67 -0.34 0.34 0 0 Z " fill="#515151" transform="translate(182,146)"/>
<path d="M0 0 C5.4389165 -0.21755666 9.87080814 -0.10428384 15 2 C15.33 3.98 15.66 5.96 16 8 C14.35 8 12.7 8 11 8 C11 8.66 11 9.32 11 10 C12.65 10 14.3 10 16 10 C15.67 10.66 15.34 11.32 15 12 C10.05 12 5.1 12 0 12 C1.03467008 7.8613197 2.56949536 5.44974852 5 2 C3.35 2 1.7 2 0 2 C0 1.34 0 0.68 0 0 Z " fill="#D3D3D3" transform="translate(77,147)"/>
<path d="M0 0 C0 0.66 0 1.32 0 2 C5.61 2 11.22 2 17 2 C17 2.33 17 2.66 17 3 C16.37883301 3.00364563 15.75766602 3.00729126 15.11767578 3.01104736 C8.62804307 3.05299342 2.13910963 3.1224238 -4.35009766 3.20751953 C-6.76897168 3.23567231 -9.18793673 3.25691502 -11.60693359 3.27099609 C-15.09259449 3.29250367 -18.57716752 3.33919693 -22.0625 3.390625 C-23.67390869 3.39246796 -23.67390869 3.39246796 -25.31787109 3.39434814 C-32.01656307 3.52378955 -36.20650548 4.63608946 -42 8 C-42.66 8 -43.32 8 -44 8 C-43.875 6.1875 -43.875 6.1875 -43 4 C-38.0931214 0.88160986 -33.88470108 0.47388811 -28.25 0.3125 C-27.43104248 0.27906494 -26.61208496 0.24562988 -25.76831055 0.21118164 C-17.18128144 -0.10491036 -8.59107729 -0.09237718 0 0 Z " fill="#FDFAE5" transform="translate(159,0)"/>
<path d="M0 0 C10.89 0 21.78 0 33 0 C33 10.56 33 21.12 33 32 C30.63991183 28.45986775 30.76536356 26.98878045 30.8046875 22.80078125 C30.80968262 21.71192627 30.81467773 20.62307129 30.81982422 19.5012207 C30.83803223 18.11894287 30.85624023 16.73666504 30.875 15.3125 C30.91625 10.919375 30.9575 6.52625 31 2 C21.1 2 11.2 2 1 2 C0.67 1.34 0.34 0.68 0 0 Z " fill="#D8D8D5" transform="translate(208,9)"/>
<path d="M0 0 C2.475 0.99 2.475 0.99 5 2 C5 5.3 5 8.6 5 12 C7.31 12 9.62 12 12 12 C12 11.01 12 10.02 12 9 C10.68 9 9.36 9 8 9 C8 7.02 8 5.04 8 3 C10.31 3 12.62 3 15 3 C13.68 3.33 12.36 3.66 11 4 C11 4.99 11 5.98 11 7 C12.32 7.33 13.64 7.66 15 8 C15.125 10.375 15.125 10.375 15 13 C13 15 13 15 10.1796875 15.1953125 C9.08914062 15.17210937 7.99859375 15.14890625 6.875 15.125 C5.77929688 15.10695312 4.68359375 15.08890625 3.5546875 15.0703125 C2.71164063 15.04710937 1.86859375 15.02390625 1 15 C0.67 14.34 0.34 13.68 0 13 C0.66 13 1.32 13 2 13 C2 10.69 2 8.38 2 6 C1.34 6 0.68 6 0 6 C0 4.02 0 2.04 0 0 Z " fill="#908F90" transform="translate(189,144)"/>
<path d="M0 0 C0.66 0 1.32 0 2 0 C2 2.64 2 5.28 2 8 C2.66 8 3.32 8 4 8 C4 6.02 4 4.04 4 2 C5.32 2 6.64 2 8 2 C9.19876651 7.44893869 8.91360308 10.22169095 6 15 C3.69 15 1.38 15 -1 15 C-1 15.99 -1 16.98 -1 18 C-1.99 17.67 -2.98 17.34 -4 17 C-3.34 17 -2.68 17 -2 17 C-2.33 14.36 -2.66 11.72 -3 9 C-2.01 8.67 -1.02 8.34 0 8 C-1.32 7.67 -2.64 7.34 -4 7 C-4 6.34 -4 5.68 -4 5 C-2.35 5 -0.7 5 1 5 C0.67 3.35 0.34 1.7 0 0 Z " fill="#EEECEB" transform="translate(92,150)"/>
<path d="M0 0 C1.47968324 0.14049518 2.95874516 0.28754826 4.4375 0.4375 C5.67306641 0.55931641 5.67306641 0.55931641 6.93359375 0.68359375 C9 1 9 1 10 2 C12.96224839 2.10144031 15.90063349 2.13965932 18.86328125 2.1328125 C20.21681953 2.13424759 20.21681953 2.13424759 21.59770203 2.13571167 C23.51866729 2.13639431 25.43963483 2.13453422 27.3605957 2.13037109 C30.26193651 2.125092 33.16311761 2.13027739 36.06445312 2.13671875 C44.67062809 2.13876344 53.18606886 2.13110821 61.74682617 1.11669922 C64.0596319 0.99691147 65.79929407 1.31558965 68 2 C68 2.99 68 3.98 68 5 C55.82111784 5.05012344 43.64632963 4.94990613 31.46923828 4.73754883 C29.38859295 4.70389471 27.30784736 4.67599587 25.22705078 4.65356445 C22.17962757 4.62004232 19.13301799 4.56784413 16.0859375 4.51171875 C14.6983876 4.50213387 14.6983876 4.50213387 13.2828064 4.49235535 C8.10386294 4.37436968 4.52590641 3.80386104 0 1 C0 0.67 0 0.34 0 0 Z " fill="#F7DE60" transform="translate(140,9)"/>
<path d="M0 0 C0.66 0 1.32 0 2 0 C2 0.66 2 1.32 2 2 C2.99 2 3.98 2 5 2 C5 1.34 5 0.68 5 0 C5.66 0 6.32 0 7 0 C7 3.63 7 7.26 7 11 C5.0085944 11.38133299 3.00720923 11.71325582 1 12 C0 11 0 11 -0.0625 7.9375 C-0.041875 6.968125 -0.02125 5.99875 0 5 C-1.32 5 -2.64 5 -4 5 C-4 6.98 -4 8.96 -4 11 C-4.66 11 -5.32 11 -6 11 C-6 8.03 -6 5.06 -6 2 C-4.02 2 -2.04 2 0 2 C0 1.34 0 0.68 0 0 Z " fill="#535453" transform="translate(100,147)"/>
<path d="M0 0 C0.66 0 1.32 0 2 0 C2 3.96 2 7.92 2 12 C-1.33333333 12 -4.66666667 12 -8 12 C-8 9.69 -8 7.38 -8 5 C-9.32 5 -10.64 5 -12 5 C-12 6.98 -12 8.96 -12 11 C-12.33 11 -12.66 11 -13 11 C-13 8.69 -13 6.38 -13 4 C-9.5275795 3.13189487 -7.41868609 3.11775843 -4 4 C-1.81296615 3.62092718 -1.81296615 3.62092718 0 3 C0 2.01 0 1.02 0 0 Z " fill="#9F7E7F" transform="translate(166,165)"/>
<path d="M0 0 C-0.70125 0.40089844 -1.4025 0.80179688 -2.125 1.21484375 C-14.23260904 8.46953884 -21.28003349 16.8599934 -24.75 30.5 C-25.17606478 32.33117204 -25.59604144 34.16382471 -26 36 C-26.66 35.34 -27.32 34.68 -28 34 C-27.76386907 27.388334 -26.14833691 19.40721872 -21.52734375 14.40625 C-21.02332031 13.9421875 -20.51929688 13.478125 -20 13 C-19.13560856 11.94580154 -18.28104203 10.88345462 -17.4375 9.8125 C-16.633125 8.884375 -15.82875 7.95625 -15 7 C-14.34 7 -13.68 7 -13 7 C-13 6.34 -13 5.68 -13 5 C-10.91796875 3.45703125 -10.91796875 3.45703125 -8.1875 1.8125 C-7.29417969 1.26207031 -6.40085937 0.71164062 -5.48046875 0.14453125 C-3 -1 -3 -1 0 0 Z " fill="#D8D8D8" transform="translate(69,14)"/>
<path d="M0 0 C4.78718692 -0.02471738 9.5743367 -0.04286825 14.36157227 -0.05493164 C15.99015958 -0.05996065 17.61874237 -0.06678465 19.24731445 -0.07543945 C21.58806472 -0.08756769 23.9287553 -0.09324263 26.26953125 -0.09765625 C26.99775589 -0.10281754 27.72598053 -0.10797882 28.47627258 -0.11329651 C31.59602288 -0.11364279 34.01633188 0.00544396 37 1 C37 5.29 37 9.58 37 14 C25.78 14 14.56 14 3 14 C3 13.67 3 13.34 3 13 C13.56 13 24.12 13 35 13 C34.67 9.7 34.34 6.4 34 3 C31.05587973 1.52793987 28.03714085 1.76192808 24.8046875 1.68359375 C24.09724396 1.66281265 23.38980042 1.64203156 22.66091919 1.62062073 C20.39904575 1.55518922 18.13705538 1.49627026 15.875 1.4375 C14.34243578 1.39430867 12.80988343 1.35069418 11.27734375 1.30664062 C7.51834927 1.19951445 3.75923708 1.0982291 0 1 C0 0.67 0 0.34 0 0 Z " fill="#7A2528" transform="translate(158,85)"/>
<path d="M0 0 C0.33 0 0.66 0 1 0 C1.62688199 10.19802669 2.14106224 20.34591008 1.96289062 30.56616211 C1.92032094 33.90665447 2.12509974 36.78474156 3 40 C2.67966043 42.00212229 2.34740923 44.00239695 2 46 C2.33 46.66 2.66 47.32 3 48 C3.07033769 49.87379605 3.0843022 51.75001102 3.0625 53.625 C3.05347656 54.62789062 3.04445312 55.63078125 3.03515625 56.6640625 C3.02355469 57.43492188 3.01195312 58.20578125 3 59 C2.34 59 1.68 59 1 59 C0.18704629 51.45124289 -0.13709735 44.01528875 -0.09765625 36.42578125 C-0.09553383 34.85101265 -0.09553383 34.85101265 -0.09336853 33.24443054 C-0.0878288 29.93375643 -0.07528803 26.62315322 -0.0625 23.3125 C-0.05747719 21.05013119 -0.05291566 18.78776131 -0.04882812 16.52539062 C-0.03787921 11.01690342 -0.02120246 5.50845678 0 0 Z " fill="#FCDA60" transform="translate(237,45)"/>
<path d="M0 0 C3.2570935 1.3780011 5.75094238 3.34211101 8.41796875 5.64453125 C9.46347976 6.54031476 10.52878363 7.41355233 11.61328125 8.26171875 C14.95883362 10.89333191 16.89805585 13.34444496 19 17 C21.28364586 19.48514402 23.68418993 21.73126041 26.25390625 23.91796875 C27.05699219 24.60503906 27.86007813 25.29210937 28.6875 26 C29.45449219 26.639375 30.22148437 27.27875 31.01171875 27.9375 C33.17406889 30.18056655 34.04533708 32.05943399 35 35 C30.32542614 31.69829856 26.44197562 28.62886377 23 24 C20.34431321 21.20076257 17.59273084 18.64401099 14.625 16.1875 C9.03944329 11.46594008 4.4900746 5.74729548 0 0 Z " fill="#F6EA8F" transform="translate(189,57)"/>
<path d="M0 0 C1.50539661 0.94983358 3.00420347 1.91011891 4.5 2.875 C5.75296875 3.67550781 5.75296875 3.67550781 7.03125 4.4921875 C7.6809375 4.98976563 8.330625 5.48734375 9 6 C9 6.66 9 7.32 9 8 C9.556875 8.226875 10.11375 8.45375 10.6875 8.6875 C13.64176591 10.36424552 15.66847851 12.54576685 18 15 C18.66 15.66 19.32 16.32 20 17 C20.268125 17.7425 20.53625 18.485 20.8125 19.25 C22.34480245 22.79848988 24.44421147 25.1079235 27 28 C24.05043472 26.63055898 21.47531189 25.12169591 19 23 C19 22.34 19 21.68 19 21 C18.360625 20.731875 17.72125 20.46375 17.0625 20.1875 C15 19 15 19 14 16 C13.34 16 12.68 16 12 16 C9.42326393 13.83886653 8.02386248 12.04979996 6.5625 9 C4.83083205 5.67519753 2.95105246 4.23322889 0 2 C0 1.34 0 0.68 0 0 Z " fill="#FEFAD9" transform="translate(148,17)"/>
<path d="M0 0 C0.66 0 1.32 0 2 0 C2.33 1.65 2.66 3.3 3 5 C3.99 5 4.98 5 6 5 C5.814375 5.639375 5.62875 6.27875 5.4375 6.9375 C5.293125 7.618125 5.14875 8.29875 5 9 C5.33 9.33 5.66 9.66 6 10 C6.66 9.01 7.32 8.02 8 7 C9.32 7 10.64 7 12 7 C12 6.34 12 5.68 12 5 C10.68 5 9.36 5 8 5 C8 4.34 8 3.68 8 3 C9.65 3 11.3 3 13 3 C14.4783226 5.95664519 14.06032783 8.74229737 14 12 C9.545 12.495 9.545 12.495 5 13 C4.67 12.01 4.34 11.02 4 10 C3.34 10 2.68 10 2 10 C2 10.66 2 11.32 2 12 C1.34 12 0.68 12 0 12 C0 8.04 0 4.08 0 0 Z " fill="#575757" transform="translate(117,146)"/>
<path d="M0 0 C0.66 0.33 1.32 0.66 2 1 C2 4.3 2 7.6 2 11 C-4.0546875 11.9765625 -4.0546875 11.9765625 -6 12 C-8 10 -8 10 -8.125 6.375 C-8.08375 5.26125 -8.0425 4.1475 -8 3 C-5.625 2.375 -5.625 2.375 -3 2 C-2.34 2.66 -1.68 3.32 -1 4 C-0.67 2.68 -0.34 1.36 0 0 Z " fill="#989898" transform="translate(158,147)"/>
<path d="M0 0 C0.33 0.99 0.66 1.98 1 3 C1.99 3.33 2.98 3.66 4 4 C1.69 4 -0.62 4 -3 4 C-2.34 3.67 -1.68 3.34 -1 3 C-1 2.34 -1 1.68 -1 1 C-1.99 1.33 -2.98 1.66 -4 2 C-4.02578125 2.77085937 -4.0515625 3.54171875 -4.078125 4.3359375 C-4.13484375 5.33882812 -4.1915625 6.34171875 -4.25 7.375 C-4.31960937 8.87160156 -4.31960937 8.87160156 -4.390625 10.3984375 C-5 13 -5 13 -6.8125 14.34375 C-9.9031115 15.27093345 -12.79670969 15.12320347 -16 15 C-16.33 14.34 -16.66 13.68 -17 13 C-16.34 13 -15.68 13 -15 13 C-14.67 12.01 -14.34 11.02 -14 10 C-13.67 10.66 -13.34 11.32 -13 12 C-9.97065509 12.65772428 -9.97065509 12.65772428 -7 13 C-7 9.04 -7 5.08 -7 1 C-7.66 1 -8.32 1 -9 1 C-9 1.99 -9 2.98 -9 4 C-10.65 4.66 -12.3 5.32 -14 6 C-13.67 4.68 -13.34 3.36 -13 2 C-12.01 2.33 -11.02 2.66 -10 3 C-10.33 2.01 -10.66 1.02 -11 0 C-7.18243176 -1.37432457 -3.92744671 -0.67975039 0 0 Z " fill="#EFDAD8" transform="translate(175,164)"/>
<path d="M0 0 C1.98 0 3.96 0 6 0 C6 0.66 6 1.32 6 2 C6.66 2 7.32 2 8 2 C8 2.99 8 3.98 8 5 C7.34 5 6.68 5 6 5 C6 6.98 6 8.96 6 11 C6.66 11.33 7.32 11.66 8 12 C5.36 12 2.72 12 0 12 C0 8.04 0 4.08 0 0 Z " fill="#C6ABA8" transform="translate(94,165)"/>
<path d="M0 0 C0.66 0 1.32 0 2 0 C2 3.96 2 7.92 2 12 C-0.31 12 -2.62 12 -5 12 C-5.625 8.625 -5.625 8.625 -6 5 C-5.34 4.34 -4.68 3.68 -4 3 C-2.68 3 -1.36 3 0 3 C0 2.01 0 1.02 0 0 Z " fill="#8A696A" transform="translate(91,165)"/>
<path d="M0 0 C1.65 0.33 3.3 0.66 5 1 C5 4.96 5 8.92 5 13 C3.02 13 1.04 13 -1 13 C-1.02686553 11.02090602 -1.04633375 9.04171029 -1.0625 7.0625 C-1.07410156 5.96035156 -1.08570313 4.85820312 -1.09765625 3.72265625 C-1 1 -1 1 0 0 Z " fill="#B19593" transform="translate(200,164)"/>
<path d="M0 0 C2.31 0 4.62 0 7 0 C8.49498913 2.98997825 8.11577446 5.70042775 8 9 C7.67 9.99 7.34 10.98 7 12 C4.36 12 1.72 12 -1 12 C0.07401108 9.08482708 0.77810176 7.22189824 3 5 C3.6425235 2.93125966 3.6425235 2.93125966 4 1 C2.68 0.67 1.36 0.34 0 0 Z " fill="#C5C5C5" transform="translate(172,147)"/>
<path d="M0 0 C0.66 0 1.32 0 2 0 C2 0.99 2 1.98 2 3 C3.65 3.33 5.3 3.66 7 4 C7.04241723 6.33294775 7.04092937 8.66702567 7 11 C6.67 11.33 6.34 11.66 6 12 C4.02 12 2.04 12 0 12 C0 8.04 0 4.08 0 0 Z " fill="#876466" transform="translate(108,165)"/>
<path d="M0 0 C3.5865054 1.33213058 6.87682483 2.76916059 10 5 C10 5.99 10 6.98 10 8 C10.639375 8.268125 11.27875 8.53625 11.9375 8.8125 C14 10 14 10 15 13 C15.825 13.309375 16.65 13.61875 17.5 13.9375 C18.325 14.288125 19.15 14.63875 20 15 C20.8125 17.125 20.8125 17.125 21 19 C14.3052187 15.96642722 9.501363 10.66838304 5 5 C4.01 4.67 3.02 4.34 2 4 C0.8125 1.9375 0.8125 1.9375 0 0 Z " fill="#FDF9D1" transform="translate(218,20)"/>
<path d="M0 0 C0.66 0 1.32 0 2 0 C4.52661325 4.73739985 4.57964683 9.75760586 4 15 C2.984375 17.30859375 2.984375 17.30859375 2 19 C1.34 19 0.68 19 0 19 C0 12.73 0 6.46 0 0 Z " fill="#B87C29" transform="translate(242,112)"/>
<path d="M0 0 C1.43859375 -0.02126953 1.43859375 -0.02126953 2.90625 -0.04296875 C5.5 0.1875 5.5 0.1875 8.5 2.1875 C8.5 2.8475 8.5 3.5075 8.5 4.1875 C2.56 4.1875 -3.38 4.1875 -9.5 4.1875 C-9.17 3.1975 -8.84 2.2075 -8.5 1.1875 C-5.43301363 0.16517121 -3.21335122 0.0215951 0 0 Z " fill="#AD7326" transform="translate(128.5,3.8125)"/>
<path d="M0 0 C0.33 0 0.66 0 1 0 C1 3.96 1 7.92 1 12 C0.67 11.34 0.34 10.68 0 10 C-0.99 10 -1.98 10 -3 10 C-3 10.66 -3 11.32 -3 12 C-4.32 11.67 -5.64 11.34 -7 11 C-7 9.02 -7 7.04 -7 5 C-4.35261084 3.5393715 -3.10551666 3 0 3 C0 2.01 0 1.02 0 0 Z " fill="#F2E9E7" transform="translate(107,165)"/>
<path d="M0 0 C0.99 0 1.98 0 3 0 C3.33 1.65 3.66 3.3 4 5 C5.32 5.33 6.64 5.66 8 6 C6.02 6.99 6.02 6.99 4 8 C4 9.32 4 10.64 4 12 C2.35 12.33 0.7 12.66 -1 13 C-1.02686553 11.02090602 -1.04633375 9.04171029 -1.0625 7.0625 C-1.07410156 5.96035156 -1.08570313 4.85820312 -1.09765625 3.72265625 C-1 1 -1 1 0 0 Z " fill="#EED6D3" transform="translate(171,165)"/>
<path d="M0 0 C0 0.66 0 1.32 0 2 C0.66 2 1.32 2 2 2 C2 2.66 2 3.32 2 4 C1.34 4 0.68 4 0 4 C0 5.98 0 7.96 0 10 C0.99 10 1.98 10 3 10 C3 10.66 3 11.32 3 12 C-0.57644848 13.2380014 -3.33694766 12.74926071 -7 12 C-6.01 11.67 -5.02 11.34 -4 11 C-4.226875 9.741875 -4.45375 8.48375 -4.6875 7.1875 C-5.18517097 3.28216529 -5.18517097 3.28216529 -3.6875 1 C-2 0 -2 0 0 0 Z " fill="#CBCBCB" transform="translate(135,147)"/>
<path d="M0 0 C3.70699735 0.55038389 5.06506756 1.86529564 7.375 4.75 C10.35827862 8.30944831 13.23938565 11.26500775 17 14 C17.99 14 18.98 14 20 14 C20 14.66 20 15.32 20 16 C16.18634321 16.35475877 14.41557542 16.2619932 11.125 14.1875 C9 12 9 12 9 9 C8.34 9 7.68 9 7 9 C6.360625 8.195625 5.72125 7.39125 5.0625 6.5625 C3.18964068 3.76279268 3.18964068 3.76279268 0 3 C0 2.01 0 1.02 0 0 Z " fill="#F6E992" transform="translate(220,24)"/>
<path d="M0 0 C6.24259233 5.23514227 11.85314729 10.67672382 17 17 C16.34 17.33 15.68 17.66 15 18 C13.68113228 16.90344712 12.37009943 15.79746577 11.0625 14.6875 C10.33160156 14.07261719 9.60070312 13.45773438 8.84765625 12.82421875 C7 11 7 11 6 8 C5.01 7.67 4.02 7.34 3 7 C1.3125 5.6875 1.3125 5.6875 0 4 C0 2.68 0 1.36 0 0 Z " fill="#FDF9D0" transform="translate(192,61)"/>
<path d="M0 0 C1.66611905 -0.042721 3.33382885 -0.04063832 5 0 C6 1 6 1 6.09765625 2.84765625 C6.06510417 4.8984375 6.03255208 6.94921875 6 9 C4.02 9 2.04 9 0 9 C-0.625 7.125 -0.625 7.125 -1 5 C-0.34 4.34 0.32 3.68 1 3 C0.67 2.01 0.34 1.02 0 0 Z " fill="#835E5F" transform="translate(175,168)"/>
<path d="M0 0 C1.2065625 0.0309375 1.2065625 0.0309375 2.4375 0.0625 C2.4375 0.7225 2.4375 1.3825 2.4375 2.0625 C1.4475 2.5575 1.4475 2.5575 0.4375 3.0625 C1.0975 3.3925 1.7575 3.7225 2.4375 4.0625 C2.4375 6.7025 2.4375 9.3425 2.4375 12.0625 C1.7775 12.0625 1.1175 12.0625 0.4375 12.0625 C0.4375 9.7525 0.4375 7.4425 0.4375 5.0625 C-0.2225 5.0625 -0.8825 5.0625 -1.5625 5.0625 C-1.5625 7.3725 -1.5625 9.6825 -1.5625 12.0625 C-2.2225 12.0625 -2.8825 12.0625 -3.5625 12.0625 C-3.58937279 10.25007948 -3.60883715 8.43754767 -3.625 6.625 C-3.63660156 5.61566406 -3.64820312 4.60632813 -3.66015625 3.56640625 C-3.52706167 0.15386128 -3.42090834 0.08343679 0 0 Z " fill="#4C4B4B" transform="translate(112.5625,145.9375)"/>
<path d="M0 0 C1.66611905 -0.042721 3.33382885 -0.04063832 5 0 C6 1 6 1 6.09765625 2.84765625 C6.06510417 4.8984375 6.03255208 6.94921875 6 9 C4.02 9 2.04 9 0 9 C-0.33 7.68 -0.66 6.36 -1 5 C-0.01 4.34 0.98 3.68 2 3 C1.34 2.67 0.68 2.34 0 2 C0 1.34 0 0.68 0 0 Z " fill="#B38E8E" transform="translate(69,168)"/>
<path d="M0 0 C-0.66 1.98 -1.32 3.96 -2 6 C-2.66 6 -3.32 6 -4 6 C-4.33 6.66 -4.66 7.32 -5 8 C-5.99 7.34 -6.98 6.68 -8 6 C-8.99 5.67 -9.98 5.34 -11 5 C-10.34 4.67 -9.68 4.34 -9 4 C-9.66 3.34 -10.32 2.68 -11 2 C-7.36576791 -0.32590854 -4.22911669 -0.16265833 0 0 Z " fill="#FCFBFA" transform="translate(199,159)"/>
<path d="M0 0 C0.66 0 1.32 0 2 0 C2 3.63 2 7.26 2 11 C0.02 11.33 -1.96 11.66 -4 12 C-3.67 11.34 -3.34 10.68 -3 10 C-2.9310528 8.62657169 -2.91532292 7.24997898 -2.9375 5.875 C-2.958125 4.59625 -2.97875 3.3175 -3 2 C-2.01 2 -1.02 2 0 2 C0 1.34 0 0.68 0 0 Z " fill="#979797" transform="translate(105,147)"/>
<path d="M0 0 C1 1 1 1 1.09765625 2.84765625 C1.04882812 5.92382812 1.04882812 5.92382812 1 9 C0.34 9 -0.32 9 -1 9 C-1 6.69 -1 4.38 -1 2 C-1.99 2.495 -1.99 2.495 -3 3 C-3.65772428 6.02934491 -3.65772428 6.02934491 -4 9 C-4.33 9 -4.66 9 -5 9 C-5 6.69 -5 4.38 -5 2 C-5.99 2.33 -6.98 2.66 -8 3 C-8.33 4.98 -8.66 6.96 -9 9 C-9.33 9 -9.66 9 -10 9 C-10 6.36 -10 3.72 -10 1 C-6.74696956 -0.62651522 -3.60774398 -0.11453156 0 0 Z " fill="#705252" transform="translate(193,168)"/>
<path d="M0 0 C1.2065625 0.0309375 1.2065625 0.0309375 2.4375 0.0625 C2.7675 1.7125 3.0975 3.3625 3.4375 5.0625 C1.7875 5.0625 0.1375 5.0625 -1.5625 5.0625 C-1.5625 5.7225 -1.5625 6.3825 -1.5625 7.0625 C0.0875 7.0625 1.7375 7.0625 3.4375 7.0625 C3.1075 7.7225 2.7775 8.3825 2.4375 9.0625 C-2.4375 8.1875 -2.4375 8.1875 -3.5625 7.0625 C-3.6875 4.0625 -3.6875 4.0625 -3.5625 1.0625 C-2.5625 0.0625 -2.5625 0.0625 0 0 Z " fill="#5C5C5C" transform="translate(89.5625,149.9375)"/>
<path d="M0 0 C2.12280563 3.18420845 2.28019537 4.20537255 2.4140625 7.88671875 C2.45273438 8.82451172 2.49140625 9.76230469 2.53125 10.72851562 C2.57765625 12.19321289 2.57765625 12.19321289 2.625 13.6875 C2.68300781 15.16959961 2.68300781 15.16959961 2.7421875 16.68164062 C2.83645867 19.12090707 2.92206218 21.56016595 3 24 C2.01 24 1.02 24 0 24 C0 16.08 0 8.16 0 0 Z " fill="#D8B87F" transform="translate(240,109)"/>
<path d="M0 0 C1.50539661 0.94983358 3.00420347 1.91011891 4.5 2.875 C5.75296875 3.67550781 5.75296875 3.67550781 7.03125 4.4921875 C7.6809375 4.98976563 8.330625 5.48734375 9 6 C9 6.66 9 7.32 9 8 C9.556875 8.226875 10.11375 8.45375 10.6875 8.6875 C15.0795794 11.18030182 17.89895945 14.47023367 20 19 C2.91434836 6.28115262 2.91434836 6.28115262 0 0 Z " fill="#F8EFA8" transform="translate(148,17)"/>
<path d="M0 0 C2.31 0 4.62 0 7 0 C5.68 0.33 4.36 0.66 3 1 C3 1.99 3 2.98 3 4 C4.32 4.33 5.64 4.66 7 5 C7.125 7.375 7.125 7.375 7 10 C6.34 10.66 5.68 11.32 5 12 C3.68 12 2.36 12 1 12 C1 11.34 1 10.68 1 10 C2.32 10 3.64 10 5 10 C5 8.68 5 7.36 5 6 C3.35 6 1.7 6 0 6 C0 4.02 0 2.04 0 0 Z " fill="#545354" transform="translate(197,147)"/>
<path d="M0 0 C2.625 0.375 2.625 0.375 5 1 C5 2.32 5 3.64 5 5 C3.35 5 1.7 5 0 5 C0.33 5.66 0.66 6.32 1 7 C2.32 7 3.64 7 5 7 C5 7.66 5 8.32 5 9 C2.625 9.125 2.625 9.125 0 9 C-2 7 -2 7 -2.25 4.5 C-2 2 -2 2 0 0 Z " fill="#907171" transform="translate(208,168)"/>
<path d="M0 0 C1.67542976 0.28604898 3.34385343 0.61781233 5 1 C5.33 2.32 5.66 3.64 6 5 C4.02 5 2.04 5 0 5 C1.25541557 7.51083114 2.50063488 7.87125446 5 9 C3.125 9.625 3.125 9.625 1 10 C-1 8 -1 8 -1.1875 4.4375 C-1 1 -1 1 0 0 Z " fill="#3E3E3E" transform="translate(151,149)"/>
<path d="M0 0 C2.64 0 5.28 0 8 0 C7.38545304 3.99455527 5.29353263 6.74466336 3 10 C4.65 10 6.3 10 8 10 C8 10.33 8 10.66 8 11 C5.36 11 2.72 11 0 11 C1.2491742 7.54074837 2.67527795 4.85306797 5 2 C3.35 2 1.7 2 0 2 C0 1.34 0 0.68 0 0 Z " fill="#4F4F4F" transform="translate(77,147)"/>
<path d="M0 0 C3.60349428 2.77983844 6.82496409 5.74141051 10 9 C10.598125 9.556875 11.19625 10.11375 11.8125 10.6875 C13 12 13 12 13 14 C13.66 14 14.32 14 15 14 C14.67 14.66 14.34 15.32 14 16 C13.278125 15.21625 12.55625 14.4325 11.8125 13.625 C9.26217069 10.92029218 9.26217069 10.92029218 6.4375 10 C3.1815961 8.66424455 1.88475213 6.93183665 0 4 C0 2.68 0 1.36 0 0 Z " fill="#FDF9CF" transform="translate(211,80)"/>
<path d="M0 0 C0.66 0 1.32 0 2 0 C2 2.31 2 4.62 2 7 C2.99 7 3.98 7 5 7 C5 5.02 5 3.04 5 1 C5.66 1 6.32 1 7 1 C7 3.64 7 6.28 7 9 C5.00045254 9.04254356 2.99958364 9.04080783 1 9 C0 8 0 8 -0.09765625 6.15234375 C-0.06510417 4.1015625 -0.03255208 2.05078125 0 0 Z " fill="#856967" transform="translate(77,168)"/>
<path d="M0 0 C-0.33 1.32 -0.66 2.64 -1 4 C-0.34 4 0.32 4 1 4 C1 6.31 1 8.62 1 11 C0.01 11.33 -0.98 11.66 -2 12 C-3.66342837 10.33657163 -3.36048097 8.2174291 -3.5625 5.9375 C-3.64628906 5.01839844 -3.73007813 4.09929687 -3.81640625 3.15234375 C-3.90728516 2.08693359 -3.90728516 2.08693359 -4 1 C-2 0 -2 0 0 0 Z " fill="#ECECEC" transform="translate(190,146)"/>
<path d="M0 0 C0.33 0 0.66 0 1 0 C1 2.31 1 4.62 1 7 C1.99 7 2.98 7 4 7 C4 5.02 4 3.04 4 1 C4.66 0.67 5.32 0.34 6 0 C6 2.97 6 5.94 6 9 C4.02 9 2.04 9 0 9 C-1.36623674 6.26752652 -1.128426 4.01801098 -1 1 C-0.67 0.67 -0.34 0.34 0 0 Z " fill="#8B6E6E" transform="translate(131,168)"/>
<path d="M0 0 C0.99 1.32 1.98 2.64 3 4 C2.67 4.33 2.34 4.66 2 5 C1.95936168 6.66617115 1.957279 8.33388095 2 10 C3.98 10.66 5.96 11.32 8 12 C8.33 11.34 8.66 10.68 9 10 C9 10.99 9 11.98 9 13 C5.37 13.33 1.74 13.66 -2 14 C-2 13.34 -2 12.68 -2 12 C-1.34 12 -0.68 12 0 12 C-0.08378906 11.30132812 -0.16757813 10.60265625 -0.25390625 9.8828125 C-0.35574219 8.97273437 -0.45757812 8.06265625 -0.5625 7.125 C-0.66691406 6.22007812 -0.77132812 5.31515625 -0.87890625 4.3828125 C-1 2 -1 2 0 0 Z " fill="#F2DCDB" transform="translate(205,165)"/>
<path d="M0 0 C1.32 0 2.64 0 4 0 C5.03435556 1.64556566 6.02763513 3.3170608 7 5 C8.03049154 5.93247563 9.09533042 6.82808787 10.1875 7.6875 C11.5796875 8.8321875 11.5796875 8.8321875 13 10 C13 10.66 13 11.32 13 12 C13.66 12 14.32 12 15 12 C14.67 12.99 14.34 13.98 14 15 C13.319375 14.29875 12.63875 13.5975 11.9375 12.875 C9.23957261 10.15381461 6.33406548 7.73904225 3.35546875 5.33203125 C2.90816406 4.89246094 2.46085938 4.45289062 2 4 C2 3.34 2 2.68 2 2 C1.34 2 0.68 2 0 2 C0 1.34 0 0.68 0 0 Z " fill="#F6E78C" transform="translate(224,92)"/>
<path d="M0 0 C0 0.66 0 1.32 0 2 C0.66 2.33 1.32 2.66 2 3 C0.68 3.33 -0.64 3.66 -2 4 C-2.66 7.63 -3.32 11.26 -4 15 C-4.33 15 -4.66 15 -5 15 C-5.144375 13.7625 -5.28875 12.525 -5.4375 11.25 C-5.78688502 8.43495501 -6.20379366 5.7298503 -7 3 C-2.25 0 -2.25 0 0 0 Z " fill="#EEDADA" transform="translate(142,162)"/>
<path d="M0 0 C0 0.66 0 1.32 0 2 C-0.99 2 -1.98 2 -3 2 C-3 2.66 -3 3.32 -3 4 C-1.68 4.66 -0.36 5.32 1 6 C0.34 7.32 -0.32 8.64 -1 10 C-2.32 9.67 -3.64 9.34 -5 9 C-3.68 8.67 -2.36 8.34 -1 8 C-1 7.34 -1 6.68 -1 6 C-2.65 5.67 -4.3 5.34 -6 5 C-6 3.68 -6 2.36 -6 1 C-4 0 -4 0 0 0 Z " fill="#525252" transform="translate(148,149)"/>
<path d="M0 0 C0.99 0.33 1.98 0.66 3 1 C2.67 1.33 2.34 1.66 2 2 C3.32 2 4.64 2 6 2 C6 4.31 6 6.62 6 9 C5.67 8.01 5.34 7.02 5 6 C4.34 6 3.68 6 3 6 C3 6.99 3 7.98 3 9 C2.01 9 1.02 9 0 9 C0 6.03 0 3.06 0 0 Z " fill="#D2B6B7" transform="translate(152,168)"/>
<path d="M0 0 C1.65 0 3.3 0 5 0 C4.67 3.3 4.34 6.6 4 10 C4.66 10.33 5.32 10.66 6 11 C3.08517222 11.80967438 1.53886783 12.21845993 -1.3125 11.0625 C-1.869375 10.711875 -2.42625 10.36125 -3 10 C-1.02 10 0.96 10 3 10 C3 7.03 3 4.06 3 1 C2.34 1 1.68 1 1 1 C1 3.31 1 5.62 1 8 C0.67 8 0.34 8 0 8 C0 5.36 0 2.72 0 0 Z " fill="#F6E2E1" transform="translate(148,167)"/>
<path d="M0 0 C0.66 0 1.32 0 2 0 C2 2.97 2 5.94 2 9 C0.00045254 9.04254356 -2.00041636 9.04080783 -4 9 C-5 8 -5 8 -5.0625 4.4375 C-5.041875 3.303125 -5.02125 2.16875 -5 1 C-4.67 1 -4.34 1 -4 1 C-4 2.98 -4 4.96 -4 7 C-2.68 7 -1.36 7 0 7 C0 4.69 0 2.38 0 0 Z " fill="#876A6B" transform="translate(149,168)"/>
<path d="M0 0 C1.65 0 3.3 0 5 0 C5.6875 2.25 5.6875 2.25 6 5 C4.5625 7.3125 4.5625 7.3125 3 9 C3.99 9.66 4.98 10.32 6 11 C4.02 11 2.04 11 0 11 C1.33333333 7.66666667 2.66666667 4.33333333 4 1 C2.68 0.67 1.36 0.34 0 0 Z " fill="#3F3F3F" transform="translate(172,147)"/>
<path d="M0 0 C2.31 0.66 4.62 1.32 7 2 C7 4.64 7 7.28 7 10 C6.01 10 5.02 10 4 10 C4 7.69 4 5.38 4 3 C2.68 3 1.36 3 0 3 C0 2.01 0 1.02 0 0 Z " fill="#FBECEA" transform="translate(128,165)"/>
<path d="M0 0 C2.66666667 0.66666667 5.33333333 1.33333333 8 2 C8 2.66 8 3.32 8 4 C7.38125 4.103125 6.7625 4.20625 6.125 4.3125 C3.63473516 4.87525373 3.63473516 4.87525373 2 8 C1.34 7.34 0.68 6.68 0 6 C0.29369827 4.65737935 0.6278958 3.32303717 1 2 C0.67 1.34 0.34 0.68 0 0 Z " fill="#CECECE" transform="translate(121,149)"/>
<path d="M0 0 C2.3125 0.1875 2.3125 0.1875 5 1 C6.875 3.4375 6.875 3.4375 8 6 C7.67 6.66 7.34 7.32 7 8 C5.68 7.67 4.36 7.34 3 7 C2.67 5.68 2.34 4.36 2 3 C1.34 3 0.68 3 0 3 C0 2.01 0 1.02 0 0 Z " fill="#EAD57D" transform="translate(236,40)"/>
<path d="M0 0 C2.0625 0.4375 2.0625 0.4375 4 1 C3.34 1.66 2.68 2.32 2 3 C1.53993654 5.20250992 1.53993654 5.20250992 1.375 7.625 C1.30023438 8.44226563 1.22546875 9.25953125 1.1484375 10.1015625 C1.09945312 10.72804687 1.05046875 11.35453125 1 12 C0.34 12 -0.32 12 -1 12 C-1.02687279 10.18757948 -1.04633715 8.37504767 -1.0625 6.5625 C-1.07410156 5.55316406 -1.08570313 4.54382813 -1.09765625 3.50390625 C-1 1 -1 1 0 0 Z " fill="#896969" transform="translate(140,165)"/>
<path d="M0 0 C0 3.96 0 7.92 0 12 C-0.66 12 -1.32 12 -2 12 C-2 9.36 -2 6.72 -2 4 C-3.32 3.34 -4.64 2.68 -6 2 C-1.125 0 -1.125 0 0 0 Z " fill="#CECECE" transform="translate(117,146)"/>
<path d="M0 0 C0.99 0 1.98 0 3 0 C2.71905418 1.8141927 2.42493567 3.62635001 2.125 5.4375 C1.88136719 6.95150391 1.88136719 6.95150391 1.6328125 8.49609375 C1.42398438 9.32238281 1.21515625 10.14867187 1 11 C0.01 11.495 0.01 11.495 -1 12 C-1.02687279 10.18757948 -1.04633715 8.37504767 -1.0625 6.5625 C-1.07410156 5.55316406 -1.08570313 4.54382813 -1.09765625 3.50390625 C-1 1 -1 1 0 0 Z " fill="#8D6768" transform="translate(171,165)"/>
<path d="M0 0 C0.66 0 1.32 0 2 0 C2 0.66 2 1.32 2 2 C2.66 2 3.32 2 4 2 C4 2.66 4 3.32 4 4 C3.34 4 2.68 4 2 4 C2 5.98 2 7.96 2 10 C2.66 10.33 3.32 10.66 4 11 C2.68 11 1.36 11 0 11 C0 7.37 0 3.74 0 0 Z " fill="#484848" transform="translate(133,147)"/>
<path d="M0 0 C4.52615993 3.67832017 8.39424999 7.41086363 12 12 C10.68 12.33 9.36 12.66 8 13 C8 12.01 8 11.02 8 10 C7.34 10 6.68 10 6 10 C4.97388051 8.34928604 3.97691857 6.68029994 3 5 C2.443125 4.443125 1.88625 3.88625 1.3125 3.3125 C0.879375 2.879375 0.44625 2.44625 0 2 C0 1.34 0 0.68 0 0 Z " fill="#FCF6C7" transform="translate(227,96)"/>
<path d="M0 0 C1.34313399 0.64669414 2.67391178 1.31903578 4 2 C4.845625 2.4125 5.69125 2.825 6.5625 3.25 C9.58625588 5.42090166 10.56950949 7.61199616 12 11 C8.57472113 9.52651292 6.35044942 7.59092154 3.75 4.9375 C3.04359375 4.22464844 2.3371875 3.51179688 1.609375 2.77734375 C0 1 0 1 0 0 Z " fill="#F8ECA2" transform="translate(168,37)"/>
<path d="M0 0 C0.33 0.66 0.66 1.32 1 2 C1.99 2 2.98 2 4 2 C4 2.66 4 3.32 4 4 C3.34 4 2.68 4 2 4 C2 5.98 2 7.96 2 10 C2.66 10.33 3.32 10.66 4 11 C2.68 10.67 1.36 10.34 0 10 C-1.125 2.25 -1.125 2.25 0 0 Z " fill="#8D6467" transform="translate(98,166)"/>
<path d="M0 0 C0.66 0.66 1.32 1.32 2 2 C1.01 2 0.02 2 -1 2 C-1 4.31 -1 6.62 -1 9 C-1.99 9 -2.98 9 -4 9 C-4 6.69 -4 4.38 -4 2 C-2.68 1.34 -1.36 0.68 0 0 Z " fill="#FBE6E2" transform="translate(83,166)"/>
<path d="M0 0 C0.99 0.33 1.98 0.66 3 1 C2.67 4.96 2.34 8.92 2 13 C2.66 13.33 3.32 13.66 4 14 C3.01 14.33 2.02 14.66 1 15 C0.95101562 14.07316406 0.90203125 13.14632812 0.8515625 12.19140625 C0.77679688 10.99386719 0.70203125 9.79632813 0.625 8.5625 C0.55539063 7.36753906 0.48578125 6.17257813 0.4140625 4.94140625 C0.27742188 3.97074219 0.14078125 3.00007812 0 2 C-0.66 1.67 -1.32 1.34 -2 1 C-1.34 0.67 -0.68 0.34 0 0 Z " fill="#CBCACA" transform="translate(107,145)"/>
<path d="M0 0 C0.99 0 1.98 0 3 0 C3 2.31 3 4.62 3 7 C1.68 7 0.36 7 -1 7 C-1.04254356 5.00045254 -1.04080783 2.99958364 -1 1 C-0.67 0.67 -0.34 0.34 0 0 Z " fill="#DDC3C1" transform="translate(185,170)"/>
<path d="M0 0 C0.33 0 0.66 0 1 0 C1 2.64 1 5.28 1 8 C1.66 8 2.32 8 3 8 C3.33 10.64 3.66 13.28 4 16 C1.19155042 13.72228105 0.08264522 12.63802112 -0.390625 8.984375 C-0.34421875 7.91703125 -0.2978125 6.8496875 -0.25 5.75 C-0.21390625 4.67234375 -0.1778125 3.5946875 -0.140625 2.484375 C-0.09421875 1.66453125 -0.0478125 0.8446875 0 0 Z " fill="#FAF2DB" transform="translate(241,32)"/>
<path d="M0 0 C0.928125 0.20625 1.85625 0.4125 2.8125 0.625 C0.38494264 3.05255736 -2.07939508 4.20045191 -5.1875 5.625 C-5.8475 5.625 -6.5075 5.625 -7.1875 5.625 C-6.875 3.75 -6.875 3.75 -6.1875 1.625 C-3.1875 -0.375 -3.1875 -0.375 0 0 Z " fill="#FAEEDA" transform="translate(122.1875,2.375)"/>
<path d="M0 0 C1.65 0 3.3 0 5 0 C4.67 2.31 4.34 4.62 4 7 C3.01 7.33 2.02 7.66 1 8 C1.020625 7.236875 1.04125 6.47375 1.0625 5.6875 C1.12942841 2.89814214 1.12942841 2.89814214 0 0 Z " fill="#AF8C8D" transform="translate(175,168)"/>
<path d="M0 0 C0.33 0 0.66 0 1 0 C1 2.31 1 4.62 1 7 C-0.98 7 -2.96 7 -5 7 C-5.33 5.68 -5.66 4.36 -6 3 C-4.68 2.67 -3.36 2.34 -2 2 C-2.99 2.495 -2.99 2.495 -4 3 C-3.34 3.66 -2.68 4.32 -2 5 C-1.34 5 -0.68 5 0 5 C0 3.35 0 1.7 0 0 Z " fill="#7C5858" transform="translate(74,170)"/>
<path d="M0 0 C0.66 0.33 1.32 0.66 2 1 C1.67 1.66 1.34 2.32 1 3 C1.99 3.33 2.98 3.66 4 4 C3.01 4 2.02 4 1 4 C1.33 4.66 1.66 5.32 2 6 C3.32 6 4.64 6 6 6 C6 6.66 6 7.32 6 8 C4.02 8 2.04 8 0 8 C-0.38063221 5.6739143 -0.71269945 3.33944736 -1 1 C-0.67 0.67 -0.34 0.34 0 0 Z " fill="#865D60" transform="translate(117,169)"/>
<path d="M0 0 C1.8125 5.4375 1.8125 5.4375 2 8 C0.0625 10.3125 0.0625 10.3125 -2 12 C-3.40907283 9.18185434 -2.50872691 7.82722796 -1.5625 4.875 C-1.27503906 3.96492187 -0.98757812 3.05484375 -0.69140625 2.1171875 C-0.46324219 1.41851562 -0.23507813 0.71984375 0 0 Z " fill="#E3E3E3" transform="translate(238,171)"/>
<path d="M0 0 C1.98 0.495 1.98 0.495 4 1 C4 3.64 4 6.28 4 9 C3.34 9 2.68 9 2 9 C2 6.69 2 4.38 2 2 C1.01 2.33 0.02 2.66 -1 3 C-0.67 2.01 -0.34 1.02 0 0 Z " fill="#8F6B6E" transform="translate(190,168)"/>
<path d="M0 0 C1.32 0.99 2.64 1.98 4 3 C3.34 3 2.68 3 2 3 C2 4.98 2 6.96 2 9 C2.66 9.33 3.32 9.66 4 10 C2.68 10 1.36 10 0 10 C0 6.7 0 3.4 0 0 Z " fill="#3E3E3E" transform="translate(162,148)"/>
<path d="M0 0 C2.475 0.495 2.475 0.495 5 1 C4.67 1.66 4.34 2.32 4 3 C3.34 3 2.68 3 2 3 C2 4.98 2 6.96 2 9 C1.34 9 0.68 9 0 9 C0 6.03 0 3.06 0 0 Z " fill="#484848" transform="translate(94,149)"/>
<path d="M0 0 C0.99 0 1.98 0 3 0 C3 2.64 3 5.28 3 8 C2.01 7.67 1.02 7.34 0 7 C0 4.69 0 2.38 0 0 Z " fill="#EDEDED" transform="translate(182,149)"/>
<path d="M0 0 C1.13199353 0.9080162 2.25532363 1.82683826 3.375 2.75 C4.00148437 3.26046875 4.62796875 3.7709375 5.2734375 4.296875 C7.08312318 6.08199481 8.00117455 7.67949644 9 10 C5.55261628 8.46782946 2.74690118 6.59429556 0 4 C0 2.68 0 1.36 0 0 Z " fill="#FEFCE3" transform="translate(146,16)"/>
<path d="M0 0 C2.31 0 4.62 0 7 0 C6.01 0.495 6.01 0.495 5 1 C5 2.65 5 4.3 5 6 C3.02 4.68 1.04 3.36 -1 2 C-0.67 1.34 -0.34 0.68 0 0 Z " fill="#E8E8E8" transform="translate(153,146)"/>
<path d="M0 0 C0.66 0.66 1.32 1.32 2 2 C5.58343976 2.16677282 5.58343976 2.16677282 9 2 C9 2.66 9 3.32 9 4 C7.741875 4.185625 6.48375 4.37125 5.1875 4.5625 C4.12595703 4.71912109 4.12595703 4.71912109 3.04296875 4.87890625 C1 5 1 5 -2 4 C-1.34 3.67 -0.68 3.34 0 3 C0 2.01 0 1.02 0 0 Z " fill="#F5E4E4" transform="translate(160,174)"/>
<path d="M0 0 C0.99 0 1.98 0 3 0 C3 1.65 3 3.3 3 5 C1.68 5 0.36 5 -1 5 C-0.67 3.35 -0.34 1.7 0 0 Z " fill="#F0D0D3" transform="translate(88,170)"/>
<path d="M0 0 C0.99 0.33 1.98 0.66 3 1 C2.01 2.98 1.02 4.96 0 7 C-0.66 6.67 -1.32 6.34 -2 6 C-2 4.35 -2 2.7 -2 1 C-1.34 0.67 -0.68 0.34 0 0 Z " fill="#FAFCFA" transform="translate(161,159)"/>
<path d="M0 0 C1.98 0.99 1.98 0.99 4 2 C4 2.66 4 3.32 4 4 C4.99 4 5.98 4 7 4 C7.33 5.65 7.66 7.3 8 9 C1.42857143 3.85714286 1.42857143 3.85714286 0 0 Z " fill="#FDF8CF" transform="translate(210,11)"/>
<path d="M0 0 C2.475 0.495 2.475 0.495 5 1 C5 2.32 5 3.64 5 5 C3.35 4.67 1.7 4.34 0 4 C0 2.68 0 1.36 0 0 Z " fill="#AB8A8D" transform="translate(118,168)"/>
<path d="M0 0 C1.32 0 2.64 0 4 0 C3.34 3.3 2.68 6.6 2 10 C1.67 10 1.34 10 1 10 C0.63883954 8.5225254 0.28624952 7.04295325 -0.0625 5.5625 C-0.25972656 4.73878906 -0.45695313 3.91507813 -0.66015625 3.06640625 C-0.82837891 2.04353516 -0.82837891 2.04353516 -1 1 C-0.67 0.67 -0.34 0.34 0 0 Z " fill="#ABABAB" transform="translate(160,147)"/>
<path d="M0 0 C3.7952131 1.49097658 5.61042731 3.75700849 8 7 C6.68 7 5.36 7 4 7 C3.34 5.35 2.68 3.7 2 2 C1.34 2 0.68 2 0 2 C0 1.34 0 0.68 0 0 Z " fill="#FDF8C9" transform="translate(184,54)"/>
<path d="M0 0 C0.33 0 0.66 0 1 0 C1 3.3 1 6.6 1 10 C1.66 10 2.32 10 3 10 C3 10.66 3 11.32 3 12 C1.35 11.67 -0.3 11.34 -2 11 C-1.34 10.67 -0.68 10.34 0 10 C0 6.7 0 3.4 0 0 Z " fill="#FCEEEC" transform="translate(198,167)"/>
<path d="M0 0 C0.99 0.33 1.98 0.66 3 1 C3.33 2.98 3.66 4.96 4 7 C3.01 7.495 3.01 7.495 2 8 C0.23537317 4.91190305 0 3.76687864 0 0 Z " fill="#ECC865" transform="translate(239,104)"/>
<path d="M0 0 C0.66 0 1.32 0 2 0 C2 0.66 2 1.32 2 2 C2.639375 2.28875 3.27875 2.5775 3.9375 2.875 C6 4 6 4 7 6 C5.35 6 3.7 6 2 6 C1.34 4.02 0.68 2.04 0 0 Z " fill="#E7CF7C" transform="translate(202,5)"/>
<path d="M0 0 C0.99 0.33 1.98 0.66 3 1 C3.33 2.65 3.66 4.3 4 6 C2.68 6 1.36 6 0 6 C0 4.02 0 2.04 0 0 Z " fill="#FAE7E9" transform="translate(127,171)"/>
<path d="M0 0 C0.66 0 1.32 0 2 0 C2 1.98 2 3.96 2 6 C1.01 6.33 0.02 6.66 -1 7 C-1.04254356 5.00045254 -1.04080783 2.99958364 -1 1 C-0.67 0.67 -0.34 0.34 0 0 Z " fill="#F3DFDC" transform="translate(190,170)"/>
<path d="M0 0 C0.99 0 1.98 0 3 0 C3 1.98 3 3.96 3 6 C2.01 6 1.02 6 0 6 C0 4.02 0 2.04 0 0 Z " fill="#F0DDD8" transform="translate(110,170)"/>
<path d="M0 0 C1.67542976 0.28604898 3.34385343 0.61781233 5 1 C4.67 1.99 4.34 2.98 4 4 C2.68 4 1.36 4 0 4 C-0.33 3.01 -0.66 2.02 -1 1 C-0.67 0.67 -0.34 0.34 0 0 Z " fill="#858585" transform="translate(151,149)"/>
<path d="M0 0 C2.31 0.66 4.62 1.32 7 2 C7 2.33 7 2.66 7 3 C5.35 3.33 3.7 3.66 2 4 C1.67 5.65 1.34 7.3 1 9 C0.67 9 0.34 9 0 9 C-1.125 3.375 -1.125 3.375 0 0 Z " fill="#B6B6B6" transform="translate(85,147)"/>
<path d="M0 0 C1.4800841 0.11362262 2.95910074 0.24122908 4.4375 0.375 C5.26121094 0.44460938 6.08492187 0.51421875 6.93359375 0.5859375 C7.95646484 0.79089844 7.95646484 0.79089844 9 1 C9.33 1.66 9.66 2.32 10 3 C8.375 3.6875 8.375 3.6875 6 4 C2.75 2.5625 2.75 2.5625 0 1 C0 0.67 0 0.34 0 0 Z " fill="#F2D26D" transform="translate(140,9)"/>
<path d="M0 0 C0 0.66 0 1.32 0 2 C0.99 2.33 1.98 2.66 3 3 C-0.28696233 3.79953138 -1.71023192 4.09658936 -5 3 C-5 2.34 -5 1.68 -5 1 C-2 0 -2 0 0 0 Z " fill="#F7EAEB" transform="translate(124,165)"/>
<path d="M0 0 C0.66 0.33 1.32 0.66 2 1 C2 2.65 2 4.3 2 6 C-0.5 4.625 -0.5 4.625 -3 3 C-3 2.34 -3 1.68 -3 1 C-2.01 0.67 -1.02 0.34 0 0 Z " fill="#B1B1B1" transform="translate(148,150)"/>
</svg>
